<?xml version="1.0" standalone="no"?>
<!DOCTYPE svg PUBLIC "-//W3C//DTD SVG 1.1//EN" "http://www.w3.org/Graphics/SVG/1.1/DTD/svg11.dtd" >
<svg>
<metadata>
Created by FontForge 20090914 at Thu Oct 22 13:10:07 2015
 By www-data
Generated by Fontographer 3.5
</metadata>
<defs>
<font id="HebrewRegular" horiz-adv-x="606" >
  <font-face 
    font-family="Hebrew"
    font-weight="5"
    font-stretch="normal"
    units-per-em="1000"
    panose-1="0 0 0 0 0 0 0 0 0 0"
    ascent="800"
    descent="-200"
    x-height="449"
    cap-height="709"
    bbox="-96.002 -298.998 1225 981.999"
    underline-thickness="50"
    underline-position="-75"
    unicode-range="U+0020-U+F002"
  />
<missing-glyph horiz-adv-x="701" 
d="M43 0v701h615v-701h-615zM615 43v615h-529v-615h529z" />
    <glyph glyph-name=".notdef" horiz-adv-x="701" 
d="M43 0v701h615v-701h-615zM615 43v615h-529v-615h529z" />
    <glyph glyph-name="space" unicode=" " horiz-adv-x="299" 
 />
    <glyph glyph-name="exclam" unicode="!" horiz-adv-x="283" 
d="M157 173c0 38 5.16797 87.001 15.501 147.001l31.5 184c10.667 62.667 16 112.667 16 150c0 25.333 -7.33301 45.333 -22 60s-32 22 -52 22c-20.667 0 -38.334 -7 -53.001 -21s-22 -34.333 -22 -61c0 -30 3 -65.667 9 -107s16.5 -109.833 31.5 -205.5
s22.5 -151.834 22.5 -168.501c0 -11.333 4 -17 12 -17c7.33301 0 11 5.66699 11 17zM142.001 118.001c-18 0 -32.333 -6.33203 -43 -18.999s-16 -27.334 -16 -44.001s5.33301 -31.334 16 -44.001s25 -19 43 -19c20.667 0 36.667 6 48 18s17 27 17 45
c0 16.667 -5.66699 31.334 -17 44.001s-27.333 19 -48 19z" />
    <glyph glyph-name="quotedbl" unicode="&#x22;" horiz-adv-x="457" 
d="M134 449l31 205c2.66699 10 4 19.667 4 29c0 16 -4.83301 28.5 -14.5 37.5s-21.167 13.5 -34.5 13.5c-14 0 -26.333 -5 -37 -15s-16 -23 -16 -39c0 -9.33301 1.33301 -18 4 -26l39 -205h24zM323 449l23 0.000976562l40 205c0.666992 1.33301 1.5 5.16602 2.5 11.499
s1.5 11.5 1.5 15.5c0 16.667 -4.83301 29.5 -14.5 38.5s-21.5 13.5 -35.5 13.5s-26 -5 -36 -15s-15 -24.333 -15 -43c0 -8.66699 0.666992 -15.667 2 -21z" />
    <glyph glyph-name="numbersign" unicode="#" 
d="M260 496l31 228h-63l-31 -228h-134l-8 -47h134l-24 -166h-134l-7 -47h133l-39 -236h63l39 236h134l-31 -236h63l31 236h134l8 47h-134l24 166h126l8 47h-126l31 228h-63l-31 -228h-134zM386 449l-24 -166h-134l24 166h134z" />
    <glyph glyph-name="dollar" unicode="$" 
d="M433 717c-13.333 6 -30.499 10.832 -51.499 14.499s-42.833 5.5 -65.5 5.5c-70 0 -131 -15.833 -183 -47.5s-78 -83.167 -78 -154.5c0 -38.667 13.333 -73.167 40 -103.5s81.667 -61.166 165 -92.499l-79 -166c0.666992 4.66699 1 11.667 1 21c0 28 -7 49 -21 63
s-31.333 21 -52 21c-22 0 -41.667 -7 -59 -21s-26 -31.333 -26 -52c-0.666992 -11.333 -1 -21 -1 -29c0 -26.667 5.5 -52 16.5 -76s34.5 -47 70.5 -69l-39 -78c-6 -16 -9 -28.333 -9 -37c0 -12 4.66699 -18 14 -18c7.33301 0 15.166 3.5 23.499 10.5s14.5 16.5 18.5 28.5
l39 79c9.33301 -7.33301 26 -13.666 50 -18.999s51.667 -8 83 -8c71.333 0 134.833 16 190.5 48s87.167 85.333 94.5 160c0 64 -14 110 -42 138s-87.667 60.667 -179 98l55 126c0 -32.667 6 -56.667 18 -72s27.667 -23 47 -23c21.333 0 40.333 8.66699 57 26
s25 39.333 25 66c0 22 -6.33301 44.333 -19 67s-34.334 46 -65.001 70l56 118c2 3.33301 3 6.66602 3 9.99902c0 12.667 -8 19 -24 19c-6 0 -11.167 -1.5 -15.5 -4.5s-8.16602 -8.5 -11.499 -16.5zM417.001 684.999l-110.001 -236.001
c-33.333 7.33301 -68.833 25.833 -106.5 55.5s-56.5 60.834 -56.5 93.501c0 11.333 2.16699 22 6.5 32s13.333 21.833 27 35.5s32.834 24.334 57.501 32.001s50 11.5 76 11.5c24 0 45.5 -2.33301 64.5 -7s32.833 -10.334 41.5 -17.001zM465 660.998
c16 -20.667 24 -46 24 -76c0 -24 -8 -38 -24 -42c-10.667 -2 -19.334 0.5 -26.001 7.5s-10 17.167 -10 30.5c0 12 2.83301 24.833 8.5 38.5s14.834 27.5 27.501 41.5zM307 322.998c52 -15.333 93.833 -34.999 125.5 -58.999s47.5 -54.667 47.5 -92
c0 -10.667 -1 -20.667 -3 -30s-8.33301 -25.333 -19 -48s-33.5 -41.334 -68.5 -56.001s-72.5 -22 -112.5 -22c-29.333 0 -54.5 3.33301 -75.5 10s-30.5 13.667 -28.5 21zM126 62.999c-12.667 8.66699 -23.332 20.499 -31.999 35.499s-13 29.167 -13 42.5
c0 12 3.66699 21.667 11 29s18.666 11 33.999 11c11.333 0 19.333 -3.33301 24 -10s7 -15.667 7 -27c0 -14 -3.33301 -29.167 -10 -45.5s-13.667 -28.166 -21 -35.499z" />
    <glyph glyph-name="percent" unicode="%" horiz-adv-x="740" 
d="M520 685l-347 -654c-2 -4 -3 -7.66699 -3 -11c0 -8 6.33301 -12 19 -12c13.333 0 23.666 7.66699 30.999 23l355 662c2 7.33301 3 12.333 3 15c0 6 -6.33301 9 -19 9c-12 0 -20.667 -3.83301 -26 -11.5s-9.66602 -14.5 -12.999 -20.5zM157 717
c-41.333 0 -74.499 -19.333 -99.499 -58s-37.5 -83 -37.5 -133c0 -49.333 12.333 -91.666 37 -126.999s60.667 -53 108 -53c43.333 0 76.666 17.167 99.999 51.5s35 76.166 35 125.499c0 52 -12.667 97.333 -38 136s-60.333 58 -105 58zM157.001 693
c28.667 0 50.334 -14.833 65.001 -44.5s22 -66.167 22 -109.5c0 -44.667 -7.33301 -84 -22 -118s-33.667 -51 -57 -51c-28.667 0 -50.334 14.5 -65.001 43.5s-22 64.5 -22 106.5c0 44 7.33301 83.333 22 118s33.667 53 57 55zM583.001 370
c-43.333 0 -77.833 -19.668 -103.5 -59.001s-38.5 -84.666 -38.5 -135.999c0 -50 12.333 -93 37 -129s59.667 -54 105 -54c42.667 0 75.5 17.667 98.5 53s34.5 77.666 34.5 126.999c0 52.667 -12 98.834 -36 138.501s-56.333 59.5 -97 59.5zM575.001 345.999
c26 0 46.333 -16.3291 61 -48.9961s22 -71.334 22 -116.001s-7.33301 -83.334 -22 -116.001s-35 -49 -61 -49c-22 0 -39.333 15.667 -52 47s-19 68.666 -19 111.999s6.33301 81.666 19 114.999s30 52 52 56z" />
    <glyph glyph-name="ampersand" unicode="&#x26;" horiz-adv-x="850" 
d="M220 394c-64.667 -18.667 -112.835 -46.666 -144.502 -83.999s-47.5 -78 -47.5 -122c0 -56 22.833 -105.167 68.5 -147.5s103.834 -63.5 174.501 -63.5c38.667 0 77.5 6.66699 116.5 20s80.5 35.333 124.5 66c20.667 -26 38 -43 52 -51s28.333 -12 43 -12h15h197
c22.667 0 34 5 34 15c0 10.667 -14 16 -42 16c-58.667 0 -100.5 7.66699 -125.5 23s-59.167 44.666 -102.5 87.999c36 72 66 122.833 90 152.5s62 44.5 114 44.5c20 0 30 5 30 15c0 10.667 -10 16 -30 16h-307c-19.333 0 -29 -5.33301 -29 -16c0 -4 2.5 -7.5 7.5 -10.5
s12.167 -4.5 21.5 -4.5c34.667 0 63 -6.66699 85 -20s33 -33.333 33 -60c0 -12.667 -3.16699 -27 -9.5 -43s-16.166 -33 -29.499 -51l-220 252c64 17.333 112.5 41.5 145.5 72.5s49.5 63.5 49.5 97.5c0 37.333 -18.667 69.5 -56 96.5s-86.333 40.5 -147 40.5
c-51.333 0 -97.166 -15.667 -137.499 -47s-60.5 -70.666 -60.5 -117.999c0 -26.667 6.66699 -53.334 20 -80.001s35.666 -55 66.999 -85zM322.999 433.001c-28.667 30.667 -50.168 61 -64.501 91s-21.5 57.667 -21.5 83c0 38.667 10 62.5 30 71.5s36 14.833 48 17.5
s22 4 30 4c30 0 54.333 -10.833 73 -32.5s28 -48.167 28 -79.5s-10.167 -61 -30.5 -89s-51.166 -50 -92.499 -66zM227.998 378.001l268 -299.001c-31.333 -22.667 -61.5 -39.167 -90.5 -49.5s-56.167 -15.5 -81.5 -15.5c-53.333 0 -96 20.333 -128 61
s-48 88.334 -48 143.001c0 32.667 6.5 63 19.5 91s33.167 51 60.5 69z" />
    <glyph glyph-name="parenleft" unicode="(" horiz-adv-x="394" 
d="M339 717c-89.333 -26.667 -160 -77.832 -212 -153.499s-78 -159.834 -78 -252.501c0 -85.333 22.833 -164.833 68.5 -238.5s95.5 -123.334 149.5 -149.001s86.667 -38.5 98 -38.5c7.33301 0 11 2.33301 11 7c0 9.33301 -12.333 19 -37 29
c-49.333 28 -89.333 79.667 -120 155s-46 156.666 -46 243.999c0 86 15.5 162.833 46.5 230.5s67.333 110.334 109 128.001s62.5 29.834 62.5 36.501c0 5.33301 -6.33301 8 -19 8c-8.66699 0 -19.667 -2 -33 -6z" />
    <glyph glyph-name="parenright" unicode=")" horiz-adv-x="394" 
d="M55 693c53.333 -28.667 93.502 -76.833 120.502 -144.5s40.5 -143.5 40.5 -227.5c0 -87.333 -14 -168.5 -42 -243.5s-61.333 -122.5 -100 -142.5s-58 -33.333 -58 -40c0 -2.66699 3 -4 9 -4c6.66699 0 14.667 1 24 3s36.166 11 80.499 27s91.666 63.5 141.999 142.5
s75.5 163.833 75.5 254.5c0 78.667 -20.833 152.167 -62.5 220.5s-90 116.333 -145 144s-89.167 41.5 -102.5 41.5c-8.66699 0 -13 -2.33301 -13 -7c0 -7.33301 10.333 -15.333 31 -24z" />
    <glyph glyph-name="asterisk" unicode="*" 
d="M283 551c-16.667 6.66699 -31.0029 14.666 -43.0029 23.999s-23.667 19.666 -35 30.999c-17.333 12.667 -34.333 19 -51 19c-14 0 -25.167 -4.5 -33.5 -13.5s-12.5 -20.5 -12.5 -34.5c0 -10 2.83301 -19.5 8.5 -28.5s12 -15 19 -18s15 -5.33301 24 -7
s19.833 -2.5 32.5 -2.5c7.33301 0 17.833 0.333008 31.5 1s23.167 1 28.5 1c10 0 18 -1 24 -3c-12 -12 -28.333 -24.5 -49 -37.5s-37.167 -25 -49.5 -36s-18.5 -24.167 -18.5 -39.5c0 -13.333 5.83301 -25.166 17.5 -35.499s24.834 -15.5 39.501 -15.5c20 0 33.667 8 41 24
s15.166 38.333 23.499 67s17.166 47.667 26.499 57c4 -8 7.5 -24.5 10.5 -49.5s10.833 -47.833 23.5 -68.5s27.334 -31 44.001 -31c14.667 0 28.334 5.33301 41.001 16s19 23 19 37c0 6 -2 13 -6 21s-20.5 21.833 -49.5 41.5s-48.5 36.167 -58.5 49.5
c15.333 2.66699 30.333 4 45 4c8 0 20.667 -0.666992 38 -2s26.333 -2 27 -2c18.667 0 33.167 5.5 43.5 16.5s15.5 23.5 15.5 37.5s-4.33301 26 -13 36s-20.334 15 -35.001 15c-5.33301 0 -14.666 -1.66699 -27.999 -5s-30.666 -15.666 -51.999 -36.999
s-37.666 -32 -48.999 -32c0 15.333 5.16699 37.5 15.5 66.5s15.5 46.167 15.5 51.5c2 18 -1.5 31.833 -10.5 41.5s-20.833 14.5 -35.5 14.5s-27.667 -5 -39 -15s-17 -23.667 -17 -41c0 -6 5.16699 -24.167 15.5 -54.5s15.5 -51.5 15.5 -63.5z" />
    <glyph glyph-name="plus" unicode="+" horiz-adv-x="630" 
d="M276 339h-229v-63h229v-276h70v276h237v63h-237v267h-70v-267z" />
    <glyph glyph-name="comma" unicode="," horiz-adv-x="299" 
d="M181 -31c-5.33301 -22.667 -11.667 -40.834 -19 -54.501s-20 -28.167 -38 -43.5s-27 -26.333 -27 -33c0 -4.66699 3.66699 -7 11 -7c12.667 0 28.167 7.5 46.5 22.5s35.166 39 50.499 72s23 64.5 23 94.5c0 26.667 -6.33301 48.834 -19 66.501
s-32.334 28.167 -59.001 31.5c-25.333 0 -45.5 -7.83301 -60.5 -23.5s-22.5 -33.834 -22.5 -54.501c0 -15.333 4.33301 -28.166 13 -38.499s21.334 -15.5 38.001 -15.5c9.33301 0 20 2 32 6c4.66699 2.66699 10.334 4 17.001 4c10.667 0 16 -5.33301 16 -16z" />
    <glyph glyph-name="hyphen" unicode="-" horiz-adv-x="339" 
d="M87 291l-40 -86h205l39 86h-204z" />
    <glyph glyph-name="hyphen" unicode="&#xad;" horiz-adv-x="339" 
d="M87 291l-40 -86h205l39 86h-204z" />
    <glyph glyph-name="period" unicode="." horiz-adv-x="299" 
d="M150 118c-20.667 0 -37 -6.66699 -49 -20s-18 -29 -18 -47c0 -18.667 6.16699 -34.5 18.5 -47.5s30.833 -19.5 55.5 -19.5c19.333 0 34.833 7 46.5 21s17.5 30.333 17.5 49c0 18 -5.83301 33.167 -17.5 45.5s-29.5 18.5 -53.5 18.5z" />
    <glyph glyph-name="slash" unicode="/" horiz-adv-x="496" 
d="M409 748c-10.667 -4 -17.667 -8.00195 -21 -12.002c-4 -8 -7.33301 -14.333 -10 -19l-331 -764c-3.33301 -7.33301 -6.5 -15.166 -9.5 -23.499s-4.5 -14.5 -4.5 -18.5c0 -8.66699 4.66699 -13 14 -13h47c8.66699 0 15.5 2.83301 20.5 8.5s11.5 18.5 19.5 38.5l331 756
c9.33301 18.667 14 31.334 14 38.001c0 6 -7.33301 9 -22 9h-48z" />
    <glyph glyph-name="zero" unicode="0" 
d="M299 740c-90.667 0 -160.333 -35.665 -209 -106.998s-73 -157 -73 -257c0 -104.667 25.833 -196.167 77.5 -274.5s122.5 -117.5 212.5 -117.5c86.667 0 154.5 37.167 203.5 111.5s73.5 162.166 73.5 263.499c0 103.333 -25 192.666 -75 267.999s-120 113 -210 113z
M299.001 709.002c55.333 0 97.833 -33.666 127.5 -100.999s44.5 -148 44.5 -242c0 -93.333 -14.667 -175 -44 -245s-69.333 -105 -120 -105c-55.333 0 -98.833 35 -130.5 105s-47.5 152 -47.5 246c0 93.333 14.833 173.666 44.5 240.999s71.5 101 125.5 101z" />
    <glyph glyph-name="one" unicode="1" 
d="M252 543l-0.000976562 -409.001c0 -46 -12.167 -74.667 -36.5 -86s-62.166 -17 -113.499 -17c-16.667 -1.33301 -28.5 -3.5 -35.5 -6.5s-10.5 -6.5 -10.5 -10.5s3 -7.33301 9 -10s13.333 -4 22 -4h425c18.667 0 28 4 28 12c0 4.66699 -4.16699 9 -12.5 13
s-18.833 6 -31.5 6c-55.333 0 -91.5 9.33301 -108.5 28s-25.5 43.667 -25.5 75v567c0 19.333 -3 29 -9 29c-4.66699 0 -15.667 -8.33301 -33 -25s-49.166 -32.167 -95.499 -46.5s-85.833 -23.666 -118.5 -27.999s-49 -10.833 -49 -19.5s12.333 -13 37 -13h95
c25.333 0 42.166 -4.5 50.499 -13.5s12.5 -22.833 12.5 -41.5z" />
    <glyph glyph-name="two" unicode="2" 
d="M126 567c8 -12 11.998 -21.332 11.998 -27.999c0 -12.667 -8 -19 -24 -19c-14.667 0 -23.167 3.5 -25.5 10.5s-3.5 14.833 -3.5 23.5c0 32.667 16 64 48 94s74.333 45 127 45c46 0 82 -16 108 -48s39 -70 39 -114c0 -36.667 -9.33301 -71.334 -28 -104.001
s-51.334 -60 -98.001 -82s-87.167 -43.167 -121.5 -63.5s-64 -46.833 -89 -79.5s-37.5 -73.334 -37.5 -122.001c0 -17.333 2 -35.166 6 -53.499s9.33301 -31.333 16 -39s13.667 -11.5 21 -11.5c8 0 13.333 3 16 9s3.33398 11 2.00098 15c-2 6 -7 13.667 -15 23
s-12 17.333 -12 24c0 5.33301 1 10.333 3 15s5.5 8.16699 10.5 10.5s12.5 3.5 22.5 3.5c14.667 0 35.334 -4.16699 62.001 -12.5s63.667 -24.333 111 -48s92.666 -35.5 135.999 -35.5c25.333 0 48 5 68 15s36.667 22.833 50 38.5s22.833 31.334 28.5 47.001
s8.5 32.167 8.5 49.5c0 29.333 -7.33301 55.166 -22 77.499s-30.667 35.666 -48 39.999s-31 6.5 -41 6.5c-11.333 0 -20.833 -1.83301 -28.5 -5.5s-11.5 -10.167 -11.5 -19.5s4.33301 -14 13 -14c4.66699 0 9.16699 2.16699 13.5 6.5s12.166 6.5 23.499 6.5
c12.667 0 24.834 -3.33301 36.501 -10s20.334 -17 26.001 -31s8.5 -26.667 8.5 -38c0 -20.667 -8.66699 -36.5 -26 -47.5s-39.333 -16.5 -66 -16.5c-34.667 0 -66.334 7.66699 -95.001 23s-58 27.333 -88 36s-59 13 -87 13c-26.667 0 -49 -4.33301 -67 -13
s-30.333 -22.667 -37 -42c0 64.667 27.333 111.834 82 141.501s119.334 55 194.001 76s127.334 48.167 158.001 81.5s46 70.333 46 111c0 54.667 -24 103.667 -72 147s-105.333 65 -172 65c-92.667 0 -162.667 -21 -210 -63s-71 -89.333 -71 -142
c0 -28 6.83301 -52.167 20.5 -72.5s27.5 -32 41.5 -35s23 -4.5 27 -4.5h13c25.333 0 45 7 59 21s21 31.333 21 52c0 20 -6.16699 38.5 -18.5 55.5s-30.833 30.167 -55.5 39.5z" />
    <glyph glyph-name="three" unicode="3" 
d="M386 417c47.333 18 82.8301 40.1689 106.497 66.502s35.5 53.833 35.5 82.5c0 42 -22 78.833 -66 110.5s-98.333 47.5 -163 47.5c-78 0 -140.167 -20.667 -186.5 -62s-69.5 -85.333 -69.5 -132c0 -25.333 7.33301 -46.5 22 -63.5s36.667 -25.5 66 -25.5
c20 0 35.833 5.83301 47.5 17.5s17.5 26.167 17.5 43.5c0 28 -11.5 46.167 -34.5 54.5s-34.5 20.833 -34.5 37.5c0 22 14.5 44 43.5 66s61.5 33 97.5 33c38 -4 69.167 -18.833 93.5 -44.5s36.5 -55.834 36.5 -90.501c0 -42 -18.5 -80.5 -55.5 -115.5
s-93.5 -59.167 -169.5 -72.5c-13.333 -4 -20 -9 -20 -15c0 -6.66699 6 -10 18 -10c4 0 8.5 0.666992 13.5 2s18.167 2 39.5 2c56.667 0 108.334 -10.833 155.001 -32.5s70 -61.5 70 -119.5c0 -60 -17.667 -105.5 -53 -136.5s-77.666 -46.5 -126.999 -46.5
c-34.667 0 -66.5 7.66699 -95.5 23s-47.667 32 -56 50s-12.5 30 -12.5 36c0 12 4 22.833 12 32.5s17.333 14.5 28 14.5c18 0 32.667 -14.667 44 -44h8c6 20 9 37.667 9 53c0 29.333 -9 51.166 -27 65.499s-39 21.5 -63 21.5c-28 0 -48.333 -7.33301 -61 -22
c-21.333 -27.333 -32 -55 -32 -83c0 -47.333 25.333 -90 76 -128s104.334 -57 161.001 -57c107.333 0 188 23.333 242 70s81 102 81 166c0 55.333 -18.167 103.333 -54.5 144s-83.833 61 -142.5 61z" />
    <glyph glyph-name="four" unicode="4" 
d="M307 189l-0.000976562 -71.0049c0 -34.667 -12.167 -57.834 -36.5 -69.501s-51.5 -17.5 -81.5 -17.5c-19.333 0 -29 -5.33301 -29 -16c0 -4 2.5 -7.5 7.5 -10.5s12.167 -4.5 21.5 -4.5h346c20 0 30 5 30 15c0 10.667 -10 16 -30 16c-35.333 0 -62.5 7.66699 -81.5 23
s-28.5 42 -28.5 80v39c2.66699 0.666992 8.33398 1 17.001 1c4 0 9.33301 -0.166992 16 -0.5s14.667 -0.5 24 -0.5c36.667 0 63.5 4.66699 80.5 14s29.167 23.333 36.5 42s11 31.667 11 39c0 6 -3 9 -9 9c-5.33301 0 -14 -3 -26 -9c-30.667 -10 -55.334 -16.5 -74.001 -19.5
s-44 -4.5 -76 -4.5v276c0 37.333 2.33301 66.5 7 87.5s18 44.167 40 69.5c6 8.66699 10.333 15.667 13 21s4 10 4 14c0 3.33301 -1.83301 5 -5.5 5s-9.83398 -2.66699 -18.501 -8c-14.667 -18 -38.834 -40.167 -72.501 -66.5s-62.167 -46.166 -85.5 -59.499
c-11.333 -9.33301 -17 -16.666 -17 -21.999c0 -3.33301 2.83301 -9.16602 8.5 -17.499s8.5 -18.833 8.5 -31.5v-252c-22 6.66699 -49.167 12.667 -81.5 18s-62.166 8 -89.499 8s-49 -3.33301 -65 -10c58.667 63.333 106.167 131 142.5 203s54.5 148.667 54.5 230
c0 26 -3.66699 43 -11 51s-19.666 12 -36.999 12c-12 0 -20.333 -5.66699 -25 -17s-7 -24.666 -7 -39.999c0.666992 -12 1 -19.333 1 -22c0 -76 -11.833 -145.167 -35.5 -207.5s-45.667 -108.166 -66 -137.499s-41.666 -57.5 -63.999 -84.5s-33.5 -42.5 -33.5 -46.5
c0 -5.33301 5.66699 -8 17 -8c10 0 20.333 1.16699 31 3.5s27 3.5 49 3.5c38.667 0 77.5 -2.16699 116.5 -6.5s73.5 -11.166 103.5 -20.499z" />
    <glyph glyph-name="five" unicode="5" 
d="M110 441c4 27.333 5.99512 54.666 5.99512 81.999s-2 55 -6 83h347c20.667 0 32.334 1.33301 35.001 4s6.66699 12 12 28l24 79c3.33301 10 5 17.333 5 22c0 8.66699 -3 13 -9 13c-6.66699 0 -12.5 -5 -17.5 -15s-12.833 -17.167 -23.5 -21.5s-22 -6.5 -34 -6.5h-339
c0 22 -6 33 -18 33c-4.66699 0 -8.5 -2.5 -11.5 -7.5s-3.5 -10.833 -1.5 -17.5c3.33301 -19.333 5.66602 -44.166 6.99902 -74.499s2 -62.166 2 -95.499c0 -92 -1.83301 -150.833 -5.5 -176.5s-5.5 -39.167 -5.5 -40.5c0 -8 2.66699 -12 8 -12
c2.66699 0 6.83398 1.16699 12.501 3.5s15.667 7.16602 30 14.499s35.5 14.166 63.5 20.499s55.667 9.5 83 9.5c50.667 0 93.334 -10.833 128.001 -32.5s54.334 -47.667 59.001 -78s7 -50.833 7 -61.5c0 -53.333 -19.833 -97.5 -59.5 -132.5s-85.5 -52.5 -137.5 -52.5
c-30 0 -58 6.33301 -84 19s-49 32.334 -69 59.001c-4.66699 7.33301 -7 15.666 -7 24.999c0 12.667 4.16699 24.167 12.5 34.5s17.833 15.5 28.5 15.5c8 0 15.167 -3.33301 21.5 -10s11.5 -18 15.5 -34h8c7.33301 17.333 11 34 11 50c0 26.667 -10.667 47.834 -32 63.501
s-45.333 23.5 -72 23.5c-25.333 0 -44.166 -6.5 -56.499 -19.5s-21.166 -26.333 -26.499 -40s-8 -27.834 -8 -42.501c0 -45.333 25.167 -84.833 75.5 -118.5s110.166 -50.5 179.499 -50.5c100.667 0 178.334 25.833 233.001 77.5s82 112.5 82 182.5
c0 16.667 -0.5 28.334 -1.5 35.001s-6.66699 27.167 -17 61.5s-42.5 65.833 -96.5 94.5s-114.667 43 -182 43c-66 0 -124.667 -12.333 -176 -37z" />
    <glyph glyph-name="six" unicode="6" 
d="M307 441c46.667 0 84 -23 112 -69s42 -99.333 42 -160c0 -56.667 -13.167 -104.834 -39.5 -144.501s-64.5 -59.5 -114.5 -59.5c-47.333 0 -85.833 22.833 -115.5 68.5s-44.5 97.834 -44.5 156.501c0 54 13.5 100.833 40.5 140.5s66.833 62.167 119.5 67.5zM134 354
c-0.666992 2.66699 -1.00293 7.66895 -1.00293 15.002c0 62.667 16.833 133.667 50.5 213s82.834 119 147.501 119c24.667 0 44.334 -8.33301 59.001 -25s25.334 -36.334 32.001 -59.001s16.167 -37.834 28.5 -45.501s25.833 -11.5 40.5 -11.5c20 0 34 4 42 12s12 17 12 27
c0 27.333 -20 55 -60 83s-88.667 42 -146 42c-100 0 -181.333 -42.833 -244 -128.5s-94 -182.167 -94 -289.5c0 -91.333 25.167 -167.833 75.5 -229.5s124.5 -92.5 222.5 -92.5c88.667 0 158.5 25.833 209.5 77.5s76.5 111.834 76.5 180.501c0 62 -22 114.667 -66 158
s-106.667 65 -188 65c-41.333 0 -79.5 -10.333 -114.5 -31s-62.5 -47.334 -82.5 -80.001z" />
    <glyph glyph-name="seven" unicode="7" 
d="M472 606c-91.333 -114 -162.333 -217.334 -213 -310.001s-80.667 -159 -90 -199s-14 -61.333 -14 -64c0 -16.667 11.333 -25 34 -25h102c12.667 0 20 2 22 6s3 8.66699 3 14c-0.666992 8 -1 14.333 -1 19c0 90 13 171.5 39 244.5s66.333 158.333 121 256
s88 159.167 100 184.5c4 12.667 -0.333008 19 -13 19c-8.66699 0 -14.834 -3.66699 -18.501 -11s-7.5 -14.333 -11.5 -21s-10.667 -10 -20 -10h-339c-17.333 0 -30.833 0.666992 -40.5 2s-14.5 8.33301 -14.5 21c0 13.333 -3.33301 20 -10 20s-13.667 -9.33301 -21 -28
l-79 -181c-1.33301 -5.33301 -2 -9 -2 -11c0 -7.33301 2.66699 -11 8 -11c4.66699 0 9.83398 2.5 15.501 7.5s12.167 13.333 19.5 25s24 23.334 50 35.001s53.333 17.5 82 17.5h291z" />
    <glyph glyph-name="eight" unicode="8" 
d="M402 409c55.333 13.333 96 32.668 122 58.001s39 53.666 39 84.999c0 45.333 -23.833 86.666 -71.5 123.999s-103.834 56 -168.501 56c-78.667 0 -144 -20.333 -196 -61s-78 -88 -78 -142c0 -32.667 11.5 -63.5 34.5 -92.5s58.167 -53.833 105.5 -74.5
c-54 -5.33301 -97.667 -26.5 -131 -63.5s-50 -79.167 -50 -126.5c0 -52 22.333 -96.333 67 -133s111.667 -55 201 -55c92 0 169 24.333 231 73s93 103.334 93 164.001c0 42 -16.167 79.667 -48.5 113s-82.166 58.333 -149.499 75zM370 417.002
c-72 12 -125.667 32.833 -161 62.5s-53 62.5 -53 98.5c0 27.333 10.167 52.5 30.5 75.5s43.833 38 70.5 45s48 10.5 64 10.5c45.333 0 84 -15.667 116 -47s48 -67.333 48 -108c0 -29.333 -9.16699 -56 -27.5 -80s-47.5 -43 -87.5 -57zM220 354.002l158.001 -55.001
c37.333 -12 65.166 -29.333 83.499 -52s27.5 -48 27.5 -76c0 -42 -18.667 -79.667 -56 -113s-84.666 -50 -141.999 -50c-54.667 0 -97.834 19.333 -129.501 58s-47.5 83.667 -47.5 135c0 36.667 9 69.334 27 98.001s44.333 47 79 55z" />
    <glyph glyph-name="nine" unicode="9" 
d="M465 386c0 -98 -15.6689 -186 -47.002 -264s-77 -117 -137 -117c-9.33301 0 -23.666 2.16699 -42.999 6.5s-33.666 17.166 -42.999 38.499l-22 60c-6.66699 10 -15.167 17.833 -25.5 23.5s-21.166 8.5 -32.499 8.5c-15.333 0 -28.333 -4.16699 -39 -12.5
s-16 -19.5 -16 -33.5c0 -10.667 5.66699 -24.667 17 -42s36.166 -34.666 74.499 -51.999s77.166 -26 116.499 -26c98.667 0 177.667 41.833 237 125.5s89 179.167 89 286.5c0 96 -25.167 177.333 -75.5 244s-123.5 100 -219.5 100c-84.667 0 -152.5 -26.5 -203.5 -79.5
s-76.5 -114.5 -76.5 -184.5c0 -62.667 22.333 -115.667 67 -159s110.334 -65 197.001 -65c36 0 71.667 11.167 107 33.5s60.333 58.5 75 108.5zM290.998 276l8.00195 0.000976562c-48.667 0 -86.334 20.5 -113.001 61.5s-40 90.167 -40 147.5c0 58 14.167 108.5 42.5 151.5
s67.833 64.5 118.5 64.5c48 0 85.333 -19.833 112 -59.5s40 -86.834 40 -141.501c0 -60 -14.833 -112.333 -44.5 -157s-70.834 -67 -123.501 -67z" />
    <glyph glyph-name="colon" unicode=":" horiz-adv-x="299" 
d="M150 402c-20.667 0 -37 -6.66699 -49 -20s-18 -29 -18 -47c0 -18.667 6.16699 -34.5 18.5 -47.5s30.833 -19.5 55.5 -19.5c19.333 0 34.833 7 46.5 21s17.5 30.333 17.5 49c0 18 -5.83301 33.167 -17.5 45.5s-29.5 18.5 -53.5 18.5zM150 118
c-20.667 0 -37 -6.66699 -49 -20s-18 -29 -18 -47c0 -18.667 6.16699 -34.5 18.5 -47.5s30.833 -19.5 55.5 -19.5c19.333 0 34.833 7 46.5 21s17.5 30.333 17.5 49c0 18 -5.83301 33.167 -17.5 45.5s-29.5 18.5 -53.5 18.5z" />
    <glyph glyph-name="semicolon" unicode=";" horiz-adv-x="299" 
d="M150 402c-20.667 0 -37 -6.66699 -49 -20s-18 -29 -18 -47c0 -18.667 6.16699 -34.5 18.5 -47.5s30.833 -19.5 55.5 -19.5c19.333 0 34.833 7 46.5 21s17.5 30.333 17.5 49c0 18 -5.83301 33.167 -17.5 45.5s-29.5 18.5 -53.5 18.5zM181 -31
c-5.33301 -22.667 -11.667 -40.834 -19 -54.501s-20 -28.167 -38 -43.5s-27 -26.333 -27 -33c0 -4.66699 3.66699 -7 11 -7c12.667 0 28.167 7.5 46.5 22.5s35.166 39 50.499 72s23 64.5 23 94.5c0 26.667 -6.33301 48.834 -19 66.501s-32.334 28.167 -59.001 31.5
c-25.333 0 -45.5 -7.83301 -60.5 -23.5s-22.5 -33.834 -22.5 -54.501c0 -15.333 4.33301 -28.166 13 -38.499s21.334 -15.5 38.001 -15.5c9.33301 0 20 2 32 6c4.66699 2.66699 10.334 4 17.001 4c10.667 0 16 -5.33301 16 -16z" />
    <glyph glyph-name="less" unicode="&#x3c;" horiz-adv-x="630" 
d="M110 307l488 236v79l-559 -276v-78l559 -284v79z" />
    <glyph glyph-name="equal" unicode="=" horiz-adv-x="630" 
d="M583 433h-544v-63h544v63zM39 244v-63h544v63h-544z" />
    <glyph glyph-name="greater" unicode="&#x3e;" horiz-adv-x="630" 
d="M535 307l-488 -236v-79l559 276v71l-559 283v-79z" />
    <glyph glyph-name="question" unicode="?" 
d="M276 118c-20.667 0 -37 -6.66699 -49 -20s-18 -29 -18 -47c0 -18.667 6.16699 -34.5 18.5 -47.5s30.833 -19.5 55.5 -19.5c19.333 0 34.833 7 46.5 21s17.5 30.333 17.5 49c0 18 -5.83301 33.167 -17.5 45.5s-29.5 18.5 -53.5 18.5zM252 181
c-2 -11.333 -1.33203 -19.999 2.00098 -25.999s8 -9 14 -9c10.667 0 16 8.66699 16 26c0 4 -0.333008 7 -1 9v71c6 36.667 36.167 66.5 90.5 89.5s91.666 40.667 111.999 53s38.166 31.666 53.499 57.999s23 54.166 23 83.499c0 52.667 -22 98.5 -66 137.5
s-104.333 58.5 -181 58.5c-88 0 -155.833 -21.333 -203.5 -64s-71.5 -90 -71.5 -142c0 -31.333 9 -57.333 27 -78s43 -31 75 -31c18.667 0 35.334 7 50.001 21s22 30 22 48c0 13.333 -4.5 25.5 -13.5 36.5s-23.5 20.5 -43.5 28.5c1.33301 -3.33301 2 -6.16602 2 -8.49902
v-6.5c0 -18 -9 -27 -27 -27c-21.333 0 -34 11.333 -38 34c-4 33.333 12.5 68 49.5 104s78.5 54 124.5 54c46.667 0 85 -14 115 -42s45 -66.667 45 -116c0 -20 -3.66699 -43.667 -11 -71c-4 -11.333 -32.5 -42.333 -85.5 -93s-79.5 -93 -79.5 -127v-71z" />
    <glyph glyph-name="at" unicode="@" horiz-adv-x="819" 
d="M559 559l-16.002 -39.0049c-12.667 20.667 -28.334 35.834 -47.001 45.501s-40 14.5 -64 14.5c-44 0 -88.333 -17 -133 -51s-75.834 -75 -93.501 -123s-26.5 -90.333 -26.5 -127c0 -45.333 12.333 -81 37 -107s55.667 -39 93 -39c46 0 90 18.667 132 56
c8 -19.333 19.333 -33.333 34 -42s32.334 -13 53.001 -13c82.667 0 149 28 199 84s75 122 75 198c0 86 -32.167 160.167 -96.5 222.5s-157.833 93.5 -280.5 93.5c-125.333 0 -221.833 -36.667 -289.5 -110s-101.5 -160.666 -101.5 -261.999
c0 -100.667 32.333 -188.5 97 -263.5s152.334 -112.5 263.001 -112.5c76.667 0 140.667 10 192 30s93.333 45.333 126 76s60.334 63.667 83.001 99h-39c-48 -63.333 -98.833 -106.666 -152.5 -129.999s-115.834 -35 -186.501 -35c-96.667 0 -174.167 35.167 -232.5 105.5
s-87.5 151.833 -87.5 244.5c0 88.667 28.5 164 85.5 226s140.5 93 250.5 93c106 0 187.833 -27.667 245.5 -83s86.5 -121 86.5 -197c0 -53.333 -15.167 -102.166 -45.5 -146.499s-62.666 -72.166 -96.999 -83.499s-57.166 -17 -68.499 -17c-20 0 -30 9.66699 -30 29
c0 8 1.33301 16.333 4 25l126 339h-95zM527.998 487.995l-95 -243.999c-8 -24 -23 -43.167 -45 -57.5s-46.333 -21.5 -73 -21.5c-18 0 -31.167 6.66699 -39.5 20s-12.5 32 -12.5 56c0 59.333 20.5 124.666 61.5 195.999s83.833 107 128.5 107
c5.33301 0 9.33301 -0.333008 12 -1c16 0 30.5 -5.16699 43.5 -15.5s19.5 -23.5 19.5 -39.5z" />
    <glyph glyph-name="A" unicode="A" horiz-adv-x="709" 
d="M260 638c7.33301 -2.66699 14.6689 -5.50293 22.002 -8.50293s11 -8.16699 11 -15.5s-3.33301 -17.666 -10 -30.999l-173 -449c-14.667 -36.667 -33.834 -63 -57.501 -79s-49.167 -24 -76.5 -24c-21.333 0 -32 -4.66699 -32 -14c0 -11.333 10.667 -17 32 -17h252
c14 0 21 4.66699 21 14c0 11.333 -7 17 -21 17c-28 0 -49.667 3.83301 -65 11.5s-23 22.167 -23 43.5c0 14 3.33301 30 10 48l47 126h244l55 -166c2 -6 3 -11.333 3 -16c0 -16 -9.5 -27.833 -28.5 -35.5s-41.833 -11.5 -68.5 -11.5c-24 0 -36 -4.66699 -36 -14
c0 -5.33301 3.83301 -9.5 11.5 -12.5s15.834 -4.5 24.501 -4.5h338c20 0 30 5 30 15c0 10.667 -10 16 -30 16c-28.667 0 -54.834 7.83301 -78.501 23.5s-39.5 36.834 -47.5 63.501l-212 583c-2 10.667 -4.5 18.834 -7.5 24.501s-7.83301 8.5 -14.5 8.5
c-5.33301 0 -11.333 -3.33301 -18 -10c-10 -17.333 -25.833 -30.833 -47.5 -40.5s-39.834 -14.5 -54.501 -14.5c-14.667 -2.66699 -22 -7.66699 -22 -15c0 -4.66699 2.83301 -8.5 8.5 -11.5s10.167 -4.5 13.5 -4.5zM433.003 282.997h-228l110 315z" />
    <glyph glyph-name="B" unicode="B" horiz-adv-x="732" 
d="M150 567l-0.00292969 -448.999c0 -38.667 -11.167 -62.834 -33.5 -72.501s-53.166 -14.5 -92.499 -14.5c-20 0 -30 -4.33301 -30 -13c0 -4.66699 2.83301 -8.83398 8.5 -12.501s12.834 -5.5 21.501 -5.5h448c81.333 0 143.333 18.5 186 55.5s64 81.833 64 134.5
c0 48.667 -17.667 92 -53 130s-82.333 60 -141 66c47.333 6.66699 84.833 24.834 112.5 54.501s41.5 63.5 41.5 101.5c0 45.333 -21.167 84.5 -63.5 117.5s-104.166 49.5 -185.499 49.5h-402c-21.333 0 -32 -5 -32 -15c0 -11.333 10.667 -17 32 -17
c34.667 0 63.167 -7.66699 85.5 -23s33.5 -44.333 33.5 -87zM440.997 402.001h-181v204c0 27.333 10.833 46 32.5 56s44.834 15 69.501 15h16.5c6.33301 0 13.166 0.333008 20.499 1c40.667 0 76.167 -5.66699 106.5 -17s47.5 -29.666 51.5 -54.999s6 -46.333 6 -63
c0 -42.667 -10 -76.834 -30 -102.501s-50.667 -38.5 -92 -38.5zM424.997 370.001c52 0 93 -16.667 123 -50s45 -73 45 -119c0 -48 -17.167 -89.5 -51.5 -124.5s-83.5 -52.5 -147.5 -52.5c-36.667 0 -68.167 5.33301 -94.5 16s-39.5 36.667 -39.5 78v252h165z" />
    <glyph glyph-name="C" unicode="C" horiz-adv-x="732" 
d="M575 740c-4 -10 -9.16406 -16.833 -15.4971 -20.5s-14.5 -5.5 -24.5 -5.5c-6 0 -15 0.5 -27 1.5s-18.667 1.5 -20 1.5c-38 6.66699 -75 10 -111 10c-111.333 0 -197 -34.333 -257 -103s-90 -151.667 -90 -249c0 -103.333 32.667 -194.333 98 -273s154 -118 266 -118
c69.333 0 133.666 13.333 192.999 40s100 73.667 122 141c2 6.66699 1.33301 12.667 -2 18s-7.66602 8 -12.999 8c-8.66699 0 -14.334 -6 -17.001 -18c-18 -48.667 -51.5 -87.667 -100.5 -117s-101.5 -44 -157.5 -44c-27.333 0 -62 6.33301 -104 19
s-78.5 49.167 -109.5 109.5s-46.5 129.833 -46.5 208.5c0 93.333 21.667 175.333 65 246s102.666 106 177.999 106c58.667 0 112.167 -17.833 160.5 -53.5s81.166 -75.5 98.499 -119.5c8 -12.667 14.667 -19 20 -19c4.66699 0 7 4.33301 7 13c0 4.66699 -1 9 -3 13l-79 205
c-4 16 -9 24 -15 24c-6.66699 0 -12 -8 -16 -24z" />
    <glyph glyph-name="D" unicode="D" horiz-adv-x="835" 
d="M157 575v-402.001c0 -59.333 -11.5 -97.833 -34.5 -115.5s-53.5 -26.5 -91.5 -26.5c-21.333 0 -32 -4.66699 -32 -14c0 -11.333 10.667 -17 32 -17h434c111.333 0 198 34.667 260 104s93 152 93 248s-31.667 179.5 -95 250.5s-152 106.5 -266 106.5h-426
c-18 0 -27 -5.33301 -27 -16s6.66699 -16 20 -16c52 0 87.167 -5.16699 105.5 -15.5s27.5 -39.166 27.5 -86.499zM433 23.999c-68 0 -112.5 7.83301 -133.5 23.5s-31.5 44.5 -31.5 86.5v433c4 38.667 17.5 68 40.5 88s54.167 30 93.5 30c96.667 0 170.167 -31.5 220.5 -94.5
s75.5 -139.167 75.5 -228.5c0 -90 -24 -168.833 -72 -236.5s-112.333 -101.5 -193 -101.5z" />
    <glyph glyph-name="E" unicode="E" horiz-adv-x="709" 
d="M150 598l-0.00195312 -463.999c0 -33.333 -11.333 -58.833 -34 -76.5s-51 -26.5 -85 -26.5c-17.333 0 -26 -5.66699 -26 -17c0 -9.33301 8.66699 -14 26 -14h363c51.333 0 94.833 -3 130.5 -9s55.167 -21.333 58.5 -46c0 -16 3.33301 -24 10 -24c4 0 8 2.33301 12 7
s7 10.334 9 17.001l110 252c2.66699 7.33301 4 13.666 4 18.999c0 8 -3 12 -9 12c-9.33301 0 -22.666 -17.667 -39.999 -53s-52.333 -69 -105 -101s-105.334 -48 -158.001 -48c-43.333 0 -78.833 11 -106.5 33s-41.5 54.667 -41.5 98v213h134
c38 0 67.167 -12.167 87.5 -36.5s30.5 -56.833 30.5 -97.5c0 -19.333 5.33301 -29 16 -29c10 0 15 9.66699 15 29v268c0 22 -5 33 -15 33c-10.667 0 -16 -8.33301 -16 -25c-4 -41.333 -15.333 -70 -34 -86s-46.667 -24 -84 -24h-134v196c0 33.333 9.5 56.166 28.5 68.499
s46.167 18.5 81.5 18.5c47.333 0 96.666 -12.333 147.999 -37s88 -52 110 -82s36 -45 42 -45c2.66699 0 4 2.33301 4 7c0 6.66699 -1.66699 14.334 -5 23.001l-71 181c-8 18.667 -15 28 -21 28c-5.33301 0 -10.666 -5.33301 -15.999 -16s-15.666 -17.834 -30.999 -21.501
s-39.666 -5.5 -72.999 -5.5h-441c-16 0 -24 -6.66699 -24 -20s8 -20 24 -20c40 0 71 -4.33301 93 -13s33 -30.667 33 -66z" />
    <glyph glyph-name="F" unicode="F" 
d="M134 559l-0.00195312 -441.001c0 -34.667 -10 -57.834 -30 -69.501s-44.333 -17.5 -73 -17.5c-25.333 0 -38 -4.33301 -38 -13c0 -6 4 -10.5 12 -13.5s16.667 -4.5 26 -4.5h339c22 0 33 4.33301 33 13c0 4.66699 -3.16699 8.83398 -9.5 12.501s-14.166 5.5 -23.499 5.5
c-32.667 0 -60.5 7 -83.5 21s-34.5 36 -34.5 66v244h134c35.333 0 61.166 -11.167 77.499 -33.5s24.5 -47.833 24.5 -76.5c0 -23.333 5.33301 -35 16 -35s16 11.667 16 35v252c0 21.333 -5 32 -15 32c-11.333 0 -17 -10.667 -17 -32c0 -32 -7.83301 -58.333 -23.5 -79
s-41.834 -31 -78.501 -31h-134v181c0 28 6.5 52 19.5 72s40.5 30 82.5 30c64.667 0 122.834 -16.5 174.501 -49.5s85 -59.5 100 -79.5s25.833 -30 32.5 -30c4.66699 0 7 2.66699 7 8c0 4.66699 -2.33301 10.334 -7 17.001l-70 166c-8.66699 16.667 -15.5 28.667 -20.5 36
s-9.16699 11 -12.5 11s-11 -8 -23 -24c-3.33301 -6.66699 -11.666 -12.167 -24.999 -16.5s-28.333 -6.5 -45 -6.5h-449c-9.33301 0 -16.666 -2 -21.999 -6s-8 -8.33301 -8 -13c0 -9.33301 7 -14 21 -14c4 0 7 0.333008 9 1c41.333 0 71.333 -8.16699 90 -24.5
s28 -47.5 28 -93.5z" />
    <glyph glyph-name="G" unicode="G" horiz-adv-x="835" 
d="M614 724c-2.66699 8 -6.49805 15.5049 -11.498 22.5049s-9.5 10.5 -13.5 10.5c-6.66699 0 -11.334 -8.33301 -14.001 -25c-4 -10.667 -10 -17.667 -18 -21s-18 -5 -30 -5c-10 0 -26.167 1.33301 -48.5 4s-49.5 4 -81.5 4c-23.333 0 -46.666 -1 -69.999 -3
s-59.833 -9.5 -109.5 -22.5s-96.667 -54 -141 -123s-66.5 -145.5 -66.5 -229.5c0 -98.667 30.833 -183.334 92.5 -254.001s150.834 -106 267.501 -106c54 0 110.5 7.5 169.5 22.5s100.167 22.5 123.5 22.5c7.33301 0 15.666 -0.333008 24.999 -1
s18.833 -1.83398 28.5 -3.50098s15.167 -2.5 16.5 -2.5c8 0 12 2.66699 12 8c0 2.66699 -1.16699 6.83398 -3.5 12.501s-5.5 12.5 -9.5 20.5s-6.66699 21.667 -8 41s-2 41.666 -2 66.999c0 15.333 0.166992 30.166 0.5 44.499s0.833008 26.5 1.5 36.5
c0 26 9.83301 45.667 29.5 59s44.167 20 73.5 20c17.333 0 26 4.66699 26 14c0 4 -2.5 7.83301 -7.5 11.5s-11.167 5.5 -18.5 5.5h-355c-13.333 0 -20 -5.66699 -20 -17c0 -9.33301 6.66699 -14 20 -14c40 0 73.667 -6.83301 101 -20.5s41 -38.5 41 -74.5
c0 -94.667 -20.167 -155 -60.5 -181s-98.833 -39 -175.5 -39c-74 0 -131.667 33 -173 99s-62 144.667 -62 236c0 93.333 21.167 173.666 63.5 240.999s102.166 101 179.499 101c53.333 0 108.166 -14.833 164.499 -44.5s91.833 -59.334 106.5 -89.001s26.667 -44.5 36 -44.5
c6 0 9 4.33301 9 13c0 3.33301 -0.333008 6 -1 8z" />
    <glyph glyph-name="H" unicode="H" horiz-adv-x="890" 
d="M157 575l0.00195312 -425c0 -44 -10.667 -74.833 -32 -92.5s-50 -26.5 -86 -26.5c-23.333 0 -35 -5.33301 -35 -16c0 -10 11.667 -15 35 -15h347c20 -0 30 4.33301 30 13c0 4.66699 -2.83301 8.83398 -8.5 12.501s-12.834 5.5 -21.501 5.5
c-39.333 0 -68.833 6.5 -88.5 19.5s-29.5 46.167 -29.5 99.5v220h362v-228c0 -46.667 -7.83301 -75.667 -23.5 -87s-41.334 -18.833 -77.001 -22.5s-53.5 -9.83398 -53.5 -18.501c0 -4 3.33301 -7.33301 10 -10s15.334 -4 26.001 -4h346c20 -0 30 4.33301 30 13
c0 4.66699 -2.83301 8.83398 -8.5 12.501s-12.834 5.5 -21.501 5.5c-40.667 0 -70.5 9.16699 -89.5 27.5s-28.5 46.166 -28.5 83.499v441c0 38 11.5 63.167 34.5 75.5s50.833 18.5 83.5 18.5c22 0 33 5 33 15c0 11.333 -11 17 -33 17h-354c-19.333 0 -29 -5.33301 -29 -16
s9.66699 -16 29 -16c33.333 0 62.666 -8.5 87.999 -25.5s38 -45.167 38 -84.5v-165h-362v204c4 29.333 15.5 48.5 34.5 57.5s46.833 13.5 83.5 13.5c22 0 33 5.33301 33 16s-8.33301 16 -25 16h-355c-22 0 -33 -4.33301 -33 -13c0 -4.66699 3.33301 -9 10 -13
s14.334 -6 23.001 -6c36 0 64.833 -6.16699 86.5 -18.5s32.5 -35.5 32.5 -69.5c-0.666992 -6 -1 -10.667 -1 -14z" />
    <glyph glyph-name="I" unicode="I" horiz-adv-x="441" 
d="M157 598l0.00292969 -455.998c0 -48.667 -11.833 -79.334 -35.5 -92.001s-53.834 -19 -90.501 -19c-11.333 0 -17 -5.33301 -17 -16c0 -10 5.66699 -15 17 -15h371c16 0 24 4.33301 24 13c0 4 -2.33301 8 -7 12s-10.334 6 -17.001 6
c-40.667 0 -71.834 6.16699 -93.501 18.5s-32.5 43.166 -32.5 92.499v456c0 26.667 10.5 46.5 31.5 59.5s49.833 19.5 86.5 19.5c19.333 0 29 5.33301 29 16s-9.66699 16 -29 16h-347c-8 0 -15 -2 -21 -6s-9 -8 -9 -12c0 -9.33301 10 -14 30 -14
c32.667 0 59.167 -4.33301 79.5 -13s30.5 -30.667 30.5 -66z" />
    <glyph glyph-name="J" unicode="J" 
d="M378 598l-0.00390625 -441c0 -50.667 -14.833 -88.334 -44.5 -113.001s-66.5 -37 -110.5 -37c-44.667 0 -85.167 11 -121.5 33s-54.5 48 -54.5 78c0 14 9.16699 26.333 27.5 37s27.5 27.334 27.5 50.001c0 16.667 -5.16699 29.5 -15.5 38.5s-23.166 13.5 -38.499 13.5
c-16 0 -30.167 -5 -42.5 -15s-19.166 -21.167 -20.499 -33.5s-2 -21.166 -2 -26.499v-12c0 -64 22.333 -111 67 -141s101.334 -45 170.001 -45c70 0 133.5 15 190.5 45s85.5 91.333 85.5 184v378c4 47.333 22.333 74 55 80c26.667 2 47.667 4 63 6c18 0 27 5.66699 27 17
c0 10 -9 15 -27 15h-354c-20 0 -30 -4.66699 -30 -14c0 -4.66699 2.83301 -8.83398 8.5 -12.501s12.834 -5.5 21.501 -5.5c35.333 0 62.833 -5 82.5 -15s31.5 -31.333 35.5 -64z" />
    <glyph glyph-name="K" unicode="K" horiz-adv-x="780" 
d="M276 323l0.00292969 259.999c3.33301 36.667 14.666 61.5 33.999 74.5s50 19.5 92 19.5c8 0 15 2 21 6s9 8 9 12c0 9.33301 -10 14 -30 14h-363c-15.333 0 -23 -5.33301 -23 -16s7.66699 -16 23 -16c26.667 -4 53.667 -7.66699 81 -11c30 -12.667 45 -45.667 45 -99v-449
c-3.33301 -38 -16.333 -62 -39 -72s-51.667 -15 -87 -15c-17.333 0 -26 -5.66699 -26 -17c0 -9.33301 8.66699 -14 26 -14h363c17.333 0 26 4.66699 26 14c0 4 -2.5 7.83301 -7.5 11.5s-11.167 5.5 -18.5 5.5c-30 0 -58.5 5.83301 -85.5 17.5s-40.5 34.834 -40.5 69.501v173
l102 87l197 -284c9.33301 -14 14 -26 14 -36c0 -11.333 -5.83301 -18.666 -17.5 -21.999s-27.834 -5 -48.501 -5h-19c-18 -2.66699 -27 -8.33398 -27 -17.001c0 -9.33301 9 -14 27 -14h331c21.333 0 32 5.66699 32 17c0 9.33301 -10.667 14 -32 14
c-22.667 0 -43.667 5.16699 -63 15.5s-35.333 23.833 -48 40.5l-259 370c51.333 51.333 107.166 99 167.499 143s111.833 69.667 154.5 77c16 0 24 5.33301 24 16s-8 16 -24 16h-299c-14 -2.66699 -21 -7.66699 -21 -15c0 -4.66699 2.33301 -8.66699 7 -12
s9.33398 -5 14.001 -5c30 0 51.333 -3.83301 64 -11.5s19 -18.167 19 -31.5c0 -21.333 -9.33301 -42.666 -28 -63.999s-47.334 -51.333 -86.001 -90c-2 16.667 -5.33301 28.834 -10 36.501s-9.66699 11.5 -15 11.5c-10 0 -15 -8 -15 -24
c0 -24.667 -15.5 -55.334 -46.5 -92.001s-62.5 -66.334 -94.5 -89.001z" />
    <glyph glyph-name="L" unicode="L" horiz-adv-x="661" 
d="M157 583l0.00292969 -433c0 -36 -11.333 -65 -34 -87s-49.334 -33 -80.001 -33c-5.33301 0.666992 -9.33301 1 -12 1c-15.333 0 -23 -5.33301 -23 -16c0 -10 7.66699 -15 23 -15h371c41.333 0 75.666 -3 102.999 -9s42.5 -18.667 45.5 -38s7.5 -29 13.5 -29c4 0 8 3 12 9
s6.33301 10 7 12l118 252c4.66699 13.333 1.66699 20 -9 20c-8.66699 0 -16.334 -6.66699 -23.001 -20c-36 -56 -78.667 -99.667 -128 -131s-96 -47 -140 -47c-36.667 0 -66.667 11.333 -90 34s-35 55 -35 97v441c0 36 14 58.333 42 67s56 15 84 19
c19.333 4 29 10.333 29 19s-9.66699 13 -29 13h-355c-21.333 0 -32 -5 -32 -15c0 -11.333 10.667 -17 32 -17c44.667 0 74.167 -7.83301 88.5 -23.5s21.5 -39.167 21.5 -70.5z" />
    <glyph glyph-name="M" unicode="M" horiz-adv-x="945" 
d="M173 646l228.999 -544.002c4 -12.667 8.33301 -19 13 -19c2 0 5.16699 1.66699 9.5 5s10.833 12.166 19.5 26.499s19.5 27.666 32.5 39.999s24.833 21.166 35.5 26.499c17.333 10.667 26 18.334 26 23.001c0 2.66699 -7.66699 5.33398 -23 8.00098
s-24.333 5.33398 -27 8.00098l205 441v-511c0 -47.333 -10.667 -79 -32 -95s-52.666 -24 -93.999 -24c-20.667 0 -31 -4.66699 -31 -14c0 -4.66699 2.16699 -8.66699 6.5 -12s9.83301 -5 16.5 -5h378c13.333 0 20 4.33301 20 13c0 4.66699 -2.5 8.83398 -7.5 12.501
s-11.833 5.5 -20.5 5.5h-24c-30.667 0 -55.334 7.33301 -74.001 22s-28 47 -28 97v448c0 28 14 48.167 42 60.5s56 18.5 84 18.5c18 0 27 5 27 15c0 4 -2.5 7.83301 -7.5 11.5s-11.5 5.5 -19.5 5.5h-244l-213 -457l-204 457h-237c-10.667 0 -18.667 -1.66699 -24 -5
s-8 -7.66602 -8 -12.999c0 -10 7.66699 -15 23 -15c4 0 7 0.333008 9 1c41.333 0 70.166 -5.66699 86.499 -17s24.5 -34.333 24.5 -69v-426c0 -36.667 -10.833 -68.167 -32.5 -94.5s-50.167 -39.5 -85.5 -39.5c-18 0 -27 -5.66699 -27 -17c0 -9.33301 9 -14 27 -14h259
c18.667 0 28 4 28 12c0 4.66699 -2.66699 9 -8 13s-12 6 -20 6c-47.333 0 -75.666 9.83301 -84.999 29.5s-17.666 54.5 -24.999 104.5v481z" />
    <glyph glyph-name="N" unicode="N" horiz-adv-x="764" 
d="M173 630l410.001 -622c10.667 -20.667 19.334 -31 26.001 -31c3.33301 0 8.33301 3.16699 15 9.5l20 19.5c6.66699 6.66699 20.167 15.167 40.5 25.5s36.166 15.5 47.499 15.5c12 2.66699 18 6.66699 18 12c0 8 -8.66699 12 -26 12c-8 0 -14.333 1.66699 -19 5
s-19.334 17.333 -44.001 42v433c0 34.667 7.16699 64.334 21.5 89.001s44.166 37 89.499 37c6.66699 0 12.834 2.16699 18.501 6.5s8.5 8.83301 8.5 13.5c0 8 -9 12 -27 12h-252c-22 0 -33 -5 -33 -15c0 -11.333 11 -17 33 -17c32.667 0 59.167 -7.83301 79.5 -23.5
s30.5 -49.834 30.5 -102.501v-409l-339 527c-1.33301 4 -1.33301 9 0 15s3 12 5 18c0 4.66699 -6.66699 7 -20 7h-237c-8 0 -15 -2 -21 -6s-9 -8 -9 -12c0 -9.33301 10 -14 30 -14c26.667 0 50.5 -3.66699 71.5 -11s31.5 -24.666 31.5 -51.999v-449
c0 -41.333 -14.167 -74 -42.5 -98s-53.5 -36 -75.5 -36c-16 0 -24 -5.33301 -24 -16c0 -10 8 -15 24 -15h267c18.667 2.66699 28 8 28 16c0 3.33301 -2.83301 6.66602 -8.5 9.99902s-12.167 5 -19.5 5c-38.667 0 -68 10 -88 30s-30 54.667 -30 104v465z" />
    <glyph glyph-name="O" unicode="O" horiz-adv-x="780" 
d="M386 701c78.667 0 140.167 -34.667 184.5 -104s66.5 -151.333 66.5 -246c0 -93.333 -21.833 -173.833 -65.5 -241.5s-105.5 -101.5 -185.5 -101.5c-78 0 -138.833 33.667 -182.5 101s-65.5 147 -65.5 239c0 94.667 22.167 177.167 66.5 247.5s104.833 105.5 181.5 105.5z
M378 732c-111.333 0 -198.333 -37.333 -261 -112s-94 -162.667 -94 -264c0 -100.667 30.5 -187.834 91.5 -261.501s146.167 -110.5 255.5 -110.5c122 0 217.167 37.333 285.5 112s102.5 163.334 102.5 266.001c0 101.333 -33.167 188.333 -99.5 261s-159.833 109 -280.5 109
z" />
    <glyph glyph-name="P" unicode="P" horiz-adv-x="661" 
d="M142 606l0.00195312 -480c0 -25.333 -10.333 -47.666 -31 -66.999s-45.334 -29 -74.001 -29c-6 0.666992 -10.333 1 -13 1c-18 0 -27 -5.66699 -27 -17c0 -9.33301 9 -14 27 -14h354c17.333 0 26 4.66699 26 14c0 4 -2.5 7.83301 -7.5 11.5s-11.167 5.5 -18.5 5.5
c-26.667 0 -53 7 -79 21s-39 38.667 -39 74v228h102c106.667 0 187.5 17.667 242.5 53s82.5 77.666 82.5 126.999c0 46 -23.333 86.667 -70 122s-108 53 -184 53h-409c-18 0 -27 -5.66699 -27 -17c0 -10 9 -15 27 -15h19c29.333 0 53.166 -4.33301 71.499 -13
s27.5 -28 27.5 -58zM409.002 386h-148.999v228c0 26 8.66699 43 26 51s41.333 12 72 12h28c59.333 0 104.666 -14.167 135.999 -42.5s47 -62.5 47 -102.5c0 -38.667 -14.333 -72.667 -43 -102s-67.667 -44 -117 -44z" />
    <glyph glyph-name="Q" unicode="Q" horiz-adv-x="780" 
d="M409 732c-115.333 0 -208 -39.1689 -278 -117.502s-105 -168.833 -105 -271.5c0 -92 29.667 -172.667 89 -242s147 -111 263 -125c-38.667 -11.333 -69.834 -26.666 -93.501 -45.999s-35.5 -42 -35.5 -68c0 -5.33301 1.83301 -14.5 5.5 -27.5s10.667 -23.667 21 -32
s22.5 -12.5 36.5 -12.5c16.667 0 31.667 5.83301 45 17.5s20 25.834 20 42.501s-5.66699 30.667 -17 42s-17 20.333 -17 27c0 7.33301 4.5 13.166 13.5 17.499s19.5 6.5 31.5 6.5c11.333 0 21 -2 29 -6c13.333 -8.66699 43 -43.5 89 -104.5s80.667 -93.167 104 -96.5
s37.333 -5.16602 42 -5.49902s9.33398 -0.5 14.001 -0.5c56 0 104.667 26 146 78s62 103 62 153c0 13.333 -3.33301 20 -10 20c-9.33301 0 -16.333 -9.33301 -21 -28c-7.33301 -38 -23.666 -66.667 -48.999 -86s-55 -29 -89 -29c-39.333 0 -80.5 14.167 -123.5 42.5
s-76 47.833 -99 58.5s-49.833 18 -80.5 22c122 16 215.167 61.5 279.5 136.5s96.5 160.833 96.5 257.5c0 101.333 -33.333 189.5 -100 264.5s-156.334 112.5 -269.001 112.5zM409 700.998c74.667 0 133.332 -34.5 175.999 -103.5s64 -150.167 64 -243.5
c0 -94.667 -22 -176 -66 -244s-107 -102 -189 -102c-74 0 -132 34 -174 102s-63 148.667 -63 242c0 95.333 21.833 177.333 65.5 246s105.834 103 186.501 103z" />
    <glyph glyph-name="R" unicode="R" horiz-adv-x="780" 
d="M165 583l-0.000976562 -441.002c0 -42 -9.66699 -71 -29 -87s-51.666 -24 -96.999 -24c-17.333 0 -26 -4.66699 -26 -14c0 -4 2.5 -7.83301 7.5 -11.5s11.167 -5.5 18.5 -5.5h363c15.333 0 23 5 23 15c0 10.667 -7.66699 16 -23 16c-28.667 0 -55.667 6.83301 -81 20.5
s-38 41.167 -38 82.5v212h111l173 -307c10 -14.667 19 -24.834 27 -30.501s22.667 -8.5 44 -8.5h189c20 0 30 4.33301 30 13c0 4.66699 -2.83301 8.83398 -8.5 12.501s-12.834 5.5 -21.501 5.5c-33.333 0 -64.333 5.33301 -93 16s-50.334 29 -65.001 55l-149 252
c61.333 0 111.5 17.5 150.5 52.5s58.5 75.5 58.5 121.5c0 50 -24.167 92.667 -72.5 128s-120.166 53 -215.499 53h-386c-10.667 0 -19.167 -2 -25.5 -6s-9.5 -8.33301 -9.5 -13c0 -9.33301 8.33301 -14 25 -14c4 0 7.33301 0.333008 10 1
c30.667 0 56.834 -4.66699 78.501 -14s32.5 -31.666 32.5 -66.999c-0.666992 -5.33301 -1 -9.66602 -1 -12.999zM282.999 369.998l-0.00195312 235.999c0 29.333 10.333 47.833 31 55.5s42 12.834 64 15.501c71.333 0 124 -15.5 158 -46.5s51 -68.167 51 -111.5
c0 -32 -8 -59.5 -24 -82.5s-35.667 -34.5 -59 -34.5c6 19.333 9 33.333 9 42c0 11.333 -3 17 -9 17c-7.33301 0 -13.666 -10.5 -18.999 -31.5s-25.166 -36.167 -59.499 -45.5s-81.833 -14 -142.5 -14z" />
    <glyph glyph-name="S" unicode="S" horiz-adv-x="661" 
d="M488 740c-2.66699 -18 -14.666 -27 -35.999 -27c-6 0 -24.667 3.16699 -56 9.5s-53 9.5 -65 9.5c-78 0 -143.667 -21.833 -197 -65.5s-80 -92.834 -80 -147.501c0 -37.333 14.167 -71.333 42.5 -102s81.666 -57.667 159.999 -81s133.833 -40.833 166.5 -52.5
s61.334 -28 86.001 -49s37 -47.833 37 -80.5c0 -8.66699 -2.5 -26.167 -7.5 -52.5s-22.833 -49 -53.5 -68s-67.667 -28.5 -111 -28.5c-28 0 -61.5 5.33301 -100.5 16s-74.667 30.167 -107 58.5s-60 58.333 -83 90s-38.167 47.5 -45.5 47.5c-6 0 -9 -5 -9 -15
c0 -2 0.666992 -6.33301 2 -13l95 -220l12 -23c4 -7.33301 7.33301 -11 10 -11c4.66699 0 9.33398 8 14.001 24s12 26 22 30s22.333 6 37 6c13.333 0 41 -3.16699 83 -9.5s69.333 -9.5 82 -9.5c79.333 0 144.666 22.333 195.999 67s77 96.667 77 156
c0 51.333 -21.167 97.5 -63.5 138.5s-105.833 69.833 -190.5 86.5s-145.834 39.334 -183.501 68.001s-56.5 59.667 -56.5 93c0 30.667 14.333 57.667 43 81s61.667 35 99 35c58.667 0 113 -14 163 -42s83.167 -59.333 99.5 -94s29.5 -52 39.5 -52c4.66699 0 7 3.66699 7 11
l-2 11l-86 205c-8 20 -15.667 30 -23 30s-13 -10 -17 -30z" />
    <glyph glyph-name="T" unicode="T" horiz-adv-x="661" 
d="M276 575l0.000976562 -440.999c0 -32 -11.833 -57.167 -35.5 -75.5s-56.5 -27.5 -98.5 -27.5c-16 0 -24 -5.33301 -24 -16c0 -10 8 -15 24 -15h386c13.333 0 20 4.66699 20 14c0 11.333 -6.66699 17 -20 17c-61.333 0 -97.333 7.16699 -108 21.5
s-19.334 41.5 -26.001 81.5v433c0 31.333 5.16699 58.666 15.5 81.999s29.5 35 57.5 35c11.333 0 23.666 -2.33301 36.999 -7c32.667 -8.66699 65 -24.167 97 -46.5s57.333 -48.833 76 -79.5c6.66699 -17.333 16 -26 28 -26c7.33301 0 11 4.33301 11 13
c0 6.66699 -2.33301 13.667 -7 21l-63 150l-17.5 36c-5 10 -9.16699 15 -12.5 15c-4.66699 0 -10.5 -6.66699 -17.5 -20s-17.667 -21.833 -32 -25.5s-32.5 -5.5 -54.5 -5.5h-362c-19.333 0 -33.833 1.83301 -43.5 5.5s-16.5 10 -20.5 19s-7.66699 15.667 -11 20
s-7.33301 6.5 -12 6.5c-3.33301 0 -7.16602 -2.16699 -11.499 -6.5s-8.5 -11.5 -12.5 -21.5l-70 -165c-4 -9.33301 -6 -17.333 -6 -24c0 -9.33301 2.66699 -14 8 -14c7.33301 0 17.666 11.5 30.999 34.5s39 46.333 77 70s64.5 37.167 79.5 40.5s26.333 5.5 34 6.5
s13.834 1.5 18.501 1.5c20 0 35.833 -7.33301 47.5 -22s17.5 -43 17.5 -85z" />
    <glyph glyph-name="U" unicode="U" horiz-adv-x="780" 
d="M118 598v-416.997c0 -66.667 27.167 -118.334 81.5 -155.001s119.166 -55 194.499 -55c74.667 0 139.167 17.667 193.5 53s81.5 85 81.5 149v402c0 29.333 8.66699 52.666 26 69.999s40.333 28 69 32c15.333 0 23 5.33301 23 16s-7.66699 16 -23 16h-244
c-14 0 -21 -4.66699 -21 -14c0 -4.66699 1.83301 -8.83398 5.5 -12.501s8.83398 -5.5 15.501 -5.5c36.667 0 65.5 -9.33301 86.5 -28s31.5 -40.667 31.5 -66v-410c0 -48.667 -23.5 -89.334 -70.5 -122.001s-99.167 -49 -156.5 -49c-52 0 -95.5 14.667 -130.5 44
s-52.5 74.333 -52.5 135v433c0 22.667 13.333 38.834 40 48.501s63.334 14.5 110.001 14.5c17.333 0 26 4.66699 26 14c0 4.66699 -3.16699 8.83398 -9.5 12.501s-14.5 5.5 -24.5 5.5h-378c-13.333 0 -20 -4.66699 -20 -14c0 -4.66699 1.83301 -8.83398 5.5 -12.501
s8.5 -5.5 14.5 -5.5c43.333 0 75.166 -4.16699 95.499 -12.5s30.5 -30.5 30.5 -66.5z" />
    <glyph glyph-name="V" unicode="V" horiz-adv-x="677" 
d="M402 142l-165.998 464.002c-2.66699 9.33301 -4 16 -4 20c0 15.333 7.66699 26.666 23 33.999s38 13 68 17c15.333 0 23 5.33301 23 16s-7.66699 16 -23 16h-339c-17.333 0 -26 -5 -26 -15c0 -4 2.5 -7.83301 7.5 -11.5s11.167 -5.5 18.5 -5.5
c29.333 0 53.166 -4.16699 71.499 -12.5s31.166 -22.5 38.499 -42.5l237 -638c2.66699 -6.66699 5.66699 -10 9 -10s7.5 2.66699 12.5 8l21 21.5c9 9 21 18.5 36 28.5s28.167 15 39.5 15c7.33301 0 14.333 2 21 6s10 8.66699 10 14s-6.33301 9.66602 -19 12.999
s-21.167 6 -25.5 8s-10.5 6.66699 -18.5 14l205 481c13.333 30 30 53.167 50 69.5s45.333 24.5 76 24.5c26 0 39 5.33301 39 16s-10.333 16 -31 16h-260c-17.333 0 -26 -5 -26 -15c0 -4 2.5 -7.83301 7.5 -11.5s11.167 -5.5 18.5 -5.5c26 0 46.333 -6 61 -18
s22 -28.333 22 -49v-16c-2 -5.33301 -3.33301 -9 -4 -11z" />
    <glyph glyph-name="W" unicode="W" horiz-adv-x="945" 
d="M110 598l149.999 -581.999c8.66699 -23.333 17 -35 25 -35c6.66699 0 13.667 5.83301 21 17.5s22.666 22.667 45.999 33s40 15.5 50 15.5c22.667 5.33301 34 10 34 14c-18.667 6.66699 -34.834 13.667 -48.501 21s-19.5 16.666 -17.5 27.999
c6 16.667 22.167 69.334 48.5 158.001s42.5 141.834 48.5 159.501l21 60.5l126 -480c4 -20 9.66699 -30 17 -30c4 0 9.83301 3.66699 17.5 11l21 20c6.33301 6 21.833 13.833 46.5 23.5s40.667 14.5 48 14.5c14.667 4 22 7.66699 22 11c0 2.66699 -12.167 9.66699 -36.5 21
s-35.166 21.666 -32.499 30.999l141 449c11.333 33.333 28.833 60.333 52.5 81s48.167 33 73.5 37c18 4 27 10.667 27 20c0 8 -9 12 -27 12h-252c-21.333 0 -32 -5 -32 -15c0 -11.333 10.667 -17 32 -17c22.667 0 43.667 -5.33301 63 -16s29 -28.667 29 -54
c0 -8 -1.66699 -18.667 -5 -32l-118 -433l-126 472c-2.66699 7.33301 -4 14 -4 20c0 16 6.83301 26.333 20.5 31s29.667 8.83398 48 12.501s27.5 9.83398 27.5 18.501s-9.66699 13 -29 13h-276c-14 -2.66699 -21 -7.33398 -21 -14.001c0 -4 3 -8 9 -12s12.667 -6 20 -6
c27.333 -3.33301 46.833 -15.833 58.5 -37.5s23.834 -53.834 36.501 -96.501l-111 -401l-118 441c-6 14 -9 28 -9 42c0 13.333 4 24.666 12 33.999s20.333 15.333 37 18c15.333 0 23 5.33301 23 16s-7.66699 16 -23 16h-252c-20 0 -30 -5.33301 -30 -16s10 -16 30 -16
c20.667 0 38.334 -5.16699 53.001 -15.5s25.667 -31.5 33 -63.5z" />
    <glyph glyph-name="X" unicode="X" horiz-adv-x="780" 
d="M433 433l-125.997 189.003c-7.33301 12 -11 22.333 -11 31c0 9.33301 4.83301 15.666 14.5 18.999s22.167 5 37.5 5h22c19.333 0 29 5.33301 29 16s-9.66699 16 -29 16h-323c-6.66699 0 -12.334 -2 -17.001 -6s-7 -8.33301 -7 -13c0 -8.66699 8 -13 24 -13
c30.667 0 54.167 -3.33301 70.5 -10s32.166 -21.667 47.499 -45l189 -276l-189 -236c-20.667 -24 -50.5 -43.167 -89.5 -57.5s-69.5 -21.5 -91.5 -21.5c-15.333 0 -23 -5.33301 -23 -16c0 -10 7.66699 -15 23 -15h315c20 0 30 5 30 15c0 10.667 -10 16 -30 16
c-26.667 0 -47.334 4.16699 -62.001 12.5s-22 21.5 -22 39.5c0 15.333 7 35 21 59l134 181l158 -221c8 -14 12 -25.333 12 -34c0 -14 -9.33301 -23.667 -28 -29s-42.334 -8 -71.001 -8c-18 0 -27 -5.66699 -27 -17c0 -9.33301 9 -14 27 -14h346c16 0 24 4.33301 24 13
c0 4 -2.33301 8 -7 12s-10.334 6 -17.001 6h-14c-14.667 0 -28.667 3 -42 9s-28.666 19 -45.999 39l-236 330l149 174c28 27.333 53.833 49 77.5 65s55.834 25.667 96.501 29c13.333 0 20 6 20 18c0 9.33301 -6.66699 14 -20 14h-307c-16 -3.33301 -24 -9 -24 -17
c0 -10 8 -15 24 -15c36.667 0 62.5 -3.83301 77.5 -11.5s22.5 -18.834 22.5 -33.501c0 -9.33301 -2 -18.833 -6 -28.5s-12 -21.834 -24 -36.501z" />
    <glyph glyph-name="Y" unicode="Y" horiz-adv-x="677" 
d="M283 299v-188.999c0 -26 -11 -45.667 -33 -59s-53 -20 -93 -20c-11.333 0 -17 -5.33301 -17 -16c0 -10 5.66699 -15 17 -15h371c17.333 0 26 4.33301 26 13c0 4.66699 -3.16699 8.83398 -9.5 12.501s-14.5 5.5 -24.5 5.5c-37.333 0 -66.333 5.66699 -87 17s-31 32 -31 62
v229l196 275c20 25.333 41.167 42.166 63.5 50.499s43.5 12.5 63.5 12.5h15c18 0 27 5.66699 27 17c0 10 -9 15 -27 15h-275c-20 0 -30 -5.33301 -30 -16s10 -16 30 -16c60.667 0 91 -10.333 91 -31c0 -9.33301 -7 -25.333 -21 -48l-149 -236l-158 252
c-8 15.333 -12 27 -12 35c0 11.333 6 18.833 18 22.5s31 5.5 57 5.5c16 0 24 5.33301 24 16s-8 16 -24 16h-338c-16 0 -24 -5.33301 -24 -16s8 -16 24 -16c20 0 41.5 -3.83301 64.5 -11.5s38.167 -16.834 45.5 -27.501z" />
    <glyph glyph-name="Z" unicode="Z" horiz-adv-x="661" 
d="M488 646l-457.002 -606.998c-8 -12.667 -12 -21.334 -12 -26.001c0 -8.66699 9.33301 -13 28 -13h299h43c44 0 79.333 -3.33301 106 -10s41.834 -18 45.501 -34s6.33398 -26.667 8.00098 -32s4.5 -8 8.5 -8c4.66699 0 10.667 12.333 18 37l110 244c3.33301 4 5 9 5 15
c0 6.66699 -3 10 -9 10c-7.33301 0 -20.5 -18.833 -39.5 -56.5s-58.5 -70.667 -118.5 -99s-150.333 -42.5 -271 -42.5h-21c-13.333 0 -22.833 1 -28.5 3s-8.5 7 -8.5 15c0 6 3.66699 15.667 11 29l441 598c7.33301 10 11 18.333 11 25c0 10 -11.667 15 -35 15h-378
c-18 0 -34.5 4 -49.5 12s-24.333 15.667 -28 23l-9 18c-2.33301 4.66699 -4.83301 7 -7.5 7c-4.66699 0 -10 -7 -16 -21l-87 -189c-2.66699 -5.33301 -4 -10.333 -4 -15c0 -5.33301 2.66699 -8 8 -8c10.667 0 20 7.66699 28 23c27.333 37.333 58 64.333 92 81
s72.833 27 116.5 31s102.834 6 177.501 6c11.333 0 19.666 -0.5 24.999 -1.5s8 -4.16699 8 -9.5c0 -4.66699 -3.33301 -11.334 -10 -20.001z" />
    <glyph glyph-name="bracketleft" unicode="[" horiz-adv-x="528" 
d="M55 661c-5.33301 -10.667 -10.5 -22.666 -15.5 -35.999s-10.167 -32.666 -15.5 -57.999c-2.66699 -8.66699 -4.66699 -17.334 -6 -26.001s-2 -18.334 -2 -29.001c0 -41.333 13 -75.666 39 -102.999l-25.5 -69.5c-11 -29.667 -18.167 -56.167 -21.5 -79.5
c-3.33301 -9.33301 -5 -20.333 -5 -33c0 -15.333 4.16699 -38.5 12.5 -69.5s12.5 -50.833 12.5 -59.5c0 -16 -4 -30.333 -12 -43v-8h8l18.5 18.5c11.667 11.667 21 18.667 28 21s14.333 3.83301 22 4.5s16.834 1 27.501 1h33c20.667 0 38 2.16699 52 6.5s27 13.5 39 27.5
c5.33301 12 9.5 25 12.5 39s4.5 27.333 4.5 40c0 16 -3 31.667 -9 47c-14.667 14 -37 22.5 -67 25.5s-47 4.83301 -51 5.5h-16c-8.66699 0 -17.834 2.16699 -27.501 6.5s-16.167 10.166 -19.5 17.499c-4 12 -6 26.667 -6 44c0 18 2 35 6 51l8 7h275
c25.333 0 42.166 -4.5 50.499 -13.5s12.5 -22.833 12.5 -41.5v-598c-0.666992 -5.33301 -1 -9 -1 -11c0 -12.667 3.33301 -19 10 -19c10 0 22.833 11.333 38.5 34s23.5 42.334 23.5 59.001l-31 567l-7 112c-2 31.333 -7.66699 59.666 -17 84.999
c-13.333 13.333 -29.666 21.833 -48.999 25.5s-42.333 5.5 -69 5.5h-197c-11.333 0 -22 5 -32 15s-15 20.667 -15 32h-8h-8z" />
    <glyph glyph-name="backslash" unicode="\" horiz-adv-x="520" 
d="M331 425c21.333 0 37.832 -2 49.499 -6s23.834 -12.333 36.501 -25c11.333 -30 19.5 -62 24.5 -96s7.5 -70.333 7.5 -109h-8h-354c-4 0 -6.33301 0.333008 -7 1s-1 3 -1 7v228h252zM46.999 669c-2.66699 0 -5.66602 -2.16113 -8.99902 -6.49414s-8 -11.5 -14 -21.5
s-12.167 -26.5 -18.5 -49.5s-9.5 -45.5 -9.5 -67.5c0 -23.333 4 -45.666 12 -66.999c4 -8 12 -15.333 24 -22s22.333 -10 31 -10c-2.66699 -8.66699 -6.83398 -16.334 -12.501 -23.001s-13.5 -18.834 -23.5 -36.501s-17 -35.334 -21 -53.001s-6 -58.834 -6 -123.501v-173
c0 -10.667 5.33301 -16 16 -16h433c15.333 0 23 5.33301 23 16v31c3.33301 35.333 5.5 69.166 6.5 101.499s1.5 72.166 1.5 119.499v29v25c0 62.667 -2.66699 118 -8 166c-5.33301 23.333 -10 42.333 -14 57s-9.66699 27.334 -17 38.001
c-14 17.333 -29.667 28.166 -47 32.499s-41 6.5 -71 6.5h-229c-12 0 -20.5 4.66699 -25.5 14s-9 17.166 -12 23.499s-6.16699 9.5 -9.5 9.5z" />
    <glyph glyph-name="bracketright" unicode="]" horiz-adv-x="520" 
d="M47 669c-3.33301 0 -5.99902 -2.66309 -7.99902 -7.99609c-11.333 -14.667 -19.833 -32 -25.5 -52s-8.5 -41.333 -8.5 -64c0 -14 1 -27.667 3 -41c0 -22.667 9.66699 -41.834 29 -57.501s43.666 -25.5 72.999 -29.5h268c8 0 12.667 -0.333008 14 -1s2 -3 2 -7v-677
c15.333 8 32.166 22.833 50.499 44.5s27.5 38.5 27.5 50.5l-31 582c0 5.33301 2.66699 10.666 8 15.999c17.333 3.33301 29.5 14.666 36.5 33.999s10.5 39.666 10.5 60.999c0 32.667 -6.33301 56.5 -19 71.5s-32.667 22.5 -60 22.5h-323c-13.333 0 -23.166 6 -29.499 18
s-9.5 21.667 -9.5 29z" />
    <glyph glyph-name="asciicircum" unicode="^" horiz-adv-x="630" 
d="M323 630l212 -417h79l-252 488h-79l-252 -488h79z" />
    <glyph glyph-name="underscore" unicode="_" horiz-adv-x="504" 
d="M0 -71v-86h512v86h-512z" />
    <glyph glyph-name="grave" unicode="`" horiz-adv-x="378" 
d="M94 583l165.999 -63.002c19.333 -6.66699 33 -10 41 -10c6 0 9 2 9 6c0 2.66699 -2.66699 7.33398 -8 14.001s-11.666 13.667 -18.999 21l-102 103c-8.66699 10.667 -17.667 18.5 -27 23.5s-19 7.5 -29 7.5c-16 0 -30 -6 -42 -18s-18 -25.667 -18 -41
c0 -19.333 9.66699 -33.666 29 -42.999z" />
    <glyph glyph-name="a" unicode="a" horiz-adv-x="591" 
d="M425 654c0 9.33301 -3.00098 14.002 -9.00098 14.002c-2.66699 0 -5 -2.33301 -7 -7l-63 -102c-4 -14 -6 -26.667 -6 -38c0 -12 2.16699 -22.833 6.5 -32.5s8.16602 -16.167 11.499 -19.5s10 -8 20 -14s20.333 -13.333 31 -22v-24l-7 -31c0 -4 -1.66699 -6 -5 -6
s-7 2 -11 6l-181 142c-28 22.667 -51.333 45.5 -70 68.5s-29.667 47.167 -33 72.5c0 4 -0.333008 6 -1 6s-3 -2 -7 -6c-11.333 -15.333 -22 -36.333 -32 -63s-17.333 -47.334 -22 -62.001s-7 -29.334 -7 -44.001c0 -46.667 15.333 -84.667 46 -114l-55 -118
c-4.66699 -16 -7 -33.333 -7 -52c0 -15.333 3 -41.166 9 -77.499s9 -60.833 9 -73.5c0 -12 -1.33301 -23 -4 -33c0 -3.33301 -1.66699 -6.16602 -5 -8.49902s-6.66602 -4.83301 -9.99902 -7.5v-8h36.5c12.333 0 24.833 -0.333008 37.5 -1c26.667 0 47 0.833008 61 2.5
s29.333 6.5 46 14.5c14 3.33301 24 13.666 30 30.999s9 35.666 9 54.999c1.33301 5.33301 2 10 2 14c0 13.333 -2.66699 25.666 -8 36.999s-13.666 26 -24.999 44c-10 12 -30.667 31 -62 57s-52.666 49 -63.999 69c-1.33301 4.66699 -2 8.33398 -2 11.001
c0 4 0.833008 8.33301 2.5 13s4.16699 9.66699 7.5 15c0.666992 0.666992 2.5 1.66699 5.5 3s6.16699 0.333008 9.5 -3l292 -236c6 -6 24.833 -22.167 56.5 -48.5s49.5 -52.166 53.5 -77.499c8 8 15.5 18 22.5 30s12.667 25.5 17 40.5s7.66602 29.667 9.99902 44
s3.5 28.5 3.5 42.5c0 32 -7.33301 61 -22 87c-15.333 18.667 -30.666 35.334 -45.999 50.001s-39.333 34.667 -72 60c-5.33301 5.33301 -8 10.666 -8 15.999l8 39h16c5.33301 0 14.5 -6.5 27.5 -19.5s24.833 -22.167 35.5 -27.5c3.33301 0 6.33301 0.833008 9 2.5
s8.16699 7.66699 16.5 18s17 26.666 26 48.999s13.5 46.833 13.5 73.5l-2 23c-6.66699 22 -22.334 40.833 -47.001 56.5l-71 45.5c-5.33301 5.33301 -9.33301 9.83301 -12 13.5s-4 7.16699 -4 10.5z" />
    <glyph glyph-name="b" unicode="b" horiz-adv-x="575" 
d="M150 669c-2.66699 0 -5.66602 -2.16504 -8.99902 -6.49805s-10.333 -15.833 -21 -34.5s-16 -46 -16 -82c0 -23.333 4.66699 -48 14 -74c11.333 -14.667 26.5 -24.834 45.5 -30.501s43.167 -8.5 72.5 -8.5c35.333 -4 70.666 -7.66699 105.999 -11
c42.667 -6 70.334 -15.333 83.001 -28s22.834 -34.5 30.501 -65.5s11.5 -63.167 11.5 -96.5v-18c-1.33301 -8 -2 -13.667 -2 -17c0 -10.667 -5.33301 -16 -16 -16h-355c-10 0 -15 -5.33301 -15 -16l-79 -157c0 -3.33301 2.66699 -6 8 -8h457c10 0 15 5.33301 15 16l71 165
h-8h-47c-5.33301 0 -8 5.33301 -8 16v157c0 15.333 0.333008 31.166 1 47.499l2 49.5c0 26 -1.66699 47.5 -5 64.5s-12 36.333 -26 58s-36 32.5 -66 32.5l-221 24c-2.66699 0 -5.33398 4.66699 -8.00098 14s-5.33398 15 -8.00098 17c0 3.33301 -2.33301 6 -7 8z" />
    <glyph glyph-name="c" unicode="c" horiz-adv-x="685" 
d="M268 669h-7.99805c-11.333 -18.667 -19.5 -38.667 -24.5 -60s-7.5 -43.333 -7.5 -66v-31c3.33301 -17.333 11.5 -32.5 24.5 -45.5s28.5 -24.167 46.5 -33.5v-8l-126 -236h-47h-8c-11.333 22 -18.833 48.5 -22.5 79.5s-6.5 56.833 -8.5 77.5
c0 17.333 1.83301 32.833 5.5 46.5s9.5 24.5 17.5 32.5h79c2 13.333 3.83301 26.666 5.5 39.999s2.5 27.333 2.5 42c0 29.333 -5.33301 54.666 -16 75.999c-14.667 18.667 -37.167 30.334 -67.5 35.001s-55.166 8.66699 -74.499 12c-6 3.33301 -10.833 8.83301 -14.5 16.5
s-6.5 12.5 -8.5 14.5c0 4 -1.33301 6 -4 6s-4 -2 -4 -6c-7.33301 -26 -11 -51 -11 -75c0 -31.333 6.33301 -64 19 -98c3.33301 -12 15.166 -24.667 35.499 -38s32.166 -21.666 35.499 -24.999c-6.66699 -6.66699 -13.834 -15 -21.501 -25s-13.834 -17.333 -18.501 -22
c-6 -9.33301 -10.167 -19 -12.5 -29s-3.5 -21.667 -3.5 -35c0 -10 1.33301 -28.5 4 -55.5s4 -44.833 4 -53.5c2 -12 4.5 -39.333 7.5 -82s5.83301 -73.334 8.5 -92.001c0 -12 2.5 -20.167 7.5 -24.5s15.5 -6.5 31.5 -6.5h300c10 0 19.167 3 27.5 9s14.833 13.333 19.5 22
c14 18 22.5 45 25.5 81s5.66699 62.5 8 79.5s7.5 38.333 15.5 64s18 48.167 30 67.5c6 12 20.167 30 42.5 54s36.833 40 43.5 48c20 20 30 46.333 30 79c0 12.667 -2 25.667 -6 39c-3.33301 16.667 -13.333 31.667 -30 45c-22 14.667 -38.333 26 -49 34
c-6 2.66699 -12.667 7.5 -20 14.5s-11 15.167 -11 24.5v8l-8 -8l-47 -63c-7.33301 -14.667 -13 -28 -17 -40s-6 -25 -6 -39c0 -12 3.33301 -24.5 10 -37.5s22.334 -29.167 47.001 -48.5s39.334 -32.333 44.001 -39v-8l-43.5 -41c-11.667 -11.333 -20.834 -24 -27.501 -38
c-12 -15.333 -24 -34 -36 -56l-34 -62h-213l134 236l63 -16c6.66699 6.66699 11.5 16 14.5 28s5.66699 23.333 8 34s3.5 21.334 3.5 32.001c0 18 -2.83301 35.5 -8.5 52.5s-13.5 30.5 -23.5 40.5s-30.333 19.167 -61 27.5s-47.667 23.5 -51 45.5z" />
    <glyph glyph-name="d" unicode="d" horiz-adv-x="520" 
d="M55 630c-6.66699 0 -10 3.33008 -10 9.99707c1.33301 8.66699 2 15.667 2 21c0 4 -1.33301 6 -4 6s-4 -2 -4 -6c-27.333 -41.333 -41 -84.666 -41 -129.999c0 -4.66699 0.333008 -9.66699 1 -15s1 -9.33301 1 -12c0 -14 9.5 -29.333 28.5 -46s40.833 -25 65.5 -25h268
c8 0 12.667 -0.333008 14 -1s2 -3 2 -7l-8 -417c0 -5.33301 1 -8 3 -8c3.33301 0 15.333 10.333 36 31c14.667 12 24.5 25.667 29.5 41s7.5 33.333 7.5 54c0 14 -0.833008 32 -2.5 54s-2.5 35.333 -2.5 40c-4.66699 38 -8.5 74.833 -11.5 110.5s-4.5 69.834 -4.5 102.501
c6.66699 0 15.334 2.66699 26.001 8s17.667 13.333 21 24c8 19.333 12 40.333 12 63c0 22 -4 43 -12 63c0 10.667 -5.83301 19.834 -17.5 27.501s-26.834 11.5 -45.501 11.5h-354z" />
    <glyph glyph-name="e" unicode="e" horiz-adv-x="551" 
d="M118 394c-28 -24 -49.167 -52.1689 -63.5 -84.502s-21.5 -65.166 -21.5 -98.499c0 -63.333 22.333 -117.666 67 -162.999s105.334 -68 182.001 -68c30 0 61.667 4.16699 95 12.5s62.833 22 88.5 41s48.834 44.5 69.501 76.5c6.66699 8.66699 10 16 10 22c0 4 -2 6 -6 6
c-8.66699 0 -21.334 -11.333 -38.001 -34s-38.834 -41.334 -66.501 -56.001s-55.167 -22 -82.5 -22c-48 0 -92.167 18.667 -132.5 56s-63.5 73 -69.5 107l338 150c21.333 10 32 17.667 32 23c0 2 -2.66699 4.66699 -8 8l-27 10c-7.33301 2.66699 -14 7.33398 -20 14.001
c-25.333 22 -52.166 38.333 -80.499 49s-56.5 16 -84.5 16c-34.667 0 -67.834 -6.5 -99.501 -19.5s-59.167 -28.167 -82.5 -45.5zM142 219.998c-1.33301 5.33301 -2.5 13.333 -3.5 24s-1.5 21 -1.5 31c0 48 13 84.667 39 110s56.333 38 91 38
c41.333 0 68.833 -9.5 82.5 -28.5l28.5 -39c5.33301 -7 8 -13.167 8 -18.5c0 -8.66699 -8 -16 -24 -22z" />
    <glyph glyph-name="f" unicode="f" horiz-adv-x="598" 
d="M24 614c-7.33301 -22 -12.499 -40.4961 -15.499 -55.4961s-4.5 -28.167 -4.5 -39.5c0 -20.667 3.16699 -37.334 9.5 -50.001s15.5 -21.334 27.5 -26.001l61 -18v-8c-20 -24 -35.5 -51.333 -46.5 -82s-16.5 -63.667 -16.5 -99c0 -23.333 -1.33301 -60.333 -4 -111
s-4 -89.667 -4 -117c2 -2 4.33301 -3.83301 7 -5.5s5.66699 -2.5 9 -2.5h488c3.33301 6.66699 5.5 12.334 6.5 17.001s1.5 9.33398 1.5 14.001c4 36 7.33301 73.167 10 111.5s4 75.833 4 112.5c0 42 -1.83301 82 -5.5 120s-9.16699 73 -16.5 105
c-15.333 50 -46.666 87 -93.999 111c-48 15.333 -95.333 23 -142 23l-23 -142l-48 -189h8c0 0.666992 6.16699 16.167 18.5 46.5s24 51.666 35 63.999s23.667 21.333 38 27s28.833 8.5 43.5 8.5c4.66699 0 10.167 -0.333008 16.5 -1s16.166 -2.33398 29.499 -5.00098
s27.666 -10.5 42.999 -23.5s27.333 -28.167 36 -45.5c11.333 -26 20.333 -47.333 27 -64s10 -36 10 -58c0 -4 -0.166992 -8 -0.5 -12s-1.83301 -11.667 -4.5 -23c0 -4 -0.666992 -6.66699 -2 -8s-6 -4 -14 -8h-394c-5.33301 5.33301 -8 10.666 -8 15.999
c0 15.333 -1.33301 38.666 -4 69.999s-4 54.333 -4 69c0 18 1.16699 33.5 3.5 46.5s6.5 27.167 12.5 42.5c4 1.33301 10 2 18 2c10.667 0 21 -2 31 -6l30 -12h8c15.333 32 23 65.333 23 100c0 14 -0.333008 24.167 -1 30.5s-3 15.5 -7 27.5
c-9.33301 22.667 -29.666 38 -60.999 46c-26.667 5.33301 -53.334 11 -80.001 17c-6 3.33301 -9.66699 9 -11 17s-3 12.667 -5 14v8c-7.33301 -6.66699 -14.5 -15.5 -21.5 -26.5s-12.833 -20.5 -17.5 -28.5z" />
    <glyph glyph-name="g" unicode="g" horiz-adv-x="354" 
d="M150 630c-5.33301 0 -9.33105 5.16797 -11.998 15.501s-6.66699 15.5 -12 15.5s-10.666 -2.33301 -15.999 -7c-9.33301 -22.667 -16.833 -43.834 -22.5 -63.501s-8.5 -39.5 -8.5 -59.5c0 -12.667 1.16699 -24.167 3.5 -34.5s6.16602 -20.833 11.499 -31.5
c13.333 -22.667 36.333 -36.667 69 -42s65 -10 97 -14c-4 -35.333 -6 -71 -6 -107s2 -73.667 6 -113h-8h-173c-3.33301 0 -6 -2.66699 -8 -8l-71 -173c2 -5.33301 4.66699 -8 8 -8h189l71 150c9.33301 -30.667 15.833 -55.5 19.5 -74.5s5.5 -35.5 5.5 -49.5v-13
c-1.33301 -6 -2 -10.333 -2 -13c1.33301 -1.33301 2.66602 -3 3.99902 -5c2.66699 1.33301 4 5.66602 4 12.999c8 24.667 15 54.334 21 89.001s9 66.667 9 96c0 24.667 -1.33301 43.334 -4 56.001s-10.167 37.5 -22.5 74.5s-18.5 65.167 -18.5 84.5
c0 14 2.33301 27.667 7 41c2 9.33301 3.66699 18.5 5 27.5s2 18.5 2 28.5c0 14.667 -1.5 27.167 -4.5 37.5s-8.83301 21.166 -17.5 32.499c-12.667 19.333 -31.334 32 -56.001 38z" />
    <glyph glyph-name="h" unicode="h" horiz-adv-x="520" 
d="M63 630c-6.66699 0 -10 4.33398 -10 13.001c1.33301 9.33301 2 15.333 2 18c-4 4 -6.33301 6 -7 6s-1 -2 -1 -6c-27.333 -41.333 -41 -84.666 -41 -129.999c0 -4.66699 0.333008 -9.66699 1 -15s1 -9.33301 1 -12c0 -14 9.5 -29.333 28.5 -46s40.833 -25 65.5 -25h268
c8 0 12.667 -0.333008 14 -1s2 -3 2 -7l-8 -417c0 -5.33301 1 -8 3 -8c3.33301 0 13.5 8.5 30.5 25.5s28 34.5 33 52.5s7.5 38 7.5 60c0 13.333 -0.5 30.166 -1.5 50.499s-1.5 30.833 -1.5 31.5c-4.66699 38 -8.5 74.833 -11.5 110.5s-4.5 69.834 -4.5 102.501
c9.33301 0 18.833 3.33301 28.5 10s16 14 19 22s5.16699 16.667 6.5 26s2 18.666 2 27.999c0 14 -0.5 25.167 -1.5 33.5s-3.5 21.166 -7.5 38.499l-14 24c-6 10 -22.333 15 -49 15h-354zM94 362.001c-2 0 -4.33105 -1.33203 -6.99805 -3.99902s-5.33398 -4 -8.00098 -4
l-35.5 -35c-13 -13.333 -19.5 -30.333 -19.5 -51c-3.33301 -21.333 -5.5 -41.166 -6.5 -59.499s-1.5 -40.5 -1.5 -66.5c0 -16.667 -1.33301 -38.667 -4 -66s-4 -47.333 -4 -60c0 -1.33301 -0.833008 -3.5 -2.5 -6.5s-0.833984 -6.16699 2.49902 -9.5s9 -2.83301 17 1.5
s12.667 6.5 14 6.5c30 21.333 47.333 43.666 52 66.999s7 44 7 62c0 10.667 -0.666992 28.167 -2 52.5s-2 37.166 -2 38.499l8 134h-8z" />
    <glyph glyph-name="i" unicode="i" horiz-adv-x="339" 
d="M189 638c-20.667 0 -37 -6.66797 -49 -20.001s-18 -29 -18 -47c0 -18.667 6.5 -34.5 19.5 -47.5s31.5 -19.5 55.5 -19.5c19.333 0 34.833 6.83301 46.5 20.5s17.5 29.834 17.5 48.501c0 18 -6 33.333 -18 46s-30 19 -54 19zM134 306.999l-0.00195312 -188.999
c0 -38.667 -7.5 -62.834 -22.5 -72.501s-36.5 -14.5 -64.5 -14.5c-17.333 0 -26 -4.66699 -26 -14c0 -4 2.5 -7.83301 7.5 -11.5s11.167 -5.5 18.5 -5.5h284c13.333 0 20 4.66699 20 14c0 11.333 -6.66699 17 -20 17c-32.667 0 -56.667 6.33301 -72 19s-23 32.667 -23 60
v307v14c0 4.66699 0.333008 9.33398 1 14.001c0 12 -2.33301 18 -7 18c-5.33301 0 -16.166 -6.83301 -32.499 -20.5s-38.833 -23.834 -67.5 -30.501s-59 -10 -91 -10c-15.333 0 -23 -5.33301 -23 -16s7.66699 -16 23 -16h15c20.667 0 38.334 -4 53.001 -12
s23.667 -25 27 -51z" />
    <glyph glyph-name="j" unicode="j" horiz-adv-x="512" 
d="M102 433l260.002 0.00195312c8 0 12.667 -0.333008 14 -1s2 -3 2 -7l-8 -417c0 -5.33301 1 -8 3 -8c3.33301 0 15.333 10.333 36 31c13.333 15.333 22.5 32.166 27.5 50.499s7.5 38.166 7.5 59.499c0 12 -0.5 27.833 -1.5 47.5s-1.5 30.167 -1.5 31.5l-17 118
c-4.66699 34 -7 65.667 -7 95c7.33301 0 17.5 2.66699 30.5 8s21.167 13.333 24.5 24c8 19.333 12 40.333 12 63c0 22 -4 43 -12 63c0 10.667 -5.83301 19.834 -17.5 27.501s-26.834 11.5 -45.501 11.5h-354c-2.66699 2.66699 -4 8 -4 16c0 7.33301 -1.33301 12.333 -4 15
c0 4 -1.33301 6 -4 6s-4 -2 -4 -6c-14.667 -22 -24.834 -46 -30.501 -72s-8.5 -54.333 -8.5 -85c5.33301 -15.333 14 -30.166 26 -44.499s27 -23.166 45 -26.499h8c-14 -14 -27.167 -28.667 -39.5 -44s-19.5 -26.833 -21.5 -34.5s-3.16699 -17.334 -3.5 -29.001
s-0.5 -21.5 -0.5 -29.5c0 -21.333 0.666992 -62.333 2 -123s2 -92.334 2 -95.001v-23v-20c-1.33301 -5.33301 -2 -9 -2 -11c0 -6 -1.33301 -11 -4 -15s-4 -7 -4 -9c7.33301 -4 22.5 3 45.5 21s36.5 32 40.5 42c0.666992 6.66699 1.16699 13.167 1.5 19.5s0.5 12.5 0.5 18.5
c0 27.333 -1.83301 73.666 -5.5 138.999s-5.5 104 -5.5 116s0.666992 22 2 30v25c2.66699 4 5 8.66699 7 14c0 3.33301 2.66699 6 8 8z" />
    <glyph glyph-name="k" unicode="k" horiz-adv-x="543" 
d="M110 661c0 4 -1.66504 6 -4.99805 6s-7 -2 -11 -6c-17.333 -36 -26 -74.667 -26 -116c0 -13.333 1 -27 3 -41c0 -16.667 5.33301 -29.667 16 -39c10 -14 27.667 -23.667 53 -29c32.667 -4.66699 57 -8.33398 73 -11.001c8.66699 0 22.667 0.333008 42 1s34.333 1 45 1
c16 0 31.333 -0.833008 46 -2.5s31.167 -5 49.5 -10s34.666 -17 48.999 -36s26.166 -42.833 35.499 -71.5c5.33301 -25.333 9.33301 -46.5 12 -63.5s4 -32.5 4 -46.5h-402c-6 0 -10.667 -1.83301 -14 -5.5s-6.33301 -7.16699 -9 -10.5l-63 -157c-5.33301 -8 -8 -14 -8 -18
s8 -6 24 -6h393c12 0 19.333 1 22 3s6 9 10 21l63 165c0 88.667 -2.33301 157.5 -7 206.5s-14.334 91.667 -29.001 128s-31.667 59.333 -51 69s-43 16.834 -71 21.501h-27c-52 0 -90.5 1.16699 -115.5 3.5s-50.833 6.5 -77.5 12.5c-5.33301 0 -9.66602 3.16699 -12.999 9.5z
" />
    <glyph glyph-name="l" unicode="l" horiz-adv-x="465" 
d="M0 661l0.00292969 -140.999c0 -16 9.16699 -33.167 27.5 -51.5s35.5 -27.5 51.5 -27.5h78h166c15.333 0 26 -3 32 -9s10.333 -11 13 -15s6 -11.667 10 -23c3.33301 -15.333 6 -28.333 8 -39s3 -20.334 3 -29.001c0 -11.333 -1.16699 -20.666 -3.5 -27.999
s-7.5 -14.666 -15.5 -21.999c-10 -17.333 -26 -34.333 -48 -51l-102 -68l-43 -43c-15.333 -18 -23 -36.333 -23 -55c0 -6 1 -12.667 3 -20c0 -8 3.5 -16.5 10.5 -25.5s14.167 -13.5 21.5 -13.5c2 -2 5.33301 -3 10 -3c5.33301 0 10.166 1.16699 14.499 3.5
s6.5 4.83301 6.5 7.5c17.333 11.333 29.166 35.333 35.499 72s15.5 60 27.5 70l16 15c8.66699 10.667 30.167 30.167 64.5 58.5s56.166 60.166 65.499 95.499s14 74.333 14 117c0 42 -6 83 -18 123c-8.66699 21.333 -20.167 39.833 -34.5 55.5s-29.166 23.5 -44.499 23.5
h-228c-10.667 0 -19.834 3.16699 -27.501 9.5s-11.5 13.5 -11.5 21.5v48c0 26 9.33301 56.333 28 91s28 60.667 28 78c0 5.33301 -1 13.5 -3 24.5s-11.5 22.167 -28.5 33.5l-48.5 32c-5.33301 -2 -8 -4.33301 -8 -7c-6.66699 -10.667 -12.167 -20.334 -16.5 -29.001
s-6.5 -17.667 -6.5 -27c3.33301 -17.333 10.5 -32.166 21.5 -44.499s22.167 -20.833 33.5 -25.5c0 -6.66699 -4 -13.667 -12 -21s-14.667 -13.666 -20 -18.999c-17.333 -8.66699 -30.333 -21.667 -39 -39c-3.33301 -10.667 -5.5 -23.834 -6.5 -39.501
s-1.5 -36.834 -1.5 -63.501z" />
    <glyph glyph-name="m" unicode="m" horiz-adv-x="575" 
d="M87 661c0 4 -0.333984 6.00195 -1.00098 6.00195s-3 -2 -7 -6c-17.333 -20.667 -32.666 -44.167 -45.999 -70.5s-20 -51.833 -20 -76.5c0 -8 1.5 -20.333 4.5 -37s17.833 -32.667 44.5 -48c19.333 -9.33301 31.666 -15.666 36.999 -18.999s9.33301 -5.33301 12 -6
s5 -1.33398 7 -2.00098c-31.333 -38.667 -52.833 -66.834 -64.5 -84.501s-19.167 -42.167 -22.5 -73.5c-2.66699 -2.66699 -5.16699 -8.5 -7.5 -17.5s-4.83301 -16.167 -7.5 -21.5c-2.66699 -21.333 -5.33398 -54.333 -8.00098 -99s-5.33398 -77.334 -8.00098 -98.001
c0 -4 0.333008 -6.33301 1 -7s3 -1 7 -1c12 8.66699 23 17.834 33 27.501s17.333 18.834 22 27.501c6.66699 9.33301 12.167 24.5 16.5 45.5s6.83301 32.167 7.5 33.5c1.33301 13.333 2 44.166 2 92.499s7 88.166 21 119.499c8 23.333 27 43.666 57 60.999s61 26 93 26
c31.333 0 63.5 -5.66699 96.5 -17s61.167 -26.666 84.5 -45.999l24 -24c14.667 -18.667 27.667 -40.834 39 -66.501s17 -50.167 17 -73.5c0 -7.33301 -0.333008 -13 -1 -17c0 -3.33301 -3.33301 -5.5 -10 -6.5s-14 -1.5 -22 -1.5h-338c-6.66699 0 -11.667 -2 -15 -6
s-6.33301 -7.33301 -9 -10l-47 -157v-8h370c4 0 6.66699 0.666992 8 2s4 6 8 14l47 110c9.33301 18 15.833 37 19.5 57s5.5 41.667 5.5 65c0 16 -1.16699 37 -3.5 63s-5.16602 54.833 -8.49902 86.5s-9.16602 61.167 -17.499 88.5s-25.166 51.666 -50.499 72.999
c-23.333 15.333 -51.833 28.333 -85.5 39s-65.5 16 -95.5 16l-29 -75c-8.66699 -21.333 -17.667 -38.333 -27 -51h-7c3.33301 6.66699 5 13.334 5 20.001s-1.66699 13.334 -5 20.001c-4.66699 18.667 -25.167 39 -61.5 61s-55.5 41 -57.5 57z" />
    <glyph glyph-name="n" unicode="n" horiz-adv-x="331" 
d="M118 661c0 4 -0.330078 5.99805 -0.99707 5.99805s-3 -2 -7 -6c-14 -20 -24.333 -43.333 -31 -70c-4 -10.667 -7.33301 -21.667 -10 -33s-4 -22.333 -4 -33c0 -12 1.66699 -23.167 5 -33.5s9 -19.166 17 -26.499c14 -18 31.5 -29.167 52.5 -33.5s47.833 -6.5 80.5 -6.5
c2.66699 0 6.66699 -1.33301 12 -4s9.33301 -4 12 -4c-5.33301 -38 -9.66602 -71 -12.999 -99s-5 -53.333 -5 -76v-21.5c0 -7 0.666992 -14.833 2 -23.5c0 -3.33301 -1.33301 -5.5 -4 -6.5s-6.33398 -1.5 -11.001 -1.5h-142c-10.667 0 -16 -8 -16 -24l-55 -149
c0 -8 0.666992 -12.667 2 -14s6 -2 14 -2h220c28 0 46.833 14.167 56.5 42.5s14.5 61.5 14.5 99.5c0 4.66699 0.333008 10.334 1 17.001s1 13.667 1 21c0 26.667 -2.66699 52 -8 76s-13.666 51.667 -24.999 83c-4 15.333 -6 30 -6 44c0 12.667 3.16699 35 9.5 67
s9.5 54.333 9.5 67c0 12 -0.833008 22 -2.5 30s-6.33398 19 -14.001 33s-21.834 24.667 -42.501 32l-96 26c-6.66699 0 -10.834 2.33301 -12.501 7s-2.83398 10 -3.50098 16z" />
    <glyph glyph-name="o" unicode="o" horiz-adv-x="551" 
d="M268 457c-79.333 0 -140.833 -23.167 -184.5 -69.5s-65.5 -101.833 -65.5 -166.5c0 -66 22.833 -123.333 68.5 -172s108.834 -73 189.501 -73c76.667 0 138 25.167 184 75.5s69 108.833 69 175.5c0 63.333 -22.333 117.5 -67 162.5s-109.334 67.5 -194.001 67.5zM268 433
c51.333 0 90.834 -20.833 118.501 -62.5s41.5 -91.834 41.5 -150.501s-13.667 -110 -41 -154s-64.333 -66 -111 -66c-49.333 0 -87.5 20.833 -114.5 62.5s-40.5 91.834 -40.5 150.501s13.167 110 39.5 154s62.166 66 107.499 66z" />
    <glyph glyph-name="p" unicode="p" horiz-adv-x="551" 
d="M150 654c-4 7.33301 -6.66699 11.0068 -8 11.0068s-4 -3.66699 -8 -11c-12 -12 -20.667 -23.333 -26 -34s-9.33301 -22.667 -12 -36s-4.33398 -23.666 -5.00098 -30.999s-1 -16 -1 -26c0 -18.667 2.16699 -35.834 6.5 -51.501s11.5 -29.834 21.5 -42.501
c-2 -7.33301 -4.66699 -12.666 -8 -15.999c-7.33301 -11.333 -14.833 -23.833 -22.5 -37.5s-13.167 -27.167 -16.5 -40.5c0 -4.66699 -0.666992 -12.334 -2 -23.001s-2 -18.667 -2 -24c0 -8.66699 1.33301 -16.667 4 -24c1.33301 -6.66699 2 -11 2 -13
c0 -10.667 -4 -24.167 -12 -40.5s-12.667 -27.5 -14 -33.5c2 -2 3.5 -2.83301 4.5 -2.5s2.16699 1.16602 3.5 2.49902c2.66699 0 7 2.66699 13 8s9.66699 8 11 8c13.333 13.333 32.333 20 57 20c6.66699 0 17 -0.666992 31 -2s24 -2 30 -2c14.667 -0.666992 26 -1 34 -1
c14.667 0 27.334 1.66699 38.001 5s20.667 9.66602 30 18.999c11.333 28.667 17 55.334 17 80.001c0 15.333 -3 30.666 -9 45.999c-12 22 -33.833 34.5 -65.5 37.5s-62.167 6.16699 -91.5 9.5c-4.66699 4.66699 -7 8.66699 -7 12c0 8 10 12 30 12l189 -16
c73.333 -8 118 -63 134 -165v-47c0 -5.33301 -5.33301 -8 -16 -8h-393c-2.66699 0 -8 -8 -16 -24l-71 -165c-0 -4 0.333008 -6.33301 1 -7s3 -1 7 -1h425c10.667 0 16 2.66699 16 8l79 173c0 19.333 -0.5 44.666 -1.5 75.999s-3.33301 61.166 -7 89.499
s-7.16699 59.166 -10.5 92.499c-6 37.333 -14.167 66.5 -24.5 87.5s-22.5 37.167 -36.5 48.5s-32.333 19.666 -55 24.999s-53.5 9.5 -92.5 12.5s-76.167 6.16699 -111.5 9.5c-12 4 -20.5 8.16699 -25.5 12.5s-9.5 10.833 -13.5 19.5z" />
    <glyph glyph-name="q" unicode="q" horiz-adv-x="520" 
d="M47 661c-5.33301 0 -10.6621 -2.3291 -15.9951 -6.99609c-10 -20 -17.833 -41.5 -23.5 -64.5s-8.5 -45.5 -8.5 -67.5c0 -28.667 5.66699 -53 17 -73c10.667 -14.667 21.834 -23.667 33.501 -27s29.167 -5 52.5 -5l252 -15c15.333 0 30.166 -3.16699 44.499 -9.5
s23.166 -16.5 26.499 -30.5c6.66699 -16 11.667 -30.667 15 -44s5 -28 5 -44c0 -11.333 -0.833008 -20.833 -2.5 -28.5s-6.5 -19.334 -14.5 -35.001s-25.667 -27.334 -53 -35.001s-54.666 -14.834 -81.999 -21.501s-55.333 -19.5 -84 -38.5s-48.334 -44.5 -59.001 -76.5
c-4 -4 -6 -9 -6 -15c0 -5.33301 2 -8 6 -8s8.66699 3.16699 14 9.5s13.666 10.833 24.999 13.5c10 6 43 16.833 99 32.5s95.333 32 118 49s39.667 37.5 51 61.5s17 50.333 17 79v15c-1.33301 6.66699 -2 11.667 -2 15c0 53.333 -3.16699 100.666 -9.5 141.999
s-18.833 80.666 -37.5 117.999c-4 12.667 -11.667 23.667 -23 33s-24.666 14 -39.999 14c-15.333 2.66699 -29.833 4.33398 -43.5 5.00098s-29.834 1 -48.501 1c-12.667 0 -25.334 -0.166992 -38.001 -0.5s-25.334 -0.5 -38.001 -0.5c-28.667 0 -49.167 0.5 -61.5 1.5
s-27.5 4.16699 -45.5 9.5c-7.33301 4 -13.333 9.66699 -18 17s-9.33398 17.333 -14.001 30h-8zM71.0039 346.004c0 6 -1.33203 9 -3.99902 9c-2 0 -6 -3 -12 -9c-20 -32.667 -32.667 -73.334 -38 -122.001c-3.33301 -58 -6.33301 -101.333 -9 -130
c0 -18.667 -1.33301 -73.5 -4 -164.5s-4 -143.5 -4 -157.5c0 -34.667 2 -52 6 -52c5.33301 0 21.666 20 48.999 60c12 13.333 20.833 29.833 26.5 49.5s8.5 39.834 8.5 60.501s-2 44.667 -6 72l-13 93c0 17.333 -1.16699 48.333 -3.5 93s-3.5 78 -3.5 100
c0 35.333 2.33301 68 7 98z" />
    <glyph glyph-name="r" unicode="r" horiz-adv-x="520" 
d="M472 47c2.66699 5.33301 4.66504 24.1699 5.99805 56.5029s2 87.166 2 164.499v29v25c0 62.667 -2.66699 118 -8 166c-5.33301 23.333 -10 42.333 -14 57s-9.66699 27.334 -17 38.001c-14 17.333 -29.667 28.166 -47 32.499s-41 6.5 -71 6.5h-229
c-12 0 -20.5 4.66699 -25.5 14s-9 17.166 -12 23.499s-6.16699 9.5 -9.5 9.5c-2.66699 0 -5.66699 -2.16699 -9 -6.5s-11.166 -17.166 -23.499 -38.499s-18.5 -55.333 -18.5 -102c0 -22 4 -41 12 -57c3.33301 -14.667 11 -25 23 -31s25.333 -9 40 -9h275
c30 0 53.333 -6.33301 70 -19s25 -40.334 25 -83.001v-292c0 -23.333 1.33301 -35 4 -35c2 0 5.33301 5.16699 10 15.5s10.334 22.166 17.001 35.499z" />
    <glyph glyph-name="s" unicode="s" horiz-adv-x="520" 
d="M331 425c26.667 0 45.833 -1.5 57.5 -4.5s23 -15.167 34 -36.5s18.167 -46.333 21.5 -75s5 -66 5 -112c0 -4 -0.333008 -6.33301 -1 -7s-3 -1 -7 -1h-354c-4 0 -6.33301 0.333008 -7 1s-1 3 -1 7v228h252zM38.999 661l-8 -7c-10.667 -18.667 -19.167 -39.5 -25.5 -62.5
s-9.5 -45.5 -9.5 -67.5c0 -23.333 4 -45.666 12 -66.999c4 -8 12 -15.333 24 -22s22.333 -10 31 -10c0 -5.33301 -3.5 -12.166 -10.5 -20.499s-14.5 -20.833 -22.5 -37.5s-13.667 -38 -17 -64s-5 -69.333 -5 -130v-23v-18c0 -40 -2.66699 -78.667 -8 -116
c0 -10.667 5.33301 -16 16 -16h370c5.33301 2 8 4.66699 8 8l78 149c3.33301 7.33301 5.5 13.166 6.5 17.499s1.5 9.16602 1.5 14.499v79v29v25c0 62.667 -2.66699 118 -8 166c-5.33301 23.333 -10 42.333 -14 57s-9.66699 27.334 -17 38.001
c-14 17.333 -29.667 28.166 -47 32.499s-41 6.5 -71 6.5h-229c-12 0 -20.5 4.66699 -25.5 14l-13.5 25c0 4 -1.66699 6 -5 6s-7 -2 -11 -6z" />
    <glyph glyph-name="t" unicode="t" horiz-adv-x="622" 
d="M142 646c-6.66699 12.667 -11.0029 19.668 -13.0029 21.001c-1.33301 -2 -2.33301 -4 -3 -6c-14 -14 -22.833 -28.333 -26.5 -43s-5.5 -34.334 -5.5 -59.001c-0.666992 -4.66699 -1.16699 -10.5 -1.5 -17.5s-0.5 -12.167 -0.5 -15.5c0 -22 3.33301 -42 10 -60
s17.334 -31.667 32.001 -41c0 -6 -1.83301 -12.333 -5.5 -19s-10 -20 -19 -40s-13.5 -47 -13.5 -81c0 -26.667 4.66699 -50.667 14 -72c3.33301 -3.33301 5 -6.33301 5 -9c0 -4.66699 -4.33301 -7 -13 -7c-2 -1.33301 -10.167 -4.16602 -24.5 -8.49902s-27 -12 -38 -23
s-17.667 -30.333 -20 -58s-3.5 -53.167 -3.5 -76.5l-8 -7c-3.33301 -3.33301 -5.5 -6.83301 -6.5 -10.5s-1.5 -8.16699 -1.5 -13.5h16h126c14 0 24 1.33301 30 4s14 9 24 19s18.167 21.833 24.5 35.5s11.5 30.834 15.5 51.501c0 25.333 -4 49.166 -12 71.499
s-19.667 45.833 -35 70.5c-13.333 17.333 -24.666 36.666 -33.999 57.999s-14 43.333 -14 66c0 8 0.333008 14 1 18c0 9.33301 2.33301 16.833 7 22.5s12.667 8.5 24 8.5h292c26.667 0 47.667 -4.83301 63 -14.5s23 -25.834 23 -48.501v-346c0 -10.667 2.33301 -16 7 -16
c6 0 14.167 7.5 24.5 22.5s15.5 25.833 15.5 32.5v394c0 26 -1.16699 46.5 -3.5 61.5s-8.83301 33.833 -19.5 56.5c-7.33301 21.333 -21.666 35.833 -42.999 43.5s-46.333 11.5 -75 11.5h-260c-22 0 -36.667 1.83301 -44 5.5s-11 9.83398 -11 18.501z" />
    <glyph glyph-name="u" unicode="u" horiz-adv-x="520" 
d="M55 669c-2.66699 0 -5.6709 -2.16309 -9.00391 -6.49609s-5.66602 -7.16602 -6.99902 -8.49902c-12 -23.333 -21.333 -46.5 -28 -69.5s-10 -46.5 -10 -70.5c0 -14 1 -26.5 3 -37.5s5.33301 -21.5 10 -31.5s11.167 -17.167 19.5 -21.5s20.833 -9.16602 37.5 -14.499
c3.33301 0 9.16602 -1.16699 17.499 -3.5s15.5 -3.5 21.5 -3.5c1.33301 -2 2 -5.66699 2 -11s-1.66699 -13 -5 -23s-5 -17.333 -5 -22c-4 -18 -6 -35.667 -6 -53c0 -30 6.16699 -64.5 18.5 -103.5l35.5 -110.5c2.66699 -24.667 -13 -51.834 -47 -81.501
s-54.167 -49.334 -60.5 -59.001s-11.5 -22.334 -15.5 -38.001s-6 -31.834 -6 -48.501c0 -22 2.83301 -44.167 8.5 -66.5s11.834 -42 18.501 -59s11.667 -25.5 15 -25.5c12.667 25.333 32 50.833 58 76.5s51.167 49.334 75.5 71.001l76.5 66.5
c26.667 22.667 48.667 45.667 66 69c19.333 22 32.666 46.333 39.999 73s11 56.667 11 90c0 12.667 -0.666992 34.167 -2 64.5s-2 46.5 -2 48.5c0 28.667 14.333 67 43 115s43 83 43 105c0.666992 5.33301 1 9 1 11c0 25.333 -11.667 48.5 -35 69.5l-68 61.5
c-4.66699 2.66699 -7 7.33398 -7 14.001c0 16 -1.16699 25.167 -3.5 27.5s-4.16602 3.5 -5.49902 3.5s-12.166 -10.167 -32.499 -30.5s-37.166 -43.5 -50.499 -69.5s-20 -50.333 -20 -73c0 -6 1 -16.333 3 -31s17.333 -32.334 46 -53.001
c36.667 -21.333 62.667 -37.333 78 -48v-23c-7.33301 -14.667 -13.5 -28.667 -18.5 -42s-9.5 -28.333 -13.5 -45c-14 -31.333 -33.167 -58.833 -57.5 -82.5s-57.5 -51.167 -99.5 -82.5c0 35.333 -4.16699 73.666 -12.5 114.999s-19.833 79 -34.5 113
c0 3.33301 -1.16699 10.5 -3.5 21.5s-3.5 19.5 -3.5 25.5c0 8.66699 2.33301 16.667 7 24c4 2 8.66699 3 14 3s10.5 -1 15.5 -3s10.833 -4.66699 17.5 -8c6.66699 -4 11 -6 13 -6c0.666992 2 1.66699 4 3 6c6.66699 24 12.167 45.5 16.5 64.5s6.5 36.833 6.5 53.5
c0 24 -5 44.5 -15 61.5s-29.333 29.5 -58 37.5c-25.333 6 -50.666 12.333 -75.999 19c-6 3.33301 -9.66699 11.166 -11 23.499s-3 20.166 -5 23.499z" />
    <glyph glyph-name="v" unicode="v" horiz-adv-x="496" 
d="M55 386l173 -402c6 -11.333 11.667 -17 17 -17c3.33301 0 8.16602 3 14.499 9l23 22.5c9 9 17.333 16.167 25 21.5s18.334 10.833 32.001 16.5s20.5 10.167 20.5 13.5c0 2.66699 -4 5.66699 -12 9c-20 6 -33.667 10 -41 12l118 275c12 23.333 23.833 40 35.5 50
s28.834 17 51.501 21c7.33301 0 14.166 2.16699 20.499 6.5s9.5 8.83301 9.5 13.5c0 8 -10 12 -30 12h-181c-15.333 0 -23 -5 -23 -15c0 -11.333 10.333 -17 31 -17c22 0 37.667 -3 47 -9s14 -15 14 -27c0 -6 -1.33301 -13.167 -4 -21.5s-6 -17.833 -10 -28.5l-95 -237
l-102 252c-6 15.333 -9 27.333 -9 36c0 23.333 21.333 35 64 35c18 0 27 5.66699 27 17c0 10 -9 15 -27 15h-260c-17.333 0 -26 -5 -26 -15c0 -4 2.5 -7.83301 7.5 -11.5s11.167 -5.5 18.5 -5.5c17.333 0 31.5 -2.16699 42.5 -6.5s20.5 -12.5 28.5 -24.5z" />
    <glyph glyph-name="w" unicode="w" horiz-adv-x="268" 
d="M47 661c-10.667 -18.667 -18.8311 -37.3311 -24.498 -55.998s-8.5 -38 -8.5 -58c0 -24.667 5.33301 -46.334 16 -65.001s27.334 -31.667 50.001 -39l109 -26c1.33301 -4.66699 2 -9.66699 2 -15v-15c0 -12.667 -1.66699 -34 -5 -64s-5 -51 -5 -63
c0 -22.667 -1.33301 -58.334 -4 -107.001s-4 -86.667 -4 -114c-1.33301 -6.66699 -2 -12.334 -2 -17.001c0 -8 3.33301 -15.333 10 -22c7.33301 2 16.333 8.33301 27 19s21 27.334 31 50.001s15 47 15 73l-2 23c-8.66699 72 -14.834 128.167 -18.501 168.5
s-5.5 73.5 -5.5 99.5c5.33301 15.333 9.5 29.666 12.5 42.999s4.5 27.333 4.5 42s-1.83301 28.5 -5.5 41.5s-10.334 25.833 -20.001 38.5s-22.167 21.334 -37.5 26.001s-33 7 -53 7c-6 0 -12 -0.166992 -18 -0.5s-11.667 -0.5 -17 -0.5c-6.66699 0 -13.667 3.16699 -21 9.5
s-13.333 13.5 -18 21.5v3c-2.66699 -1.33301 -5.33398 -2.33301 -8.00098 -3z" />
    <glyph glyph-name="x" unicode="x" horiz-adv-x="543" 
d="M71 661l-0.000976562 8.00195l-16 -15c-13.333 -31.333 -23.333 -57.166 -30 -77.499s-10 -41.5 -10 -63.5c0 -16 3 -32 9 -48c14.667 -26.667 40 -41 76 -43l89 -5v-86l102 -126c1.33301 -1.33301 3 -2.66602 5 -3.99902c-1.33301 -2.66699 -5.66602 -4 -12.999 -4h-189
c-4.66699 0 -9.66699 -2.66699 -15 -8c-26 -67.333 -52.333 -125 -79 -173c0 -7.33301 1.66699 -11.833 5 -13.5s9.66602 -2.5 18.999 -2.5h370c20.667 0 34.667 2.33301 42 7s16 12 26 22s16.833 18.167 20.5 24.5s8.16699 14.833 13.5 25.5c2 10 3 20 3 30
c0 34.667 -9 64 -27 88c-12.667 14.667 -35.667 36.5 -69 65.5s-54.666 49.167 -63.999 60.5l39 55c5.33301 0 16.166 -6.5 32.499 -19.5s29.166 -19.5 38.499 -19.5c21.333 27.333 37.666 50.166 48.999 68.499s18.666 39.833 21.999 64.5c0 30 -11.833 55 -35.5 75
l-59.5 51c-7.33301 3.33301 -11.833 9.5 -13.5 18.5s-2.5 21.5 -2.5 37.5c-6.66699 -2 -17.5 -10.5 -32.5 -25.5s-31.167 -34.833 -48.5 -59.5s-29.666 -51.667 -36.999 -81c0 -20.667 7.66699 -38.334 23 -53.001s31.333 -28.334 48 -41.001l-39 -55
c-14.667 5.33301 -34.667 19.166 -60 41.499s-39.666 34.5 -42.999 36.5c4.66699 16 8.83398 33 12.501 51s5.5 34.333 5.5 49c0 15.333 -1.16699 28.333 -3.5 39s-7.16602 22.334 -14.499 35.001c-12.667 12.667 -31.334 20.667 -56.001 24
c-23.333 2 -46.666 4.33301 -69.999 7c-6 3.33301 -10.833 10.166 -14.5 20.499s-6.5 16.5 -8.5 18.5z" />
    <glyph glyph-name="y" unicode="y" horiz-adv-x="244" 
d="M39 669c-3.33301 0 -6.3291 -2.16895 -8.99609 -6.50195s-4.66699 -7.16602 -6 -8.49902c-8 -16 -14 -33 -18 -51s-6 -35.333 -6 -52c0 -26.667 3.66699 -47.667 11 -63s16.666 -25.666 27.999 -30.999c8.66699 -6.66699 18.167 -11.167 28.5 -13.5s22.5 -3.5 36.5 -3.5
h22.5c7.66699 0 15.5 0.333008 23.5 1l17.5 -9.5c5.66699 -3 10.167 -8.16699 13.5 -15.5s5.66602 -15 6.99902 -23s2 -16 2 -24c0 -12 -0.5 -20.667 -1.5 -26s-2.66699 -13.5 -5 -24.5l-4.5 -21.5c0 -4.66699 3 -5.5 9 -2.5s12 10.667 18 23s11.167 29.166 15.5 50.499
s6.5 40.333 6.5 57c2 14 3 27.333 3 40c0 14.667 -0.833008 28.334 -2.5 41.001s-5.33398 31.5 -11.001 56.5s-17.5 42 -35.5 51s-30.833 14 -38.5 15s-17.834 1.5 -30.501 1.5c-12 0 -22.5 0.5 -31.5 1.5s-17.833 3.16699 -26.5 6.5c-2.66699 0 -5.5 4.66699 -8.5 14
s-5.5 15 -7.5 17z" />
    <glyph glyph-name="z" unicode="z" horiz-adv-x="260" 
d="M39 661l-8 0.000976562c-7.33301 -20 -12.833 -38.833 -16.5 -56.5s-5.5 -35.5 -5.5 -53.5c0 -26.667 5 -53 15 -79c6.66699 -24 26.167 -37.167 58.5 -39.5s52.166 -4.83301 59.499 -7.5c2.66699 -2.66699 4 -5.33398 4 -8.00098c-2.66699 -6.66699 -4 -11.667 -4 -15
c-10 -29.333 -15 -63 -15 -101c0 -20.667 1.33301 -41.5 4 -62.5s5.83398 -39.5 9.50098 -55.5s13.167 -44.5 28.5 -85.5s24.666 -73.5 27.999 -97.5c5.33301 5.33301 10.666 8 15.999 8c17.333 48 26 98.667 26 152c0 17.333 -1 35 -3 53
c-7.33301 26 -15.5 50.333 -24.5 73s-21.833 53.334 -38.5 92.001c-4.66699 8 -7.33398 13.167 -8.00098 15.5s-1 6.16602 -1 11.499c0 7.33301 3 14 9 20c8 4 19 6 33 6c13.333 0 26 -2 38 -6v8c2.66699 16 4 35 4 57c0 20.667 -2.16699 40 -6.5 58s-11.5 34.667 -21.5 50
c-9.33301 10 -20.333 17.667 -33 23s-30.667 8 -54 8c-7.33301 0 -14.666 -0.166992 -21.999 -0.5s-14.666 -0.5 -21.999 -0.5h-13c-6 1.33301 -10.333 2 -13 2c-6 3.33301 -11.167 9 -15.5 17s-7.16602 12.667 -8.49902 14z" />
    <glyph glyph-name="braceleft" unicode="{" horiz-adv-x="520" 
d="M24 661c-8.66699 -30.667 -14.666 -53.6689 -17.999 -69.002s-5 -33.333 -5 -54c0 -10.667 0.333008 -19 1 -25s2.66699 -14.333 6 -25c13.333 -23.333 34.333 -41.333 63 -54c34 -11.333 57.667 -19.666 71 -24.999c3.33301 0 6 -2.33301 8 -7l-47 -68
c-16 -26 -24 -50.667 -24 -74v-528h8h7c24.667 16 43 36.667 55 62s18 52.666 18 81.999c0 5.33301 -0.333008 10.833 -1 16.5s-1 10.167 -1 13.5l-15 259c0 4 1 7.5 3 10.5s6 7.5 12 13.5l174 197c8 0 17.167 -3.33301 27.5 -10l35.5 -22c17.333 13.333 32.5 29 45.5 47
s21.167 36.667 24.5 56c3.33301 9.33301 5 20 5 32c0 17.333 -3.83301 33.833 -11.5 49.5s-18 29.667 -31 42l-38 37c-12.333 12.333 -18.5 26.833 -18.5 43.5h-8h-8c-16.667 -20.667 -34.334 -46.334 -53.001 -77.001s-29.667 -52 -33 -64c0 -22.667 3 -42 9 -58
s18.667 -33.667 38 -53v-15l-166 -189c-2 -2.66699 -3.66699 -3.66699 -5 -3s-2 4.33398 -2 11.001l-8 78c0 14 1.83301 27.833 5.5 41.5s9.5 28.834 17.5 45.501l27 67c9.33301 26 14 49.333 14 70c0 22 -5.66699 42 -17 60c-14.667 18 -32.667 31.833 -54 41.5
s-45.333 16.834 -72 21.501c-6.66699 0 -12.667 2.66699 -18 8s-10 10.333 -14 15h-7z" />
    <glyph glyph-name="bar" unicode="|" horiz-adv-x="472" 
d="M87 787c-26 0 -46.9961 -13.0029 -62.9961 -39.0029c-10.667 -7.33301 -17.334 -18.666 -20.001 -33.999s-4 -38 -4 -68v-142c0 -18 6.5 -35.667 19.5 -53s30.167 -26 51.5 -26h252c10.667 0 21 -2.66699 31 -8c4 -4 7.5 -8.5 10.5 -13.5s7.5 -13.5 13.5 -25.5
c2 -8 4 -18.333 6 -31s3 -23.667 3 -33c0 -12 -0.5 -20.667 -1.5 -26s-3.5 -12 -7.5 -20c-16 -22.667 -39.167 -43.667 -69.5 -63l-88.5 -55c-18 -14 -33 -30.833 -45 -50.5s-18 -42.5 -18 -68.5c7.33301 -13.333 18 -23.666 32 -30.999c4 -4 9.66699 -6 17 -6
s14.666 2 21.999 6c13.333 10.667 23.5 34 30.5 70s15.167 60 24.5 72l24 23l71 71c6.66699 6.66699 14.167 14.834 22.5 24.501s13.833 17.167 16.5 22.5c10 36.667 15 75 15 115c0 22 -1.33301 44.167 -4 66.5s-6.33398 45.833 -11.001 70.5
c-9.33301 19.333 -20.333 36 -33 50s-27.667 21 -45 21h-213c-10.667 0 -18.667 0.833008 -24 2.5s-8 6.16699 -8 13.5c-7.33301 12.667 -11 26.667 -11 42c0 16 3.83301 28.667 11.5 38s17.167 15.833 28.5 19.5s24.333 5.5 39 5.5c10 0 19.833 -0.333008 29.5 -1l28.5 -2
c12 -3.33301 34.167 -13.833 66.5 -31.5s58.166 -26.5 77.499 -26.5c7.33301 0 16.666 1.33301 27.999 4s22.666 15.334 33.999 38.001s18.666 35.667 21.999 39s5 6.33301 5 9c0 2 -0.333008 3.66699 -1 5s-4.16699 3.16602 -10.5 5.49902s-12.833 4.33301 -19.5 6
s-13.334 2.5 -20.001 2.5c-5.33301 0 -10.666 -1 -15.999 -3c-15.333 0 -28.833 -10.5 -40.5 -31.5s-19.167 -31.5 -22.5 -31.5c-5.33301 0 -13.166 5.16699 -23.499 15.5s-16.5 17.333 -18.5 21s-5.83301 7.66699 -11.5 12s-14.5 9.5 -26.5 15.5s-27 10.667 -45 14
s-35.333 5 -52 5c-7.33301 0 -14.166 -0.166992 -20.499 -0.5s-19.166 -1.83301 -38.499 -4.5z" />
    <glyph glyph-name="braceright" unicode="}" horiz-adv-x="252" 
d="M63 669c-6.66699 -3.33301 -12.6641 -8.00293 -17.9971 -14.0029s-10 -11.667 -14 -17c-12.667 -30.667 -20.834 -53.5 -24.501 -68.5s-5.5 -30.167 -5.5 -45.5c0 -22 5 -41.167 15 -57.5s25 -29.166 45 -38.499l89 -34c-4.66699 -9.33301 -13.667 -23.333 -27 -42
s-24.666 -36.5 -33.999 -53.5s-15.5 -42.167 -18.5 -75.5s-5.5 -65.666 -7.5 -96.999c-2.66699 -21.333 -5.33398 -53 -8.00098 -95s-5.5 -75.167 -8.5 -99.5s-5 -51.5 -6 -81.5s-1.5 -66.667 -1.5 -110c0 -10.667 5.33301 -16 16 -16h8c22.667 14 41.5 30.333 56.5 49
s22.5 39.334 22.5 62.001c0 24 -1.33301 57.667 -4 101s-4 75 -4 95c0 30 -1 55.333 -3 76s-5 49 -9 85s-6 57 -6 63c0 24.667 4.5 47.667 13.5 69s23.5 42 43.5 62c13.333 16.667 24.166 35.5 32.499 56.5s12.5 42.5 12.5 64.5c0 10.667 -1.66699 22.667 -5 36
c-4 31.333 -24.667 54.333 -62 69c-26 8 -44.333 13.833 -55 17.5s-18.334 9.5 -23.001 17.5c-4 10 -7.33301 17.333 -10 22z" />
    <glyph glyph-name="asciitilde" unicode="~" horiz-adv-x="630" 
d="M8 244l54.999 -38.999c12 31.333 28.667 56.666 50 75.999s48.666 29 81.999 29s67.5 -9.5 102.5 -28.5s64.833 -33 89.5 -42s47 -13.5 67 -13.5c30 0 58.833 10 86.5 30s54.834 52.667 81.501 98l-47 40c-19.333 -32 -40 -55.167 -62 -69.5s-44.667 -21.5 -68 -21.5
c-21.333 0 -40.833 3.5 -58.5 10.5s-42.167 18.167 -73.5 33.5s-55.166 25.5 -71.499 30.5s-33.5 7.5 -51.5 7.5c-32.667 0 -63.667 -11 -93 -33s-59 -58 -89 -108z" />
    <glyph glyph-name="nonbreakingspace" unicode="&#xa0;" horiz-adv-x="500" 
 />
    <glyph glyph-name="exclamdown" unicode="&#xa1;" horiz-adv-x="283" 
d="M142 457c-20.667 0 -37 -6.66797 -49 -20.001s-18 -29 -18 -47c0 -18.667 6.5 -34.5 19.5 -47.5s31.5 -19.5 55.5 -19.5c19.333 0 34.833 6.83301 46.5 20.5s17.5 29.834 17.5 48.501c0 18 -6 33.333 -18 46s-30 19 -54 19zM134 275.999
c0 -40.667 -5.16699 -89.5 -15.5 -146.5l-31.5 -174c-10.667 -59 -16 -107.167 -16 -144.5c0 -30 7.33301 -52.833 22 -68.5s32.334 -23.5 53.001 -23.5c19.333 0 36.666 7 51.999 21s23 33 23 57c0 6 -0.333008 10.667 -1 14c0 34 -5.16699 82.833 -15.5 146.5l-31.5 191.5
c-10.667 64 -16 106.333 -16 127c0 11.333 -3.66699 17 -11 17c-8 0 -12 -5.66699 -12 -17z" />
    <glyph glyph-name="cent" unicode="&#xa2;" 
d="M551 724h-15.999c-9.33301 0 -15.833 -3.33301 -19.5 -10l-11.5 -21l-55 -102c-26 16 -52 27.833 -78 35.5s-51.333 11.5 -76 11.5c-68.667 0 -127.334 -27.333 -176.001 -82s-73 -116 -73 -184c0 -47.333 13 -90 39 -128s66 -67 120 -87l-79 -133l-8.5 -17
c-4.33301 -8.66699 -6.5 -14.334 -6.5 -17.001c0 -4 2.33301 -6 7 -6h24c7.33301 0 15 8 23 24l79 134c26.667 -6.66699 52 -10 76 -10c44.667 0 82.334 9.33301 113.001 28s59.667 41.334 87 68.001c12 16 18 29 18 39c0 5.33301 -2.33301 8 -7 8
c-3.33301 0 -8 -1.83301 -14 -5.5s-15.167 -11.667 -27.5 -24s-30.333 -23.833 -54 -34.5s-48.834 -16 -75.501 -16c-13.333 0 -27 1.33301 -41 4s-28.333 7.33398 -43 14.001l149 252c9.33301 -2 17.333 -3 24 -3c18 0 32.833 4.66699 44.5 14s17.5 21 17.5 35
c0 19.333 -10.333 38 -31 56l63 110c2.66699 3.33301 6.66699 9.66602 12 18.999s8 16 8 20c0 5.33301 -4 8 -12 8zM394.001 496l-158 -268c-28 28.667 -48.5 59.334 -61.5 92.001s-19.5 65 -19.5 97c0 53.333 15.167 98.833 45.5 136.5s66.5 56.5 108.5 56.5
c30.667 0 53.667 -7 69 -21s23 -22.667 23 -26c0 -2 -2.33301 -6.33301 -7 -13s-7 -14.334 -7 -23.001s2.33301 -19 7 -31z" />
    <glyph glyph-name="sterling" unicode="&#xa3;" 
d="M315 118c-29.333 16 -63.002 29.832 -101.002 41.499s-73.333 17.5 -106 17.5c-24.667 0 -45.667 -4 -63 -12s-29.166 -19.167 -35.499 -33.5s-9.5 -28.166 -9.5 -41.499c0 -28.667 13.167 -53.667 39.5 -75s58.5 -32 96.5 -32c22.667 0 46 4.5 70 13.5
s47.333 23.167 70 42.5c7.33301 -12 26.833 -24.167 58.5 -36.5s64.5 -18.5 98.5 -18.5c39.333 0 73.333 10.333 102 31s45.5 44.334 50.5 71.001s7.5 45.334 7.5 56.001c0 29.333 -8.16699 53.666 -24.5 72.999s-32.166 31.5 -47.499 36.5s-29 7.5 -41 7.5
c-11.333 0 -20.5 -2.16699 -27.5 -6.5s-10.5 -9.5 -10.5 -15.5c0 -10.667 8 -16 24 -16c8.66699 0 18.667 2.33301 30 7c23.333 -6 40.5 -14.833 51.5 -26.5s16.5 -24.834 16.5 -39.501c0 -20.667 -11.167 -39.667 -33.5 -57s-50.5 -26 -84.5 -26
c-17.333 0 -35.666 2.5 -54.999 7.5s-39.333 12.833 -60 23.5c10 8 19.667 24.167 29 48.5s14 50.166 14 77.499c0 22.667 -3.16699 43.667 -9.5 63s-17.5 37.666 -33.5 54.999h94c9.33301 0 16.166 0.833008 20.499 2.5s8.16602 6.16699 11.499 13.5l8 16
c0 4.66699 -5.16699 7.16699 -15.5 7.5s-18.5 0.5 -24.5 0.5h-134c-34.667 29.333 -63 61.333 -85 96s-33 68 -33 100c0 20 4.16699 37.667 12.5 53s23.333 29.666 45 42.999s46.167 20 73.5 20c39.333 0 84.333 -18.167 135 -54.5s85.334 -75.166 104.001 -116.499
c6.66699 -12 13 -18 19 -18c4.66699 0 7 3.33301 7 10c0 3.33301 -0.666992 6 -2 8l-87 197c-3.33301 18 -7.33301 27 -12 27c-1.33301 0 -7.33301 -7.66699 -18 -23s-21.667 -21.666 -33 -18.999c-17.333 4.66699 -34 8.16699 -50 10.5s-33 3.5 -51 3.5
c-69.333 0 -127 -19 -173 -57s-69 -85 -69 -141c0 -23.333 4.16699 -46.333 12.5 -69s21.5 -46 39.5 -70h-63c-10.667 0 -16 -2.66699 -16 -8l-8 -24c0 -5.33301 8 -8 24 -8h102l98.5 -71c41 -29.333 61.5 -66.666 61.5 -111.999c0 -17.333 -3.33301 -35 -10 -53z
M259.998 54.999c-18.667 -14.667 -38.667 -25.501 -60 -32.501s-42.666 -10.5 -63.999 -10.5c-30.667 0 -56.834 6.83301 -78.501 20.5s-32.5 30.834 -32.5 51.501c0 8 4 20.167 12 36.5s26.667 24.5 56 24.5c22 0 46.833 -7 74.5 -21s58.5 -37 92.5 -69z" />
    <glyph glyph-name="currency" unicode="&#xa4;" 
d="M102 591l-71.002 62.9971l-31 -32l71 -63c-26.667 -35.333 -46.334 -70 -59.001 -104s-19 -66 -19 -96c0 -31.333 6 -63.166 18 -95.499s32 -65.166 60 -98.499l-63 -63l31 -31l63 63c26 -20 55 -36.667 87 -50s67 -20 105 -20c32.667 0 65.334 5.33301 98.001 16
s67.334 28.667 104.001 54l63 -63l32 31l-63 63c25.333 25.333 44.5 54.333 57.5 87s19.5 67.334 19.5 104.001s-6.5 72.167 -19.5 106.5s-32.167 66.5 -57.5 96.5l63 63l-32 32l-71 -63c-24 21.333 -52.333 38.5 -85 51.5s-67 19.5 -103 19.5
c-34 0 -67.667 -5.66699 -101 -17s-65.666 -29.333 -96.999 -54zM298.998 613.997c80 0 141.667 -23.832 185 -71.499s65 -104.834 65 -171.501c0 -70 -22.833 -131 -68.5 -183s-108.834 -78 -189.501 -78c-79.333 0 -140.333 23.5 -183 70.5s-64 103.833 -64 170.5
c0 70 22.833 131.333 68.5 184s107.834 79 186.501 79z" />
    <glyph glyph-name="yen" unicode="&#xa5;" 
d="M339 362l-95 260c-1.33301 8 -2 14.667 -2 20c0 13.333 3.66699 23.833 11 31.5s22.666 11.5 45.999 11.5c14 0 21 6 21 18c0 9.33301 -7 14 -21 14h-275c-16 -3.33301 -24 -9 -24 -17c0 -10 8 -15 24 -15c15.333 0 32 -4.16699 50 -12.5s33.5 -21.5 46.5 -39.5
s29.333 -49.167 49 -93.5s31.5 -74.5 35.5 -90.5h-71c-30 0 -47 -0.5 -51 -1.5s-8 -5.83301 -12 -14.5l-8 -16c0 -4 2.5 -6.33301 7.5 -7s23.5 -1 55.5 -1h94l24 -63h-118c-14 0 -25.5 -0.166992 -34.5 -0.5s-15.833 -2.5 -20.5 -6.5l-8 -16
c0 -8.66699 5.33301 -13.5 16 -14.5s26.334 -1.5 47.001 -1.5h126v-197c0 -30 -8.16699 -50.667 -24.5 -62s-39.833 -17 -70.5 -17c-19.333 0 -29 -5.33301 -29 -16c0 -4 2.5 -7.5 7.5 -10.5s12.167 -4.5 21.5 -4.5h300c21.333 0 32 4.66699 32 14
c0 11.333 -10.667 17 -32 17c-33.333 0 -57.5 8 -72.5 24s-22.5 37 -22.5 63v189h134h13c13.333 0 21.333 0.333008 24 1s6 3 10 7l8 24c0 3.33301 -1.5 5.33301 -4.5 6s-13.833 1 -32.5 1h-18h-126l24 63h102h16c15.333 0 24.666 0.666992 27.999 2s7 6 11 14l8 16
c0 4.66699 -7.16699 7.16699 -21.5 7.5s-28.166 0.5 -41.499 0.5h-94l63 149c10.667 30 25.5 52 44.5 66s40.833 21 65.5 21c8 0 15 2 21 6s9 8 9 12c0 9.33301 -10 14 -30 14h-205c-12 0 -18 -5.33301 -18 -16s6 -16 18 -16c42.667 0 64 -14 64 -42
c0 -10.667 -3 -23 -9 -37z" />
    <glyph glyph-name="section" unicode="&#xa7;" 
d="M126 457c-30.667 -29.333 -53.165 -57.5059 -67.498 -84.5059s-21.5 -52.5 -21.5 -76.5c0 -46 25.5 -87.167 76.5 -123.5s107.167 -64.166 168.5 -83.499s107 -39.666 137 -60.999s45 -48.666 45 -81.999c0 -15.333 -3.66699 -31.166 -11 -47.499
s-19.333 -34.833 -36 -55.5c-13.333 -14 -31.333 -24.833 -54 -32.5s-47.334 -11.5 -74.001 -11.5c-41.333 0 -76.833 7.83301 -106.5 23.5s-44.5 37.5 -44.5 65.5c0 8.66699 1.16699 16.834 3.5 24.501s3.5 14.167 3.5 19.5c0 12.667 -4.33301 22.5 -13 29.5
s-19.667 10.5 -33 10.5c-12.667 0 -24 -3.66699 -34 -11s-16 -18 -18 -32c-4.66699 -39.333 16 -76.666 62 -111.999s109.333 -53 190 -53c74 0 134.333 23 181 69s70 97.333 70 154c0 52.667 -20.667 93.667 -62 123c26.667 22 47.5 46 62.5 72s22.5 52 22.5 78
c0 40.667 -17.833 78.167 -53.5 112.5s-88 61.833 -157 82.5s-118.167 43.167 -147.5 67.5s-44 48.5 -44 72.5c0 27.333 15.833 50.833 47.5 70.5s67.167 29.5 106.5 29.5c13.333 0 27.833 -1.33301 43.5 -4s29 -9 40 -19s16.5 -26.667 16.5 -50
c0 -14 5.66699 -23.5 17 -28.5s22.666 -7.5 33.999 -7.5c14.667 0 27 4 37 12s15 19.333 15 34c0 33.333 -24.5 58.333 -73.5 75s-92.833 25 -131.5 25c-74.667 0 -134.167 -17.667 -178.5 -53s-66.5 -76.333 -66.5 -123c0 -38 16 -71 48 -99zM165.002 416.994
c21.333 -14.667 63.5 -32.5 126.5 -53.5s111.167 -41.167 144.5 -60.5s50 -45.333 50 -78c0 -26.667 -12.333 -57 -37 -91c-100 43.333 -178.667 78.5 -236 105.5s-86 58.167 -86 93.5c0 13.333 2.83301 26.333 8.5 39s15.5 27.667 29.5 45z" />
    <glyph glyph-name="dieresis" unicode="&#xa8;" horiz-adv-x="496" 
d="M134 693c-21.333 0 -38 -6 -50 -18s-18 -26.333 -18 -43c0 -17.333 6.16699 -32.5 18.5 -45.5s28.833 -19.5 49.5 -19.5c21.333 0 38 6 50 18s18 26.333 18 43c0 17.333 -6.16699 32.5 -18.5 45.5s-28.833 19.5 -49.5 19.5zM354 693
c-19.333 0 -34.834 -6.5 -46.501 -19.5s-17.5 -28.167 -17.5 -45.5c0 -16.667 6 -31 18 -43s30 -18 54 -18c20 0 35.667 6.33301 47 19s17 27.667 17 45c0 18.667 -6.16699 34.167 -18.5 46.5s-30.166 17.5 -53.499 15.5z" />
    <glyph glyph-name="copyright" unicode="&#xa9;" horiz-adv-x="898" 
d="M591 535c-24.667 8.66699 -48.666 15.167 -71.999 19.5s-45.333 6.5 -66 6.5c-70 0 -122.333 -21.167 -157 -63.5s-52 -82.166 -52 -119.499c0 -78.667 19.5 -138 58.5 -178s85.167 -60 138.5 -60c37.333 0 70.666 9.33301 99.999 28s48.333 44 57 76h-31
c-9.33301 -22.667 -23.166 -39.834 -41.499 -51.501s-38.5 -17.5 -60.5 -17.5c-39.333 0 -74.5 15.833 -105.5 47.5s-46.5 73.5 -46.5 125.5c0 4.66699 0.333008 10 1 16l5.5 48c3 26 18.167 52 45.5 78s57.666 39 90.999 39c28.667 0 53 -9.33301 73 -28s30 -44 30 -76h32
v110zM441.001 669c96 0 169.833 -29.667 221.5 -89s77.5 -130.333 77.5 -213c0 -87.333 -28 -163.833 -84 -229.5s-133 -98.5 -231 -98.5c-94 0 -166.333 29.5 -217 88.5s-76 129.833 -76 212.5c0 88 27.5 164.833 82.5 230.5s130.5 98.5 226.5 98.5zM441.001 724
c-118.667 0 -210.001 -35.499 -274.001 -106.499s-96 -155.833 -96 -254.5c0 -101.333 32.333 -189.833 97 -265.5s153 -113.5 265 -113.5c113.333 0 203 38.5 269 115.5s99 167.167 99 270.5c0 97.333 -31.167 180.666 -93.5 249.999s-151.166 104 -266.499 104z" />
    <glyph glyph-name="ordfeminine" unicode="&#xaa;" 
d="M354 606c-65.333 0 -119.837 -9.50098 -163.504 -28.501s-65.5 -46.167 -65.5 -81.5c0 -16 4.5 -32.167 13.5 -48.5s21 -27.5 36 -33.5s31.833 -9 50.5 -9c24.667 0 48.334 5.16699 71.001 15.5s39.334 25.166 50.001 44.499c6 -20 16.5 -35.167 31.5 -45.5
s31.833 -15.5 50.5 -15.5c35.333 0 57.5 8.83301 66.5 26.5s13.5 29.167 13.5 34.5c0 8.66699 -4 13 -12 13s-13.167 -3.83301 -15.5 -11.5s-6.33301 -14 -12 -19s-11.5 -7.5 -17.5 -7.5c-6.66699 0 -12.167 2.83301 -16.5 8.5s-7.5 16.167 -9.5 31.5v174
c2.66699 24.667 -9.16602 44.667 -35.499 60s-58.833 23 -97.5 23c-21.333 0 -40.666 -2 -57.999 -6s-34 -10.667 -50 -20s-27.5 -19.666 -34.5 -30.999s-10.5 -22.666 -10.5 -33.999c0 -22.667 6.33301 -35.167 19 -37.5s21.667 -3.5 27 -3.5
c14.667 0 25.834 4.5 33.501 13.5s11.5 19.167 11.5 30.5c0 2.66699 -0.666992 6.16699 -2 10.5s-2 9.83301 -2 16.5c0 14.667 6.83301 24.5 20.5 29.5s25.5 7.5 35.5 7.5c19.333 0 36.166 -4 50.499 -12s21.5 -18.667 21.5 -32v-63zM353.996 582.999l0.00195312 -47.999
c2.66699 -22.667 -5.83301 -43.5 -25.5 -62.5s-41.167 -28.5 -64.5 -28.5c-11.333 0 -21.333 2.83301 -30 8.5s-14.834 13.167 -18.501 22.5s-5.5 16.666 -5.5 21.999c0 22.667 13.167 42.667 39.5 60s61.166 26 104.499 26zM141.998 346
c-12 0 -21.833 -0.166992 -29.5 -0.5s-13.834 -2.5 -18.501 -6.5l-7 -16c0 -7.33301 4.16699 -11.833 12.5 -13.5s22.5 -2.5 42.5 -2.5h323c14 0 24.5 0.833008 31.5 2.5s12.167 6.16699 15.5 13.5l8 16c0 3.33301 -2.16699 5.33301 -6.5 6s-15.166 1 -32.499 1h-16h-323z
" />
    <glyph glyph-name="guillemotleft" unicode="&#xab;" horiz-adv-x="339" 
d="M165 276c-6.66699 -6 -11.833 -10.8301 -15.5 -14.4971s-5.5 -7.83398 -5.5 -12.501c0 -2.66699 1.16699 -6.16699 3.5 -10.5s8.16602 -10.5 17.499 -18.5l95 -94c18.667 -18.667 31.334 -28 38.001 -28c3.33301 0 4.5 3 3.5 9s-4.5 15 -10.5 27l-63 110l63 110
c6.66699 13.333 10 22.666 10 27.999c0 4.66699 -3.33301 6.16699 -10 4.5s-17 -9.83398 -31 -24.501zM31.001 276.003c-6.66699 -6 -11.833 -10.8301 -15.5 -14.4971s-5.5 -7.83398 -5.5 -12.501c0 -2.66699 1.16699 -6.16699 3.5 -10.5s8.16602 -10.5 17.499 -18.5l95 -94
c18.667 -18.667 31.334 -28 38.001 -28c3.33301 0 4.5 3 3.5 9s-4.5 15 -10.5 27l-63 110l63 110c6.66699 13.333 10 22.666 10 27.999c0 4.66699 -3.33301 6.16699 -10 4.5s-17 -9.83398 -31 -24.501z" />
    <glyph glyph-name="logicalnot" unicode="&#xac;" horiz-adv-x="630" 
d="M520 378v-236h71v307h-552v-71h481z" />
    <glyph glyph-name="registered" unicode="&#xae;" horiz-adv-x="898" 
d="M441 724c-116 0 -206.001 -36.001 -270.001 -108.001s-96 -157.667 -96 -257c0 -101.333 32.333 -189.166 97 -263.499s154.334 -111.5 269.001 -111.5c116.667 0 209.334 38.5 278.001 115.5s103 166.833 103 269.5c0 98 -32.833 181.667 -98.5 251
s-159.834 104 -282.501 104zM440.999 668.999c102 0 181.501 -30.5 238.501 -91.5s85.5 -133.5 85.5 -217.5c0 -86 -29.5 -161 -88.5 -225s-140.167 -96 -243.5 -96c-94.667 0 -167.334 29.167 -218.001 87.5s-76 128.833 -76 211.5c0 88 27.167 165.167 81.5 231.5
s127.833 99.5 220.5 99.5zM323 511.999l0.000976562 -291.999c0 -14.667 -3.5 -24.834 -10.5 -30.501s-16.833 -8.5 -29.5 -8.5c-13.333 0 -20 -4.33301 -20 -13c0 -7.33301 6.66699 -11 20 -11h142c12 0 18 4 18 12s-6 12 -18 12c-10.667 0 -19.834 2.83301 -27.501 8.5
s-11.5 15.834 -11.5 30.501v126c4.66699 0.666992 11 1 19 1c48.667 0 83 -31.667 103 -95s47.667 -95 83 -95h55v24c-27.333 0 -55.833 29.5 -85.5 88.5s-51.167 89.833 -64.5 92.5c31.333 6 56.333 19.667 75 41s28 45 28 71c0 28 -11.333 51.833 -34 71.5
s-56 29.5 -100 29.5h-174c-18 0 -27 -4 -27 -12s6.33301 -12 19 -12c14.667 0 25 -3.33301 31 -10s9 -16.334 9 -29.001zM386.001 512c0 16 2.16699 26.5 6.5 31.5s12.5 7.5 24.5 7.5c42 0 71 -7 87 -21s24 -35.667 24 -65c0 -36 -11 -60.833 -33 -74.5
s-58.333 -20.5 -109 -20.5v142z" />
    <glyph glyph-name="plusminus" unicode="&#xb1;" horiz-adv-x="630" 
 />
    <glyph glyph-name="twosuperior" unicode="&#xb2;" horiz-adv-x="362" 
 />
    <glyph glyph-name="threesuperior" unicode="&#xb3;" horiz-adv-x="362" 
 />
    <glyph glyph-name="acute" unicode="&#xb4;" horiz-adv-x="378" 
d="M63 512h31l166 55c18.667 6.66699 32.167 14.834 40.5 24.501s12.5 21.167 12.5 34.5c0 14.667 -6 27.667 -18 39s-26.667 17 -44 17c-11.333 0 -22.833 -2.83301 -34.5 -8.5s-23.5 -14.834 -35.5 -27.501z" />
    <glyph glyph-name="mu" unicode="&#xb5;" 
 />
    <glyph glyph-name="paragraph" unicode="&#xb6;" 
d="M339 362l-0.00390625 -488c0 -27.333 -13.333 -43.333 -40 -48c-23.333 -2.66699 -41.666 -5 -54.999 -7c-14 0 -21 -6 -21 -18c0 -9.33301 7 -14 21 -14h150v867c0 11.333 2.66699 20 8 26s12 9 20 9c6.66699 0 12.834 -3.16699 18.501 -9.5s8.5 -14.833 8.5 -25.5v-867
h142c15.333 0 23 5.33301 23 16s-7.66699 16 -23 16c-26 0 -47 3.66699 -63 11s-24 22 -24 44v732c0 28 4.83301 49.5 14.5 64.5s33.834 22.5 72.501 22.5c15.333 0 23 5 23 15c0 10.667 -7.66699 16 -23 16h-363c-69.333 0 -124.833 -18.167 -166.5 -54.5
s-62.5 -79.166 -62.5 -128.499c0 -50.667 22.833 -93.834 68.5 -129.501s112.834 -53.5 201.501 -53.5h33c16.667 2 29 3.33301 37 4zM338.996 386l-71.001 0.000976562c-45.333 0 -80 15.833 -104 47.5s-36 69.167 -36 112.5c0 39.333 9.83301 73.666 29.5 102.999
s45.834 44 78.501 44c31.333 0 56.333 -4.5 75 -13.5s28 -30.833 28 -65.5v-228z" />
    <glyph glyph-name="periodcentered" unicode="&#xb7;" horiz-adv-x="299" 
d="M276 551c-57.333 0 -102.333 -19.168 -135 -57.501s-49 -83.166 -49 -134.499c0 -49.333 15.167 -91.333 45.5 -126s73.833 -52 130.5 -52c63.333 0 112.333 18.167 147 54.5s52 79.833 52 130.5c0 50 -17 93.333 -51 130s-80.667 55 -140 55z" />
    <glyph glyph-name="periodcentered" unicode="&#x2219;" horiz-adv-x="299" 
d="M276 551c-57.333 0 -102.333 -19.168 -135 -57.501s-49 -83.166 -49 -134.499c0 -49.333 15.167 -91.333 45.5 -126s73.833 -52 130.5 -52c63.333 0 112.333 18.167 147 54.5s52 79.833 52 130.5c0 50 -17 93.333 -51 130s-80.667 55 -140 55z" />
    <glyph glyph-name="cedilla" unicode="&#xb8;" horiz-adv-x="315" 
d="M102 0l-0.00195312 -87.001c14 4 25.667 6 35 6c14.667 0 25.5 -2.83301 32.5 -8.5s10.5 -13.167 10.5 -22.5s-3.83301 -17.5 -11.5 -24.5s-18.167 -10.5 -31.5 -10.5c-9.33301 0 -17.166 1.16699 -23.499 3.5s-13.166 3.5 -20.499 3.5c-14 0 -21 -3.66699 -21 -11
c0 -4.66699 5.16699 -9.66699 15.5 -15s30.833 -8 61.5 -8c20 0 37.5 2.33301 52.5 7s26 12.5 33 23.5s10.5 21.833 10.5 32.5c0 14.667 -5.5 26.834 -16.5 36.501s-27.5 14.5 -49.5 14.5c-9.33301 0 -19 -1 -29 -3v63h-48z" />
    <glyph glyph-name="onesuperior" unicode="&#xb9;" horiz-adv-x="362" 
 />
    <glyph glyph-name="ordmasculine" unicode="&#xba;" 
d="M307 724c-52.667 0 -94.834 -17.168 -126.501 -51.501s-47.5 -74.166 -47.5 -119.499c0 -44 14.833 -81.5 44.5 -112.5s72.834 -46.5 129.501 -46.5s100 15 130 45s45 66.667 45 110c0 46 -16 86.667 -48 122s-74.333 53 -127 53zM307 700.999
c29.333 0 53 -15.333 71 -46s27 -66 27 -106c0 -37.333 -8.33301 -68.666 -25 -93.999s-41 -38 -73 -38c-35.333 0 -61.833 12.5 -79.5 37.5s-26.5 56.167 -26.5 93.5c0 39.333 9.83301 74.666 29.5 105.999s45.167 47 76.5 47zM150 338.999
c-12 0 -24.501 -0.166992 -37.501 -0.5s-21.5 -2.83301 -25.5 -7.5l-8 -16c-2 -6.66699 -1.16699 -11.167 2.5 -13.5s10.834 -3.5 21.501 -3.5h22c8 0 16.333 0.333008 25 1h315c16.667 0 30 0.5 40 1.5s15 3.16699 15 6.5l8 16c3.33301 7.33301 2.5 11.833 -2.5 13.5
s-14.833 2.5 -29.5 2.5h-346z" />
    <glyph glyph-name="guillemotright" unicode="&#xbb;" horiz-adv-x="339" 
d="M236 252l-55.001 -110c-8 -14 -12 -23 -12 -27l10 -2c6.66699 3.33301 15.334 10.333 26.001 21l94 86c16.667 12.667 25 21 25 25s-5.66699 11.667 -17 23l-102 110c-14.667 14.667 -25 22 -31 22c-3.33301 0 -4.5 -3.16699 -3.5 -9.5s4.5 -15.833 10.5 -28.5z
M101.999 252l-55.001 -109.999c-7.33301 -12 -11 -21 -11 -27c2.66699 -0.666992 5.66699 -1.33398 9 -2.00098c6.66699 3.33301 15.334 10.333 26.001 21l94 86c16.667 12.667 25 21 25 25s-5.66699 11.667 -17 23l-102 110c-14.667 14.667 -25 22 -31 22
c-3.33301 0 -4.5 -3.16699 -3.5 -9.5s4.5 -15.833 10.5 -28.5z" />
    <glyph glyph-name="onequarter" unicode="&#xbc;" horiz-adv-x="906" 
 />
    <glyph glyph-name="onehalf" unicode="&#xbd;" horiz-adv-x="906" 
 />
    <glyph glyph-name="threequarters" unicode="&#xbe;" horiz-adv-x="906" 
 />
    <glyph glyph-name="questiondown" unicode="&#xbf;" 
d="M339 457c-20.667 0 -37 -6.66699 -49 -20s-18 -29 -18 -47c0 -18.667 6.16699 -34.5 18.5 -47.5s30.833 -19.5 55.5 -19.5c19.333 0 34.833 7 46.5 21s17.5 30.333 17.5 49c0 18 -5.83301 33.167 -17.5 45.5s-29.5 18.5 -53.5 18.5zM323 268v-87.002
c-3.33301 -30.667 -34.833 -58.5 -94.5 -83.5s-98.5 -42.833 -116.5 -53.5s-33.333 -28.334 -46 -53.001s-19 -51.667 -19 -81c0 -46 16.5 -87.5 49.5 -124.5s67.833 -58 104.5 -63s60.5 -7.83301 71.5 -8.5s21.167 -1 30.5 -1c76 0 139.5 21.667 190.5 65
s76.5 90.666 76.5 141.999c0 20 -3.83301 37.833 -11.5 53.5s-19.667 29.334 -36 41.001s-31.833 17.5 -46.5 17.5c-20.667 0 -38.334 -9.16699 -53.001 -27.5s-22 -38.166 -22 -59.499c0 -14 4 -25.333 12 -34s20 -13 36 -13c2.66699 25.333 11 38 25 38
c8 0 15.5 -5 22.5 -15s10.5 -22 10.5 -36c0 -5.33301 -2.66699 -18.166 -8 -38.499s-24.166 -43.166 -56.499 -68.499s-69.5 -38 -111.5 -38c-51.333 0 -88.833 15.167 -112.5 45.5s-35.5 67.166 -35.5 110.499c0 24.667 3.33301 47.334 10 68.001s15.667 38 27 52l97.5 83
c25 21.333 37.5 47.666 37.5 78.999c-0.666992 4.66699 -1 8.33398 -1 11.001v79c0 17.333 -5.66699 26 -17 26c-9.33301 0 -14 -8.66699 -14 -26z" />
    <glyph glyph-name="Agrave" unicode="&#xc0;" horiz-adv-x="709" 
d="M260 638c7.33301 -2.66699 14.6689 -5.50293 22.002 -8.50293s11 -8.16699 11 -15.5s-3.33301 -17.666 -10 -30.999l-173 -449c-14.667 -36.667 -33.834 -63 -57.501 -79s-49.167 -24 -76.5 -24c-21.333 0 -32 -4.66699 -32 -14c0 -11.333 10.667 -17 32 -17h252
c14 0 21 4.66699 21 14c0 11.333 -7 17 -21 17c-28 0 -49.667 3.83301 -65 11.5s-23 22.167 -23 43.5c0 14 3.33301 30 10 48l47 126h244l55 -166c2 -6 3 -11.333 3 -16c0 -16 -9.5 -27.833 -28.5 -35.5s-41.833 -11.5 -68.5 -11.5c-24 0 -36 -4.66699 -36 -14
c0 -5.33301 3.83301 -9.5 11.5 -12.5s15.834 -4.5 24.501 -4.5h338c20 0 30 5 30 15c0 10.667 -10 16 -30 16c-28.667 0 -54.834 7.83301 -78.501 23.5s-39.5 36.834 -47.5 63.501l-212 583c-2 10.667 -4.5 18.834 -7.5 24.501s-7.83301 8.5 -14.5 8.5
c-5.33301 0 -11.333 -3.33301 -18 -10c-10 -17.333 -25.833 -30.833 -47.5 -40.5s-39.834 -14.5 -54.501 -14.5c-14.667 -2.66699 -22 -7.66699 -22 -15c0 -4.66699 2.83301 -8.5 8.5 -11.5s10.167 -4.5 13.5 -4.5zM433.003 282.997h-228l110 315zM260.003 834.997
l165 -63.001c19.333 -6.66699 33 -10 41 -10c6 0 9 2 9 6s-2.66699 9.33301 -8 16s-11.333 13 -18 19l-103 103c-8.66699 10.667 -17.667 18.5 -27 23.5s-19 7.5 -29 7.5c-16 0 -30 -6 -42 -18s-18 -25.667 -18 -41c0 -19.333 10 -33.666 30 -42.999z" />
    <glyph glyph-name="Aacute" unicode="&#xc1;" horiz-adv-x="709" 
d="M252 638l22.5029 -8.50195c7.66699 -3 11.5 -8.5 11.5 -16.5c0 -6.66699 -3.33301 -16.667 -10 -30l-174 -449c-14.667 -36.667 -33.834 -63 -57.501 -79s-48.834 -24 -75.501 -24c-22 0 -33 -5 -33 -15c0 -10.667 11 -16 33 -16h251c14 0 21 4.66699 21 14
c0 11.333 -7 17 -21 17c-28 0 -49.667 3.83301 -65 11.5s-23 22.167 -23 43.5c0 14 3.33301 30 10 48l47 126h244l55 -166c2 -6 3 -11.333 3 -16c0 -16 -9.5 -27.833 -28.5 -35.5s-41.833 -11.5 -68.5 -11.5c-24 0 -36 -4.66699 -36 -14c0 -4 3.5 -7.83301 10.5 -11.5
s15.5 -5.5 25.5 -5.5h338c20 0 30 5 30 15c0 10.667 -10 16 -30 16c-28.667 0 -54.834 7.83301 -78.501 23.5s-39.5 36.834 -47.5 63.501l-212 583c-2 10.667 -4.5 18.834 -7.5 24.501s-7.83301 8.5 -14.5 8.5c-5.33301 0 -11.333 -3.33301 -18 -10
c-10.667 -18 -26.5 -31.667 -47.5 -41s-39.167 -14 -54.5 -14c-14 -2.66699 -21 -7.66699 -21 -15c0 -4.66699 2.5 -8.5 7.5 -11.5s9.5 -4.5 13.5 -4.5zM425.003 282.998h-228l110 315zM220.003 763.998h31.999l165 55c18.667 6.66699 32.167 14.834 40.5 24.501
s12.5 21.167 12.5 34.5c0 14.667 -6 27.667 -18 39s-26.667 17 -44 17c-11.333 0 -22.666 -2.83301 -33.999 -8.5s-23 -14.834 -35 -27.501z" />
    <glyph glyph-name="Acircumflex" unicode="&#xc2;" horiz-adv-x="709" 
d="M252 638l22.5029 -8.50195c7.66699 -3 11.5 -8.5 11.5 -16.5c0 -6.66699 -3.33301 -16.667 -10 -30l-174 -449c-14.667 -36.667 -33.834 -63 -57.501 -79s-48.834 -24 -75.501 -24c-22 0 -33 -5 -33 -15c0 -10.667 11 -16 33 -16h251c14 0 21 4.66699 21 14
c0 11.333 -7 17 -21 17c-28 0 -49.667 3.83301 -65 11.5s-23 22.167 -23 43.5c0 14 3.33301 30 10 48l47 126h244l55 -166c2 -6 3 -11.333 3 -16c0 -16 -9.5 -27.833 -28.5 -35.5s-41.833 -11.5 -68.5 -11.5c-24 0 -36 -4.66699 -36 -14c0 -4 3.5 -7.83301 10.5 -11.5
s15.5 -5.5 25.5 -5.5h338c20 0 30 5 30 15c0 10.667 -10 16 -30 16c-28.667 0 -54.834 7.83301 -78.501 23.5s-39.5 36.834 -47.5 63.501l-212 583c-2 10.667 -4.5 18.834 -7.5 24.501s-7.83301 8.5 -14.5 8.5c-5.33301 0 -11.333 -3.33301 -18 -10
c-10.667 -18 -26.5 -31.667 -47.5 -41s-39.167 -14 -54.5 -14c-14 -2.66699 -21 -7.66699 -21 -15c0 -4.66699 2.5 -8.5 7.5 -11.5s9.5 -4.5 13.5 -4.5zM425.003 282.998h-228l110 315zM157.003 802.998c-7.33301 -7.33301 -10.999 -13.334 -10.999 -18.001
c0 -4 3.33301 -6 10 -6c12.667 0 26.334 5.33301 41.001 16l157 87l158 -95c14.667 -8.66699 26 -13 34 -13c4.66699 0 6.16699 2.66699 4.5 8s-6.83398 12.333 -15.501 21l-157 158c-6 6.66699 -10.833 11.834 -14.5 15.501s-7.83398 5.5 -12.501 5.5
c-4 0 -8.16699 -1.5 -12.5 -4.5s-9.5 -8.5 -15.5 -16.5z" />
    <glyph glyph-name="Atilde" unicode="&#xc3;" horiz-adv-x="709" 
d="M252 638l22.5029 -8.50195c7.66699 -3 11.5 -8.5 11.5 -16.5c0 -6.66699 -3.33301 -16.667 -10 -30l-174 -449c-14.667 -36.667 -33.834 -63 -57.501 -79s-48.834 -24 -75.501 -24c-22 0 -33 -5 -33 -15c0 -10.667 11 -16 33 -16h251c14 0 21 4.66699 21 14
c0 11.333 -7 17 -21 17c-28 0 -49.667 3.83301 -65 11.5s-23 22.167 -23 43.5c0 14 3.33301 30 10 48l47 126h244l55 -166c2 -6 3 -11.333 3 -16c0 -16 -9.5 -27.833 -28.5 -35.5s-41.833 -11.5 -68.5 -11.5c-24 0 -36 -4.66699 -36 -14c0 -4 3.5 -7.83301 10.5 -11.5
s15.5 -5.5 25.5 -5.5h338c20 0 30 5 30 15c0 10.667 -10 16 -30 16c-28.667 0 -54.834 7.83301 -78.501 23.5s-39.5 36.834 -47.5 63.501l-212 583c-2 10.667 -4.5 18.834 -7.5 24.501s-7.83301 8.5 -14.5 8.5c-5.33301 0 -11.333 -3.33301 -18 -10
c-10.667 -18 -26.5 -31.667 -47.5 -41s-39.167 -14 -54.5 -14c-14 -2.66699 -21 -7.66699 -21 -15c0 -4.66699 2.5 -8.5 7.5 -11.5s9.5 -4.5 13.5 -4.5zM425.003 282.998h-228l110 315zM220.003 857.998c-6.66699 -12.667 -9.99902 -21.667 -9.99902 -27s2.66699 -8 8 -8
c4 0 10.333 4.33301 19 13s19.334 13 32.001 13c16 0 47 -12.667 93 -38c8.66699 -3.33301 18 -5 28 -5c22.667 0 45.5 7.16699 68.5 21.5s38.5 30 46.5 47s12 28.833 12 35.5c0 9.33301 -3.33301 14 -10 14c-4.66699 0 -8.33398 -3.66699 -11.001 -11
c-6 -11.333 -12.833 -19.5 -20.5 -24.5s-16.834 -7.5 -27.501 -7.5c-13.333 0 -27.333 3.33301 -42 10c-15.333 8.66699 -30 15.667 -44 21s-29.333 8 -46 8c-33.333 0 -65.333 -20.667 -96 -62z" />
    <glyph glyph-name="Adieresis" unicode="&#xc4;" horiz-adv-x="709" 
d="M260 638c7.33301 -2.66699 14.6689 -5.50293 22.002 -8.50293s11 -8.16699 11 -15.5s-3.33301 -17.666 -10 -30.999l-173 -449c-14.667 -36.667 -33.834 -63 -57.501 -79s-49.167 -24 -76.5 -24c-21.333 0 -32 -4.66699 -32 -14c0 -11.333 10.667 -17 32 -17h252
c14 0 21 4.66699 21 14c0 11.333 -7 17 -21 17c-28 0 -49.667 3.83301 -65 11.5s-23 22.167 -23 43.5c0 14 3.33301 30 10 48l47 126h244l55 -166c2 -6 3 -11.333 3 -16c0 -16 -9.5 -27.833 -28.5 -35.5s-41.833 -11.5 -68.5 -11.5c-24 0 -36 -4.66699 -36 -14
c0 -5.33301 3.83301 -9.5 11.5 -12.5s15.834 -4.5 24.501 -4.5h338c20 0 30 5 30 15c0 10.667 -10 16 -30 16c-28.667 0 -54.834 7.83301 -78.501 23.5s-39.5 36.834 -47.5 63.501l-212 583c-2 10.667 -4.5 18.834 -7.5 24.501s-7.83301 8.5 -14.5 8.5
c-5.33301 0 -11.333 -3.33301 -18 -10c-10 -17.333 -25.833 -30.833 -47.5 -40.5s-39.834 -14.5 -54.501 -14.5c-14.667 -2.66699 -22 -7.66699 -22 -15c0 -4.66699 2.83301 -8.5 8.5 -11.5s10.167 -4.5 13.5 -4.5zM433.003 282.997h-228l110 315zM252.003 960.997
c-21.333 0 -38 -6 -50 -18s-18 -26.333 -18 -43c0 -17.333 6.16699 -32.5 18.5 -45.5s28.833 -19.5 49.5 -19.5c21.333 0 38 6 50 18s18 26.333 18 43c0 17.333 -6.16699 32.5 -18.5 45.5s-28.833 19.5 -49.5 19.5zM472.003 960.997c-19.333 0 -34.834 -6.5 -46.501 -19.5
s-17.5 -28.167 -17.5 -45.5c0 -16.667 6 -31 18 -43s30 -18 54 -18c20 0 35.667 6.33301 47 19s17 27.667 17 45c0 18.667 -6.16699 34.167 -18.5 46.5s-30.166 17.5 -53.499 15.5z" />
    <glyph glyph-name="Aring" unicode="&#xc5;" horiz-adv-x="709" 
d="M268 630c7.33301 -2.66699 14.667 -5.5 22 -8.5s11 -8.16699 11 -15.5s-3.33301 -17.666 -10 -30.999l-173 -449c-14 -36 -33.167 -62 -57.5 -78s-49.833 -24 -76.5 -24c-21.333 0 -32 -5 -32 -15c0 -11.333 10.667 -17 32 -17h252c14 0 21 4.66699 21 14
c0 4.66699 -1.83301 8.83398 -5.5 12.501s-8.83398 5.5 -15.501 5.5c-28.667 0 -50.667 3.83301 -66 11.5s-23 22.167 -23 43.5c0 13.333 3.33301 29 10 47l48 126h244l55 -165c2 -6 3 -11.333 3 -16c0 -16 -9.66699 -27.833 -29 -35.5s-42.333 -11.5 -69 -11.5
c-24 0 -36 -4.66699 -36 -14c0 -4 3.5 -8 10.5 -12s15.5 -6 25.5 -6h339c19.333 0 29 5.33301 29 16s-9.66699 16 -29 16c-29.333 0 -55.666 7.5 -78.999 22.5s-39 36.167 -47 63.5l-213 583c-1.33301 7.33301 -3.33301 14.666 -6 21.999s-7.66699 11 -15 11
c-6 0 -12 -3 -18 -9c-10.667 -18 -26.5 -31.833 -47.5 -41.5s-39.167 -14.5 -54.5 -14.5c-14.667 -2.66699 -22 -7.33398 -22 -14.001c0 -4.66699 2.33301 -8.66699 7 -12s9.66699 -5 15 -5zM441.001 276h-228l110 315zM378.001 953c-24.667 0 -44.667 -8.33105 -60 -24.998
s-23 -36 -23 -58c0 -20.667 7 -38.334 21 -53.001s34.667 -22 62 -22c25.333 0 45 7.66699 59 23s21 33.333 21 54c0 21.333 -7.16699 40.166 -21.5 56.499s-33.833 24.5 -58.5 24.5zM378.001 921.002c14.667 0 26.167 -4.83203 34.5 -14.499s12.5 -20.5 12.5 -32.5
c0 -12.667 -4 -23.667 -12 -33s-19.667 -14 -35 -14c-17.333 0 -30.5 4.16699 -39.5 12.5s-13.5 18.5 -13.5 30.5c0 13.333 4.83301 25.166 14.5 35.499s22.5 15.5 38.5 15.5z" />
    <glyph glyph-name="AE" unicode="&#xc6;" horiz-adv-x="1094" 
d="M535 677l-409 -526.999c-30 -37.333 -62.5 -66.5 -97.5 -87.5s-65.5 -31.5 -91.5 -31.5c-12 0 -18 -5.33301 -18 -16c0 -10 6 -15 18 -15h323c17.333 0 26 4.66699 26 14c0 4 -2.5 7.83301 -7.5 11.5s-11.167 5.5 -18.5 5.5c-24 0 -48.667 4.83301 -74 14.5
s-38 26.5 -38 50.5c0 17.333 8.33301 37.666 25 60.999l150 197h220v-244c3.33301 -30 -4.66699 -48.5 -24 -55.5s-45.5 -13.333 -78.5 -19s-49.5 -12.167 -49.5 -19.5c0 -10.667 6 -16 18 -16h410c38.667 -0 71 -5.16699 97 -15.5s41.167 -24.5 45.5 -42.5
s10.166 -27 17.499 -27s14.333 10 21 30l110 236c4.66699 10 2 15 -8 15c-7.33301 0 -15.833 -15.167 -25.5 -45.5s-38 -58 -85 -83s-98.833 -37.5 -155.5 -37.5c-50 0 -92.833 9 -128.5 27s-53.5 41 -53.5 69v228h133c42 0 73.5 -9.5 94.5 -28.5s31.5 -51.5 31.5 -97.5
c0 -11.333 4 -17 12 -17s12 5.66699 12 17v276c0 14 -4.33301 21 -13 21c-7.33301 0 -11 -7 -11 -21c0 -38 -9.5 -67.167 -28.5 -87.5s-51.5 -30.5 -97.5 -30.5h-133v189c0 28.667 10.667 51.5 32 68.5s47.333 25.5 78 25.5c62.667 0 119.5 -12.333 170.5 -37
s88.5 -57 112.5 -97c8 -15.333 16 -23 24 -23c3.33301 0 5 2.33301 5 7s-1.66699 10 -5 16l-63 174c-3.33301 12 -7.16602 20.833 -11.499 26.5s-7.83301 8.5 -10.5 8.5c-6.66699 0 -10 -4 -10 -12c-4 -9.33301 -13.333 -17 -28 -23s-38.334 -9 -71.001 -9h-22.5
c-7 0 -13.5 0.333008 -19.5 1h-229c-10 0.666992 -17.667 1 -23 1c-10 0 -18.667 -1.66699 -26 -5s-14.666 -10 -21.999 -20zM543 646.001v-260h-197z" />
    <glyph glyph-name="Ccedilla" unicode="&#xc7;" horiz-adv-x="732" 
d="M323 -8l-7.99902 -79.002c10.667 1.33301 18 2 22 2c16.667 0 29.5 -3.33301 38.5 -10s13.5 -14.667 13.5 -24c0 -10 -4.16699 -18.167 -12.5 -24.5s-20.166 -9.5 -35.499 -9.5c-7.33301 0 -14.166 0.666992 -20.499 2s-11.5 2 -15.5 2c-13.333 0 -20 -4.33301 -20 -13
c0 -3.33301 2.66699 -6.83301 8 -10.5s13.333 -6.5 24 -8.5s21.667 -3 33 -3c32 0 57.833 7 77.5 21s29.5 29.667 29.5 47c0 15.333 -7.83301 28 -23.5 38s-39.5 15 -71.5 15v47c22 -2 42.333 -3 61 -3c85.333 0 147.666 16.167 186.999 48.5s66.166 63 80.499 92
s21.5 45.5 21.5 49.5c0 10.667 -5 16 -15 16c-4.66699 0 -9.66699 -2.66699 -15 -8s-12 -20.333 -20 -45s-35.167 -51.167 -81.5 -79.5s-96.833 -42.5 -151.5 -42.5c-74.667 0 -137.334 29 -188.001 87s-76 151 -76 279c0 114 19.5 196.333 58.5 247s89.5 76 151.5 76
c57.333 0 114 -18.167 170 -54.5s89.667 -69.166 101 -98.499s21.333 -44 30 -44c2.66699 0 5.5 2 8.5 6s3.16699 10 0.5 18l-79 212c-4 18.667 -10 28 -18 28c-4.66699 0 -9 -6.66699 -13 -20c-2.66699 -13.333 -8.5 -22.666 -17.5 -27.999s-20.833 -8 -35.5 -8
c-11.333 0 -36 3.33301 -74 10s-64 10 -78 10c-105.333 0 -187.833 -37.167 -247.5 -111.5s-89.5 -162.166 -89.5 -263.499c0 -91.333 25 -171.833 75 -241.5s121.667 -110.834 215 -123.501z" />
    <glyph glyph-name="Egrave" unicode="&#xc8;" horiz-adv-x="709" 
d="M142 606l0.000976562 -464.001c0 -34 -11.167 -59.667 -33.5 -77s-50.5 -26 -84.5 -26c-18 0 -27 -5.66699 -27 -17c0 -9.33301 9 -14 27 -14h362c51.333 0 94.833 -3 130.5 -9s55.167 -21.333 58.5 -46c0 -16 3.33301 -24 10 -24c9.33301 0 16.333 8 21 24l111 252
c1.33301 2.66699 2.33301 5.83398 3 9.50098s1 6.5 1 8.5c0 8 -3.33301 12 -10 12c-9.33301 0 -22.666 -17.5 -39.999 -52.5s-52.333 -68.5 -105 -100.5s-105.334 -48 -158.001 -48c-43.333 0 -78.833 11 -106.5 33s-41.5 54.667 -41.5 98v213h134
c38 0 67.167 -12.167 87.5 -36.5s30.5 -56.833 30.5 -97.5c0 -19.333 5.33301 -29 16 -29c10 0 15 9.66699 15 29v268c0 22 -5 33 -15 33c-10.667 0 -16 -8.33301 -16 -25c-4 -42 -15.333 -71 -34 -87s-46.667 -24 -84 -24h-134v197c0 33.333 9.5 56.166 28.5 68.499
s46.167 18.5 81.5 18.5c47.333 0 96.666 -12.333 147.999 -37s88 -52 110 -82s36 -45 42 -45c2.66699 0 4 2.33301 4 7c0 6.66699 -1.66699 14.334 -5 23.001l-71 181c-8 18.667 -15 28 -21 28c-5.33301 0 -10.666 -5.5 -15.999 -16.5s-15.333 -18.333 -30 -22
s-39.334 -5.5 -74.001 -5.5h-441c-16 0 -24 -6.66699 -24 -20c0 -12.667 8 -19 24 -19c40 0 71 -4.33301 93 -13s33 -30.667 33 -66zM260.001 834.999l165 -63.001c19.333 -6.66699 33 -10 41 -10c6 0 9 2 9 6s-2.66699 9.33301 -8 16s-11.333 13 -18 19l-103 103
c-8.66699 10.667 -17.667 18.5 -27 23.5s-19 7.5 -29 7.5c-16 0 -30 -6 -42 -18s-18 -25.667 -18 -41c0 -19.333 10 -33.666 30 -42.999z" />
    <glyph glyph-name="Eacute" unicode="&#xc9;" horiz-adv-x="709" 
d="M150 606v-463.999c0 -33.333 -11.333 -58.833 -34 -76.5s-51 -26.5 -85 -26.5c-17.333 0 -26 -5.66699 -26 -17c0 -9.33301 8.66699 -14 26 -14h363c51.333 0 94.833 -3 130.5 -9s55.167 -21.333 58.5 -46c0 -16 3.33301 -24 10 -24c9.33301 0 16.333 8 21 24l110 252
c2.66699 7.33301 4 13.666 4 18.999c0 8 -3 12 -9 12c-9.33301 0 -22.666 -17.667 -39.999 -53s-52.333 -69 -105 -101s-105.334 -48 -158.001 -48c-43.333 0 -78.833 11 -106.5 33s-41.5 54.667 -41.5 98v213h134c38 0 67.167 -12.167 87.5 -36.5s30.5 -56.833 30.5 -97.5
c0 -19.333 5.33301 -29 16 -29c10 0 15 9.66699 15 29v268c0 22 -5 33 -15 33c-10.667 0 -16 -8.33301 -16 -25c-4 -42 -15.333 -71 -34 -87s-46.667 -24 -84 -24h-134v197c0 33.333 9.5 56.166 28.5 68.499s46.167 18.5 81.5 18.5c47.333 0 96.666 -12.333 147.999 -37
s88 -52 110 -82s36 -45 42 -45c2.66699 0 4 2.33301 4 7c0 6.66699 -1.66699 14.334 -5 23.001l-71 181c-8 18.667 -15 28 -21 28c-5.33301 0 -10.666 -5.5 -15.999 -16.5s-15.5 -18.333 -30.5 -22s-39.5 -5.5 -73.5 -5.5h-441c-16 0 -24 -6.66699 -24 -20
c0 -12.667 8 -19 24 -19c40 0 71 -4.33301 93 -13s33 -30.667 33 -66zM228 764.001h32l165 55c18.667 6.66699 32.167 14.834 40.5 24.501s12.5 21.167 12.5 34.5c0 14.667 -6 27.667 -18 39s-26.667 17 -44 17c-11.333 0 -22.833 -2.83301 -34.5 -8.5
s-23.5 -14.834 -35.5 -27.501z" />
    <glyph glyph-name="Ecircumflex" unicode="&#xca;" horiz-adv-x="709" 
d="M150 606v-463.999c0 -33.333 -11.333 -58.833 -34 -76.5s-51 -26.5 -85 -26.5c-17.333 0 -26 -5.66699 -26 -17c0 -9.33301 8.66699 -14 26 -14h363c51.333 0 94.833 -3 130.5 -9s55.167 -21.333 58.5 -46c0 -16 3.33301 -24 10 -24c9.33301 0 16.333 8 21 24l110 252
c2.66699 7.33301 4 13.666 4 18.999c0 8 -3 12 -9 12c-9.33301 0 -22.666 -17.667 -39.999 -53s-52.333 -69 -105 -101s-105.334 -48 -158.001 -48c-43.333 0 -78.833 11 -106.5 33s-41.5 54.667 -41.5 98v213h134c38 0 67.167 -12.167 87.5 -36.5s30.5 -56.833 30.5 -97.5
c0 -19.333 5.33301 -29 16 -29c10 0 15 9.66699 15 29v268c0 22 -5 33 -15 33c-10.667 0 -16 -8.33301 -16 -25c-4 -42 -15.333 -71 -34 -87s-46.667 -24 -84 -24h-134v197c0 33.333 9.5 56.166 28.5 68.499s46.167 18.5 81.5 18.5c47.333 0 96.666 -12.333 147.999 -37
s88 -52 110 -82s36 -45 42 -45c2.66699 0 4 2.33301 4 7c0 6.66699 -1.66699 14.334 -5 23.001l-71 181c-8 18.667 -15 28 -21 28c-5.33301 0 -10.666 -5.5 -15.999 -16.5s-15.5 -18.333 -30.5 -22s-39.5 -5.5 -73.5 -5.5h-441c-16 0 -24 -6.66699 -24 -20
c0 -12.667 8 -19 24 -19c40 0 71 -4.33301 93 -13s33 -30.667 33 -66zM165 787.001c-7.33301 -7.33301 -11 -13.333 -11 -18c0 -4 3.33301 -6 10 -6c12 0 25.667 5.66699 41 17l157 86l158 -94c14.667 -9.33301 26 -14 34 -14c4.66699 0 6.16699 2.66699 4.5 8
s-6.83398 12.333 -15.501 21l-157 158l-13.5 14c-4.33301 4.66699 -8.83301 7 -13.5 7c-7.33301 0 -16.666 -7 -27.999 -21z" />
    <glyph glyph-name="Edieresis" unicode="&#xcb;" horiz-adv-x="709" 
d="M142 606l0.000976562 -464.001c0 -34 -11.167 -59.667 -33.5 -77s-50.5 -26 -84.5 -26c-18 0 -27 -5.66699 -27 -17c0 -9.33301 9 -14 27 -14h362c51.333 0 94.833 -3 130.5 -9s55.167 -21.333 58.5 -46c0 -16 3.33301 -24 10 -24c9.33301 0 16.333 8 21 24l111 252
c1.33301 2.66699 2.33301 5.83398 3 9.50098s1 6.5 1 8.5c0 8 -3.33301 12 -10 12c-9.33301 0 -22.666 -17.5 -39.999 -52.5s-52.333 -68.5 -105 -100.5s-105.334 -48 -158.001 -48c-43.333 0 -78.833 11 -106.5 33s-41.5 54.667 -41.5 98v213h134
c38 0 67.167 -12.167 87.5 -36.5s30.5 -56.833 30.5 -97.5c0 -19.333 5.33301 -29 16 -29c10 0 15 9.66699 15 29v268c0 22 -5 33 -15 33c-10.667 0 -16 -8.33301 -16 -25c-4 -42 -15.333 -71 -34 -87s-46.667 -24 -84 -24h-134v197c0 33.333 9.5 56.166 28.5 68.499
s46.167 18.5 81.5 18.5c47.333 0 96.666 -12.333 147.999 -37s88 -52 110 -82s36 -45 42 -45c2.66699 0 4 2.33301 4 7c0 6.66699 -1.66699 14.334 -5 23.001l-71 181c-8 18.667 -15 28 -21 28c-5.33301 0 -10.666 -5.5 -15.999 -16.5s-15.333 -18.333 -30 -22
s-39.334 -5.5 -74.001 -5.5h-441c-16 0 -24 -6.66699 -24 -20c0 -12.667 8 -19 24 -19c40 0 71 -4.33301 93 -13s33 -30.667 33 -66zM236.001 936.999c-21.333 0 -38 -6 -50 -18s-18 -26.333 -18 -43c0 -17.333 6.16699 -32.5 18.5 -45.5s28.833 -19.5 49.5 -19.5
c21.333 0 38 6 50 18s18 26.333 18 43c0 17.333 -6.16699 32.5 -18.5 45.5s-28.833 19.5 -49.5 19.5zM457.001 936.999c-19.333 0 -34.832 -6.5 -46.499 -19.5s-17.5 -28.167 -17.5 -45.5c0 -16.667 6 -31 18 -43s30 -18 54 -18c20 0 35.667 6.33301 47 19s17 27.667 17 45
c0 18 -6.33301 33.333 -19 46s-30.334 18 -53.001 16z" />
    <glyph glyph-name="Igrave" unicode="&#xcc;" horiz-adv-x="441" 
d="M157 598l0.00292969 -455.998c0 -48.667 -11.833 -79.334 -35.5 -92.001s-53.834 -19 -90.501 -19c-11.333 0 -17 -5.33301 -17 -16c0 -10 5.66699 -15 17 -15h371c16 0 24 4.33301 24 13c0 4 -2.33301 8 -7 12s-10.334 6 -17.001 6
c-40.667 0 -71.834 6.16699 -93.501 18.5s-32.5 43.166 -32.5 92.499v456c0 26.667 10.5 46.5 31.5 59.5s49.833 19.5 86.5 19.5c19.333 0 29 5.33301 29 16s-9.66699 16 -29 16h-347c-8 0 -15 -2 -21 -6s-9 -8 -9 -12c0 -9.33301 10 -14 30 -14
c32.667 0 59.167 -4.33301 79.5 -13s30.5 -30.667 30.5 -66zM126.003 835.002l165 -63.001c19.333 -6.66699 33 -10 41 -10c6 0 9 2 9 6s-2.66699 9.33301 -8 16s-11.333 13 -18 19l-102 103c-8.66699 10.667 -17.667 18.5 -27 23.5s-19 7.5 -29 7.5
c-16.667 0 -31 -6 -43 -18s-18 -25.667 -18 -41c0 -19.333 10 -33.666 30 -42.999z" />
    <glyph glyph-name="Iacute" unicode="&#xcd;" horiz-adv-x="441" 
d="M157 598l0.00292969 -455.998c0 -48.667 -11.833 -79.334 -35.5 -92.001s-53.834 -19 -90.501 -19c-11.333 0 -17 -5.33301 -17 -16c0 -10 5.66699 -15 17 -15h371c16 0 24 4.33301 24 13c0 4 -2.33301 8 -7 12s-10.334 6 -17.001 6
c-40.667 0 -71.834 6.16699 -93.501 18.5s-32.5 43.166 -32.5 92.499v456c0 26.667 10.5 46.5 31.5 59.5s49.833 19.5 86.5 19.5c19.333 0 29 5.33301 29 16s-9.66699 16 -29 16h-347c-8 0 -15 -2 -21 -6s-9 -8 -9 -12c0 -9.33301 10 -14 30 -14
c32.667 0 59.167 -4.33301 79.5 -13s30.5 -30.667 30.5 -66zM87.0029 772.002l30.999 0.000976562l165 55c18.667 6 32.334 14.167 41.001 24.5s13 21.833 13 34.5c0 14.667 -6 27.667 -18 39s-26.667 17 -44 17c-12 0 -23.667 -2.83301 -35 -8.5s-23 -14.834 -35 -27.501z
" />
    <glyph glyph-name="Icircumflex" unicode="&#xce;" horiz-adv-x="441" 
d="M157 598l0.00292969 -455.998c0 -48.667 -11.833 -79.334 -35.5 -92.001s-53.834 -19 -90.501 -19c-11.333 0 -17 -5.33301 -17 -16c0 -10 5.66699 -15 17 -15h371c16 0 24 4.33301 24 13c0 4 -2.33301 8 -7 12s-10.334 6 -17.001 6
c-40.667 0 -71.834 6.16699 -93.501 18.5s-32.5 43.166 -32.5 92.499v456c0 26.667 10.5 46.5 31.5 59.5s49.833 19.5 86.5 19.5c19.333 0 29 5.33301 29 16s-9.66699 16 -29 16h-347c-8 0 -15 -2 -21 -6s-9 -8 -9 -12c0 -9.33301 10 -14 30 -14
c32.667 0 59.167 -4.33301 79.5 -13s30.5 -30.667 30.5 -66zM24.0029 787.002c-8 -8 -12.002 -14 -12.002 -18s3.33301 -6 10 -6c12 0 25.667 5.66699 41 17l157 86l158 -94c14.667 -9.33301 26 -14 34 -14c5.33301 0 7.33301 2.5 6 7.5s-6.66602 12.167 -15.999 21.5
l-158 158l-13.5 14c-4.33301 4.66699 -8.83301 7 -13.5 7c-7.33301 0 -16.666 -7 -27.999 -21z" />
    <glyph glyph-name="Idieresis" unicode="&#xcf;" horiz-adv-x="441" 
d="M173 598l0.00195312 -455.998c0 -48.667 -11.833 -79.334 -35.5 -92.001s-53.834 -19 -90.501 -19c-11.333 0 -17 -5.33301 -17 -16c0 -10 5.66699 -15 17 -15h370c16 0 24 4.33301 24 13c0 4 -2.33301 8 -7 12s-10.334 6 -17.001 6c-40 0 -71 6.16699 -93 18.5
s-33 43.166 -33 92.499v456c0 26.667 10.5 46.5 31.5 59.5s49.833 19.5 86.5 19.5c20 0 30 5.33301 30 16s-10 16 -30 16h-346c-8 0 -15 -2 -21 -6s-9 -8 -9 -12c0 -9.33301 10 -14 30 -14c32 0 58.333 -4.5 79 -13.5s31 -30.833 31 -65.5zM102.002 953.002
c-21.333 0 -38 -6 -50 -18s-18 -26.333 -18 -43c0 -17.333 6.16699 -32.5 18.5 -45.5s28.833 -19.5 49.5 -19.5c21.333 0 38 6 50 18s18 26.333 18 43c0 17.333 -6.16699 32.5 -18.5 45.5s-28.833 19.5 -49.5 19.5zM323.002 953.002c-19.333 0 -34.832 -6.5 -46.499 -19.5
s-17.5 -28.167 -17.5 -45.5c0 -16.667 6 -31 18 -43s30 -18 54 -18c20 0 35.667 6.33301 47 19s17 27.667 17 45c0 18 -6.33301 33.333 -19 46s-30.334 18 -53.001 16z" />
    <glyph glyph-name="Eth" unicode="&#xd0;" horiz-adv-x="835" 
 />
    <glyph glyph-name="Ntilde" unicode="&#xd1;" horiz-adv-x="764" 
d="M173 630l410.001 -622c10.667 -20.667 19.334 -31 26.001 -31c3.33301 0 8.33301 3.16699 15 9.5l20 19.5c6.66699 6.66699 20.167 15.167 40.5 25.5s36.166 15.5 47.499 15.5c12 2.66699 18 6.66699 18 12c0 8 -8.66699 12 -26 12c-8 0 -14.333 1.66699 -19 5
s-19.334 17.333 -44.001 42v433c0 34.667 7.16699 64.334 21.5 89.001s44.166 37 89.499 37c6.66699 0 12.834 2.16699 18.501 6.5s8.5 8.83301 8.5 13.5c0 8 -9 12 -27 12h-252c-22 0 -33 -5 -33 -15c0 -11.333 11 -17 33 -17c32.667 0 59.167 -7.83301 79.5 -23.5
s30.5 -49.834 30.5 -102.501v-409l-339 527c-1.33301 4 -1.33301 9 0 15s3 12 5 18c0 4.66699 -6.66699 7 -20 7h-237c-8 0 -15 -2 -21 -6s-9 -8 -9 -12c0 -9.33301 10 -14 30 -14c26.667 0 50.5 -3.66699 71.5 -11s31.5 -24.666 31.5 -51.999v-449
c0 -41.333 -14.167 -74 -42.5 -98s-53.5 -36 -75.5 -36c-16 0 -24 -5.33301 -24 -16c0 -10 8 -15 24 -15h267c18.667 2.66699 28 8 28 16c0 3.33301 -2.83301 6.66602 -8.5 9.99902s-12.167 5 -19.5 5c-38.667 0 -68 10 -88 30s-30 54.667 -30 104v465zM236.001 850
c-6.66699 -12.667 -10.002 -21.666 -10.002 -26.999s2.66699 -8 8 -8c4 0 10.333 4.33301 19 13s19.334 13 32.001 13c15.333 0 46.333 -12.667 93 -38c8.66699 -3.33301 17.667 -5 27 -5c23.333 0 46.5 7.16699 69.5 21.5s38 29 45 44s11 24.167 12 27.5
s1.5 6.66602 1.5 9.99902c0 10.667 -3.33301 16 -10 16c-4.66699 0 -8.33398 -3.66699 -11.001 -11c-6 -12 -13.167 -20.333 -21.5 -25s-17.833 -7 -28.5 -7c-10 0 -19.5 1.5 -28.5 4.5s-22.167 9.5 -39.5 19.5c-22.667 9.33301 -43.667 14 -63 14s-36.166 -5 -50.499 -15
s-29.166 -25.667 -44.499 -47z" />
    <glyph glyph-name="Ograve" unicode="&#xd2;" horiz-adv-x="780" 
d="M386 701c78.667 0 140.167 -34.667 184.5 -104s66.5 -151.333 66.5 -246c0 -93.333 -21.833 -173.833 -65.5 -241.5s-105.5 -101.5 -185.5 -101.5c-78 0 -138.833 33.667 -182.5 101s-65.5 147 -65.5 239c0 94.667 22.167 177.167 66.5 247.5s104.833 105.5 181.5 105.5z
M378 732c-111.333 0 -198.333 -37.333 -261 -112s-94 -162.667 -94 -264c0 -100.667 30.5 -187.834 91.5 -261.501s146.167 -110.5 255.5 -110.5c122 0 217.167 37.333 285.5 112s102.5 163.334 102.5 266.001c0 101.333 -33.167 188.333 -99.5 261s-159.833 109 -280.5 109
zM291 835l165.999 -63.002c19.333 -6.66699 33 -10 41 -10c6 0 9 2 9 6c0 2.66699 -2.66699 7.33398 -8 14.001s-11.666 13.667 -18.999 21l-102 103c-8.66699 10.667 -17.667 18.5 -27 23.5s-19 7.5 -29 7.5c-16 0 -30 -6 -42 -18s-18 -25.667 -18 -41
c0 -19.333 9.66699 -33.666 29 -42.999z" />
    <glyph glyph-name="Oacute" unicode="&#xd3;" horiz-adv-x="780" 
d="M386 701c78.667 0 140.167 -34.667 184.5 -104s66.5 -151.333 66.5 -246c0 -93.333 -21.833 -173.833 -65.5 -241.5s-105.5 -101.5 -185.5 -101.5c-78 0 -138.833 33.667 -182.5 101s-65.5 147 -65.5 239c0 94.667 22.167 177.167 66.5 247.5s104.833 105.5 181.5 105.5z
M378 732c-111.333 0 -198.333 -37.333 -261 -112s-94 -162.667 -94 -264c0 -100.667 30.5 -187.834 91.5 -261.501s146.167 -110.5 255.5 -110.5c122 0 217.167 37.333 285.5 112s102.5 163.334 102.5 266.001c0 101.333 -33.167 188.333 -99.5 261s-159.833 109 -280.5 109
zM252 764h31l166 55c18.667 6.66699 32.167 14.834 40.5 24.501s12.5 21.167 12.5 34.5c0 14.667 -6 27.667 -18 39s-26.667 17 -44 17c-11.333 0 -22.833 -2.83301 -34.5 -8.5s-23.5 -14.834 -35.5 -27.501z" />
    <glyph glyph-name="Ocircumflex" unicode="&#xd4;" horiz-adv-x="780" 
d="M386 709c78.667 0 140.167 -34.667 184.5 -104s66.5 -151.333 66.5 -246c0 -93.333 -21.833 -173.833 -65.5 -241.5s-105.5 -101.5 -185.5 -101.5c-78 0 -138.833 33.667 -182.5 101s-65.5 147 -65.5 239c0 94.667 22.167 177.167 66.5 247.5s104.833 105.5 181.5 105.5z
M378 740c-111.333 0 -198.333 -37.333 -261 -112s-94 -162.667 -94 -264c0 -100.667 30.5 -187.834 91.5 -261.501s146.167 -110.5 255.5 -110.5c122 0 217.167 37.333 285.5 112s102.5 163.334 102.5 266.001c0 101.333 -33.167 188.333 -99.5 261s-159.833 109 -280.5 109
zM189 803c-8 -8 -11.9961 -14.002 -11.9961 -18.002s3.33301 -6 10 -6s13.167 1 19.5 3s13.5 6.33301 21.5 13l158 87l157 -95c15.333 -8.66699 26.666 -13 33.999 -13c5.33301 0 7.16602 2.66699 5.49902 8s-6.83398 12.333 -15.501 21l-158 158
c-5.33301 6.66699 -9.83301 11.834 -13.5 15.501s-7.83398 5.5 -12.501 5.5c-2.66699 0 -6.16699 -1.16699 -10.5 -3.5s-10.5 -8.16602 -18.5 -17.499z" />
    <glyph glyph-name="Otilde" unicode="&#xd5;" horiz-adv-x="780" 
d="M386 701c78.667 0 140.167 -34.667 184.5 -104s66.5 -151.333 66.5 -246c0 -93.333 -21.833 -173.833 -65.5 -241.5s-105.5 -101.5 -185.5 -101.5c-78 0 -138.833 33.667 -182.5 101s-65.5 147 -65.5 239c0 94.667 22.167 177.167 66.5 247.5s104.833 105.5 181.5 105.5z
M378 732c-111.333 0 -198.333 -37.333 -261 -112s-94 -162.667 -94 -264c0 -100.667 30.5 -187.834 91.5 -261.501s146.167 -110.5 255.5 -110.5c122 0 217.167 37.333 285.5 112s102.5 163.334 102.5 266.001c0 101.333 -33.167 188.333 -99.5 261s-159.833 109 -280.5 109
zM252 866c-4 -6 -6.66797 -11.1689 -8.00098 -15.502s-2 -8.16602 -2 -11.499c0 -5.33301 2.66699 -8 8 -8c4 0 10.333 4.33301 19 13s19 13 31 13c16 0 47.333 -12.667 94 -38c8.66699 -3.33301 17.667 -5 27 -5c23.333 0 46.5 7.16699 69.5 21.5s38.333 30 46 47
s11.5 28.833 11.5 35.5c0 9.33301 -3.33301 14 -10 14c-4.66699 0 -8 -3.66699 -10 -11c-5.33301 -11.333 -12.5 -19.5 -21.5 -24.5s-18.5 -7.5 -28.5 -7.5c-12.667 0 -25.167 2.83301 -37.5 8.5s-22.833 10.834 -31.5 15.501c-22.667 9.33301 -43.667 14 -63 14
s-36.166 -5 -50.499 -15s-28.833 -25.333 -43.5 -46z" />
    <glyph glyph-name="Odieresis" unicode="&#xd6;" horiz-adv-x="780" 
d="M402 693c78.667 0 140.167 -34.667 184.5 -104s66.5 -151.333 66.5 -246c0 -93.333 -21.833 -173.833 -65.5 -241.5s-105.5 -101.5 -185.5 -101.5c-78 0 -138.833 33.667 -182.5 101s-65.5 147 -65.5 239c0 94.667 22.167 177.167 66.5 247.5s104.833 105.5 181.5 105.5z
M394 724c-112 0 -199.332 -37.333 -261.999 -112s-94 -162.667 -94 -264c0 -100.667 30.667 -187.834 92 -261.501s146.666 -110.5 255.999 -110.5c122 0 217.167 37.333 285.5 112s102.5 163.334 102.5 266.001c0 101.333 -33.167 188.333 -99.5 261
s-159.833 109 -280.5 109zM307.001 929c-21.333 0 -38 -6 -50 -18s-18 -26.333 -18 -43c0 -17.333 6.16699 -32.5 18.5 -45.5s28.833 -19.5 49.5 -19.5c21.333 0 38 6 50 18s18 26.333 18 43c0 17.333 -6.16699 32.5 -18.5 45.5s-28.833 19.5 -49.5 19.5zM528.001 929
c-19.333 0 -34.833 -6.5 -46.5 -19.5s-17.5 -28.167 -17.5 -45.5s5.83301 -31.833 17.5 -43.5s29.5 -17.5 53.5 -17.5c20 0 35.667 6.33301 47 19s17 27.667 17 45c0 18.667 -6 34.167 -18 46.5s-29.667 17.5 -53 15.5z" />
    <glyph glyph-name=".null" unicode="&#xd7;" horiz-adv-x="0" 
 />
    <glyph glyph-name=".null" unicode="&#x141;" horiz-adv-x="0" 
 />
    <glyph glyph-name="Oslash" unicode="&#xd8;" horiz-adv-x="780" 
d="M606 748l-31.001 -55c-30.667 12.667 -61.167 22.167 -91.5 28.5s-60.166 9.5 -89.499 9.5c-107.333 0 -196 -39.167 -266 -117.5s-105 -168.5 -105 -270.5c0 -60 13.667 -116.5 41 -169.5s69 -97.833 125 -134.5l-39 -63c-10 -18.667 -15 -29.667 -15 -33
c0 -4 5 -6 15 -6h23c6.66699 0 11.667 2 15 6s6.33301 7.33301 9 10l39 63c66 -23.333 128.333 -35 187 -35c109.333 0 195.5 37 258.5 111s94.5 161.667 94.5 263c0 62 -13 120.833 -39 176.5s-64.333 101.5 -115 137.5l39 71c4.66699 8 7 14.667 7 20
c0 8 -7.33301 12 -22 12h-16c-8 0 -13.5 -3 -16.5 -9zM550.999 654l-331 -560c-21.333 40 -35.833 87.167 -43.5 141.5s-11.5 117.5 -11.5 189.5c0 93.333 22.333 163.833 67 211.5s99 71.5 163 71.5c58 0 110 -18 156 -54zM582.999 606
c16.667 -21.333 29.167 -55.666 37.5 -102.999s12.5 -100.333 12.5 -159c0 -70.667 -6.66699 -131.834 -20 -183.501s-38.333 -90.5 -75 -116.5s-78.667 -39 -126 -39c-28.667 0 -56 4.33301 -82 13s-49.333 21 -70 37z" />
    <glyph glyph-name="Ugrave" unicode="&#xd9;" horiz-adv-x="780" 
d="M118 606v-416.998c0 -67.333 27.167 -119.333 81.5 -156s119.166 -55 194.499 -55c74.667 0 139.167 18 193.5 54s81.5 85.667 81.5 149v402c0 29.333 8.66699 52.666 26 69.999s40.333 28 69 32c15.333 0 23 5.33301 23 16s-7.66699 16 -23 16h-244
c-14 0 -21 -4.66699 -21 -14c0 -4.66699 1.83301 -8.83398 5.5 -12.501s8.83398 -5.5 15.501 -5.5c36.667 0 65.5 -9.33301 86.5 -28s31.5 -40.667 31.5 -66v-410c0 -48.667 -23.5 -89.334 -70.5 -122.001s-99.167 -49 -156.5 -49c-52 0 -95.5 14.667 -130.5 44
s-52.5 74.333 -52.5 135v433c0 22.667 13.333 38.834 40 48.501s63.334 14.5 110.001 14.5c17.333 0 26 4.66699 26 14c0 4.66699 -3.16699 8.83398 -9.5 12.501s-14.5 5.5 -24.5 5.5h-378c-13.333 0 -20 -4.66699 -20 -14c0 -4.66699 1.83301 -8.83398 5.5 -12.501
s8.5 -5.5 14.5 -5.5c43.333 0 75.166 -4.16699 95.499 -12.5s30.5 -30.5 30.5 -66.5zM283 850.002l166.001 -63c17.333 -6 31 -9 41 -9c6 0 9 1.66699 9 5s-2.5 8.16602 -7.5 14.499s-11.5 13.5 -19.5 21.5l-102 102c-8.66699 10.667 -17.834 18.5 -27.501 23.5
s-19.5 7.5 -29.5 7.5c-16.667 0 -30.667 -6 -42 -18s-17 -25.667 -17 -41c0 -8.66699 2.16699 -16.667 6.5 -24s11.833 -13.666 22.5 -18.999z" />
    <glyph glyph-name="Uacute" unicode="&#xda;" horiz-adv-x="780" 
d="M118 598v-416.997c0 -66.667 27.167 -118.334 81.5 -155.001s119.166 -55 194.499 -55c74.667 0 139.167 17.667 193.5 53s81.5 85 81.5 149v402c0 29.333 8.66699 52.666 26 69.999s40.333 28 69 32c15.333 0 23 5.33301 23 16s-7.66699 16 -23 16h-244
c-14 0 -21 -4.66699 -21 -14c0 -4.66699 1.83301 -8.83398 5.5 -12.501s8.83398 -5.5 15.501 -5.5c36.667 0 65.5 -9.33301 86.5 -28s31.5 -40.667 31.5 -66v-410c0 -48.667 -23.5 -89.334 -70.5 -122.001s-99.167 -49 -156.5 -49c-52 0 -95.5 14.667 -130.5 44
s-52.5 74.333 -52.5 135v433c0 22.667 13.333 38.834 40 48.501s63.334 14.5 110.001 14.5c17.333 0 26 4.66699 26 14c0 4.66699 -3.16699 8.83398 -9.5 12.501s-14.5 5.5 -24.5 5.5h-378c-13.333 0 -20 -4.66699 -20 -14c0 -4.66699 1.83301 -8.83398 5.5 -12.501
s8.5 -5.5 14.5 -5.5c43.333 0 75.166 -4.16699 95.499 -12.5s30.5 -30.5 30.5 -66.5zM260 772.003l31 -0.00195312l166 55c18.667 6.66699 32.167 14.834 40.5 24.501s12.5 20.834 12.5 33.501c0 14.667 -6.16699 27.834 -18.5 39.501s-26.833 17.5 -43.5 17.5
c-11.333 0 -22.833 -2.83301 -34.5 -8.5s-23.5 -14.834 -35.5 -27.501z" />
    <glyph glyph-name="Ucircumflex" unicode="&#xdb;" horiz-adv-x="780" 
d="M118 598v-416.997c0 -66.667 27.167 -118.334 81.5 -155.001s119.166 -55 194.499 -55c74.667 0 139.167 17.667 193.5 53s81.5 85 81.5 149v402c0 29.333 8.66699 52.666 26 69.999s40.333 28 69 32c15.333 0 23 5.33301 23 16s-7.66699 16 -23 16h-244
c-14 0 -21 -4.66699 -21 -14c0 -4.66699 1.83301 -8.83398 5.5 -12.501s8.83398 -5.5 15.501 -5.5c36.667 0 65.5 -9.33301 86.5 -28s31.5 -40.667 31.5 -66v-410c0 -48.667 -23.5 -89.334 -70.5 -122.001s-99.167 -49 -156.5 -49c-52 0 -95.5 14.667 -130.5 44
s-52.5 74.333 -52.5 135v433c0 22.667 13.333 38.834 40 48.501s63.334 14.5 110.001 14.5c17.333 0 26 4.66699 26 14c0 4.66699 -3.16699 8.83398 -9.5 12.501s-14.5 5.5 -24.5 5.5h-378c-13.333 0 -20 -4.66699 -20 -14c0 -4.66699 1.83301 -8.83398 5.5 -12.501
s8.5 -5.5 14.5 -5.5c43.333 0 75.166 -4.16699 95.499 -12.5s30.5 -30.5 30.5 -66.5zM197 795.003c-8 -8 -11.999 -14.002 -11.999 -18.002s3.33301 -6 10 -6s13.167 1 19.5 3s13.5 6.33301 21.5 13l158 87l157 -94c14.667 -9.33301 26.334 -14 35.001 -14
c4.66699 0 6.16699 2.66699 4.5 8s-6.83398 12.333 -15.501 21l-158 158c-5.33301 6.66699 -9.83301 11.834 -13.5 15.501s-7.83398 5.5 -12.501 5.5c-2.66699 0 -6.16699 -1.16699 -10.5 -3.5s-10.5 -8.16602 -18.5 -17.499z" />
    <glyph glyph-name="Udieresis" unicode="&#xdc;" horiz-adv-x="780" 
d="M126 598v-416.998c0 -66.667 27.167 -118.334 81.5 -155.001s119.166 -55 194.499 -55c74.667 0 139.167 17.667 193.5 53s81.5 85 81.5 149v402c0 29.333 8.66699 52.666 26 69.999s40.333 28 69 32c15.333 0 23 5.33301 23 16s-7.66699 16 -23 16h-244
c-14 0 -21 -4.66699 -21 -14c0 -4.66699 1.83301 -8.83398 5.5 -12.501s8.83398 -5.5 15.501 -5.5c36.667 0 65.5 -9.33301 86.5 -28s31.5 -40.667 31.5 -66v-410c0 -48.667 -23.5 -89.334 -70.5 -122.001s-99.167 -49 -156.5 -49c-52 0 -95.5 14.667 -130.5 44
s-52.5 74.333 -52.5 135v433c0 22.667 13.333 38.834 40 48.501s63.334 14.5 110.001 14.5c17.333 0 26 4.66699 26 14c0 4.66699 -3.16699 8.83398 -9.5 12.501s-14.5 5.5 -24.5 5.5h-378c-14 0 -21 -5 -21 -15c0 -11.333 7 -17 21 -17
c43.333 0 75.166 -4.16699 95.499 -12.5s30.5 -30.5 30.5 -66.5zM276 961.002c-21.333 0 -38 -6 -50 -18s-18 -26.333 -18 -43c0 -17.333 6.16699 -32.5 18.5 -45.5s28.833 -19.5 49.5 -19.5c21.333 0 38 6 50 18s18 26.333 18 43c0 17.333 -6.16699 32.5 -18.5 45.5
s-28.833 19.5 -49.5 19.5zM496 961.002c-19.333 0 -34.834 -6.5 -46.501 -19.5s-17.5 -28.167 -17.5 -45.5c0 -16.667 6 -31 18 -43s30 -18 54 -18c20 0 35.667 6.33301 47 19s17 27.667 17 45c0 18.667 -6.16699 34.167 -18.5 46.5s-30.166 17.5 -53.499 15.5z" />
    <glyph glyph-name="Yacute" unicode="&#xdd;" horiz-adv-x="677" 
 />
    <glyph glyph-name="Thorn" unicode="&#xde;" horiz-adv-x="661" 
 />
    <glyph glyph-name="germandbls" unicode="&#xdf;" horiz-adv-x="709" 
d="M472 417c53.333 12 93.165 30.501 119.498 55.501s39.5 52.833 39.5 83.5c0 43.333 -23.333 82.166 -70 116.499s-105 51.5 -175 51.5c-62 0 -118.167 -20.667 -168.5 -62s-75.5 -104.666 -75.5 -189.999c0 -60 0.5 -106.167 1.5 -138.5s3.16699 -70.166 6.5 -113.499
c0 -64.667 -8 -112.334 -24 -143.001s-45 -46 -87 -46c-13.333 0 -20 -4.66699 -20 -14c0 -11.333 6.66699 -17 20 -17h142c26 0 43 12 51 36s12 54 12 90v31c0 69.333 -1.33301 136.666 -4 201.999s-4 119 -4 161c0 58 15.167 102.167 45.5 132.5s66.833 45.5 109.5 45.5
c36.667 0 69 -11.167 97 -33.5s43 -43.833 45 -64.5s3 -34.667 3 -42c0 -42 -18.833 -75.5 -56.5 -100.5s-77.167 -37.5 -118.5 -37.5c-23.333 0 -39.833 3.33301 -49.5 10s-17.167 10 -22.5 10c-8 0 -12 -3.66699 -12 -11c0 -4 2 -8 6 -12l48 -55
c10.667 -10.667 17.334 -16 20.001 -16c3.33301 0 7.33301 8.5 12 25.5s23.667 25.5 57 25.5c21.333 0 42.333 -6 63 -18s36.167 -27.5 46.5 -46.5s17.833 -40.833 22.5 -65.5s7 -51 7 -79c0 -51.333 -9 -94.166 -27 -128.499s-48.333 -51.5 -91 -51.5
c-36 0 -63.333 11.5 -82 34.5s-28 48.167 -28 75.5c1.33301 11.333 5.83301 20.166 13.5 26.499s16.167 9.5 25.5 9.5c10.667 0 19.334 -2.83301 26.001 -8.5s10 -13.834 10 -24.501c0 -4 -0.5 -8.5 -1.5 -13.5s-4.5 -11.833 -10.5 -20.5c22 0 39 6.33301 51 19
s18 28.334 18 47.001c0 21.333 -7.33301 40.666 -22 57.999s-33.667 26 -57 26c-6 0 -16.5 -1.33301 -31.5 -4s-29.833 -14.5 -44.5 -35.5s-22 -45.5 -22 -73.5c0 -37.333 13.333 -70 40 -98s65 -42 115 -42c64.667 0 120 24.333 166 73s69 103.334 69 164.001
c0 48 -16.5 89.833 -49.5 125.5s-84.5 59.167 -154.5 70.5z" />
    <glyph glyph-name="agrave" unicode="&#xe0;" horiz-adv-x="551" 
d="M425 661c0 10 -3.00293 14.998 -9.00293 14.998c-2.66699 0 -5 -2.33301 -7 -7l-63 -102c-4 -14 -6 -26.667 -6 -38c0 -12 2.16699 -23 6.5 -33s9.5 -18 15.5 -24l14 -7c5.33301 -2.66699 16.333 -10.667 33 -24v-24l-7 -31c0 -4 -1.66699 -6 -5 -6s-7 2 -11 6l-181 142
c-28 22.667 -51.333 45.5 -70 68.5s-29.667 47.167 -33 72.5c0 4 -0.333008 6 -1 6s-3 -2 -7 -6c-11.333 -15.333 -22 -36.333 -32 -63s-17.333 -47.334 -22 -62.001s-7 -29.334 -7 -44.001c0 -46.667 15.333 -84.667 46 -114l-55 -118c-4.66699 -16 -7 -33.333 -7 -52
c0 -15.333 3 -41.166 9 -77.499s9 -61.166 9 -74.499c0 -12 -1.33301 -23 -4 -33c0 -2.66699 -2.33301 -5.66699 -7 -9s-7.33398 -5.33301 -8.00098 -6v-8c12 0 24.167 -0.166992 36.5 -0.5s24.833 -0.5 37.5 -0.5c26.667 0 47 0.833008 61 2.5s29.333 6.5 46 14.5
c14 3.33301 24 13.666 30 30.999s9 35.666 9 54.999c1.33301 5.33301 2 10 2 14c0 13.333 -2.66699 25.666 -8 36.999s-13.666 26 -24.999 44c-10 12 -30.667 31 -62 57s-52.666 49 -63.999 69c-1.33301 4 -2 7.33301 -2 10c0 9.33301 3.33301 19 10 29
c0.666992 0.666992 2.5 1.66699 5.5 3s6.16699 0.333008 9.5 -3l292 -236c8.66699 -8.66699 28.334 -25.667 59.001 -51s47.667 -50.333 51 -75c8 8 15.5 18 22.5 30s12.667 25.5 17 40.5s7.66602 29.667 9.99902 44s3.5 28.5 3.5 42.5c0 32 -7.33301 61 -22 87
c-15.333 18.667 -30.666 35.334 -45.999 50.001s-39.333 34.667 -72 60c-5.33301 5.33301 -8 10.666 -8 15.999l8 39h16c5.33301 0 14.5 -6.5 27.5 -19.5s24.833 -22.167 35.5 -27.5c3.33301 0 6.33301 0.833008 9 2.5s8.33398 7.83398 17.001 18.501
s17.334 26.834 26.001 48.501s13 45.834 13 72.501l-2 23c-6.66699 22.667 -22.334 41.834 -47.001 57.501l-71 45.5c-5.33301 5.33301 -9.33301 9.83301 -12 13.5s-4 6.83398 -4 9.50098zM180.997 582.998l164.999 -63.002c19.333 -6.66699 33.333 -10 42 -10c6 0 9 2 9 6
c0 2.66699 -2.66699 7.33398 -8 14.001s-11.666 13.667 -18.999 21l-102 103c-8.66699 10.667 -17.667 18.5 -27 23.5s-19 7.5 -29 7.5c-16.667 0 -31 -6 -43 -18s-18 -25.667 -18 -41c0 -19.333 10 -33.666 30 -42.999z" />
    <glyph glyph-name="aacute" unicode="&#xe1;" horiz-adv-x="551" 
d="M425 661c0 10 -3.00293 14.998 -9.00293 14.998c-2.66699 0 -5 -2.33301 -7 -7l-63 -102c-4 -14 -6 -26.667 -6 -38c0 -12 2.16699 -23 6.5 -33s9.5 -18 15.5 -24l14 -7c5.33301 -2.66699 16.333 -10.667 33 -24v-24l-7 -31c0 -4 -1.66699 -6 -5 -6s-7 2 -11 6l-181 142
c-28 22.667 -51.333 45.5 -70 68.5s-29.667 47.167 -33 72.5c0 4 -0.333008 6 -1 6s-3 -2 -7 -6c-11.333 -15.333 -22 -36.333 -32 -63s-17.333 -47.334 -22 -62.001s-7 -29.334 -7 -44.001c0 -46.667 15.333 -84.667 46 -114l-55 -118c-4.66699 -16 -7 -33.333 -7 -52
c0 -15.333 3 -41.166 9 -77.499s9 -61.166 9 -74.499c0 -12 -1.33301 -23 -4 -33c0 -2.66699 -2.33301 -5.66699 -7 -9s-7.33398 -5.33301 -8.00098 -6v-8c12 0 24.167 -0.166992 36.5 -0.5s24.833 -0.5 37.5 -0.5c26.667 0 47 0.833008 61 2.5s29.333 6.5 46 14.5
c14 3.33301 24 13.666 30 30.999s9 35.666 9 54.999c1.33301 5.33301 2 10 2 14c0 13.333 -2.66699 25.666 -8 36.999s-13.666 26 -24.999 44c-10 12 -30.667 31 -62 57s-52.666 49 -63.999 69c-1.33301 4 -2 7.33301 -2 10c0 9.33301 3.33301 19 10 29
c0.666992 0.666992 2.5 1.66699 5.5 3s6.16699 0.333008 9.5 -3l292 -236c8.66699 -8.66699 28.334 -25.667 59.001 -51s47.667 -50.333 51 -75c8 8 15.5 18 22.5 30s12.667 25.5 17 40.5s7.66602 29.667 9.99902 44s3.5 28.5 3.5 42.5c0 32 -7.33301 61 -22 87
c-15.333 18.667 -30.666 35.334 -45.999 50.001s-39.333 34.667 -72 60c-5.33301 5.33301 -8 10.666 -8 15.999l8 39h16c5.33301 0 14.5 -6.5 27.5 -19.5s24.833 -22.167 35.5 -27.5c3.33301 0 6.33301 0.833008 9 2.5s8.33398 7.83398 17.001 18.501
s17.334 26.834 26.001 48.501s13 45.834 13 72.501l-2 23c-6.66699 22.667 -22.334 41.834 -47.001 57.501l-71 45.5c-5.33301 5.33301 -9.33301 9.83301 -12 13.5s-4 6.83398 -4 9.50098zM156.997 511.998l119 134c22 24 45.333 36 70 36c17.333 0 31.833 -5.5 43.5 -16.5
s17.5 -24.5 17.5 -40.5c0 -12 -4.33301 -23.167 -13 -33.5s-22 -18.5 -40 -24.5l-165 -55h-32z" />
    <glyph glyph-name="acircumflex" unicode="&#xe2;" horiz-adv-x="551" 
d="M425 661c0 10 -3.00293 14.998 -9.00293 14.998c-2.66699 0 -5 -2.33301 -7 -7l-63 -102c-4 -14 -6 -26.667 -6 -38c0 -12 2.16699 -23 6.5 -33s9.5 -18 15.5 -24l14 -7c5.33301 -2.66699 16.333 -10.667 33 -24v-24l-7 -31c0 -4 -1.66699 -6 -5 -6s-7 2 -11 6l-181 142
c-28 22.667 -51.333 45.5 -70 68.5s-29.667 47.167 -33 72.5c0 4 -0.333008 6 -1 6s-3 -2 -7 -6c-11.333 -15.333 -22 -36.333 -32 -63s-17.333 -47.334 -22 -62.001s-7 -29.334 -7 -44.001c0 -46.667 15.333 -84.667 46 -114l-55 -118c-4.66699 -16 -7 -33.333 -7 -52
c0 -15.333 3 -41.166 9 -77.499s9 -61.166 9 -74.499c0 -12 -1.33301 -23 -4 -33c0 -2.66699 -2.33301 -5.66699 -7 -9s-7.33398 -5.33301 -8.00098 -6v-8c12 0 24.167 -0.166992 36.5 -0.5s24.833 -0.5 37.5 -0.5c26.667 0 47 0.833008 61 2.5s29.333 6.5 46 14.5
c14 3.33301 24 13.666 30 30.999s9 35.666 9 54.999c1.33301 5.33301 2 10 2 14c0 13.333 -2.66699 25.666 -8 36.999s-13.666 26 -24.999 44c-10 12 -30.667 31 -62 57s-52.666 49 -63.999 69c-1.33301 4 -2 7.33301 -2 10c0 9.33301 3.33301 19 10 29
c0.666992 0.666992 2.5 1.66699 5.5 3s6.16699 0.333008 9.5 -3l292 -236c8.66699 -8.66699 28.334 -25.667 59.001 -51s47.667 -50.333 51 -75c8 8 15.5 18 22.5 30s12.667 25.5 17 40.5s7.66602 29.667 9.99902 44s3.5 28.5 3.5 42.5c0 32 -7.33301 61 -22 87
c-15.333 18.667 -30.666 35.334 -45.999 50.001s-39.333 34.667 -72 60c-5.33301 5.33301 -8 10.666 -8 15.999l8 39h16c5.33301 0 14.5 -6.5 27.5 -19.5s24.833 -22.167 35.5 -27.5c3.33301 0 6.33301 0.833008 9 2.5s8.33398 7.83398 17.001 18.501
s17.334 26.834 26.001 48.501s13 45.834 13 72.501l-2 23c-6.66699 22.667 -22.334 41.834 -47.001 57.501l-71 45.5c-5.33301 5.33301 -9.33301 9.83301 -12 13.5s-4 6.83398 -4 9.50098zM86.9971 534.998l165 158c11.333 14 21 21 29 21c4 0 8.66699 -2.83301 14 -8.5
l12 -12.5l158 -158c10.667 -10.667 16 -18.667 16 -24c0 -3.33301 -2 -5 -6 -5c-6 0 -17.333 4.66699 -34 14l-158 94l-157 -86c-15.333 -11.333 -29.333 -17 -42 -17c-6 0 -9 2 -9 6s4 10 12 18z" />
    <glyph glyph-name="atilde" unicode="&#xe3;" horiz-adv-x="551" 
d="M425 661c0 10 -3.00293 14.998 -9.00293 14.998c-2.66699 0 -5 -2.33301 -7 -7l-63 -102c-4 -14 -6 -26.667 -6 -38c0 -12 2.16699 -23 6.5 -33s9.5 -18 15.5 -24l14 -7c5.33301 -2.66699 16.333 -10.667 33 -24v-24l-7 -31c0 -4 -1.66699 -6 -5 -6s-7 2 -11 6l-181 142
c-28 22.667 -51.333 45.5 -70 68.5s-29.667 47.167 -33 72.5c0 4 -0.333008 6 -1 6s-3 -2 -7 -6c-11.333 -15.333 -22 -36.333 -32 -63s-17.333 -47.334 -22 -62.001s-7 -29.334 -7 -44.001c0 -46.667 15.333 -84.667 46 -114l-55 -118c-4.66699 -16 -7 -33.333 -7 -52
c0 -15.333 3 -41.166 9 -77.499s9 -61.166 9 -74.499c0 -12 -1.33301 -23 -4 -33c0 -2.66699 -2.33301 -5.66699 -7 -9s-7.33398 -5.33301 -8.00098 -6v-8c12 0 24.167 -0.166992 36.5 -0.5s24.833 -0.5 37.5 -0.5c26.667 0 47 0.833008 61 2.5s29.333 6.5 46 14.5
c14 3.33301 24 13.666 30 30.999s9 35.666 9 54.999c1.33301 5.33301 2 10 2 14c0 13.333 -2.66699 25.666 -8 36.999s-13.666 26 -24.999 44c-10 12 -30.667 31 -62 57s-52.666 49 -63.999 69c-1.33301 4 -2 7.33301 -2 10c0 9.33301 3.33301 19 10 29
c0.666992 0.666992 2.5 1.66699 5.5 3s6.16699 0.333008 9.5 -3l292 -236c8.66699 -8.66699 28.334 -25.667 59.001 -51s47.667 -50.333 51 -75c8 8 15.5 18 22.5 30s12.667 25.5 17 40.5s7.66602 29.667 9.99902 44s3.5 28.5 3.5 42.5c0 32 -7.33301 61 -22 87
c-15.333 18.667 -30.666 35.334 -45.999 50.001s-39.333 34.667 -72 60c-5.33301 5.33301 -8 10.666 -8 15.999l8 39h16c5.33301 0 14.5 -6.5 27.5 -19.5s24.833 -22.167 35.5 -27.5c3.33301 0 6.33301 0.833008 9 2.5s8.33398 7.83398 17.001 18.501
s17.334 26.834 26.001 48.501s13 45.834 13 72.501l-2 23c-6.66699 22.667 -22.334 41.834 -47.001 57.501l-71 45.5c-5.33301 5.33301 -9.33301 9.83301 -12 13.5s-4 6.83398 -4 9.50098zM117.997 590.998c28.667 40.667 60.6641 60.998 95.9971 60.998
c16.667 0 37.334 -4.66699 62.001 -14c14.667 -8 26.5 -14 35.5 -18s19.833 -6 32.5 -6c11.333 0 21 2.16699 29 6.5s14.167 11.5 18.5 21.5s8.83301 15 13.5 15c6.66699 0 10 -5 10 -15c0 -5.33301 -4 -16.666 -12 -33.999s-23.667 -33.166 -47 -47.499
s-46.666 -21.5 -69.999 -21.5c-11.333 0 -30.166 7 -56.499 21s-47.5 21 -63.5 21c-12 0 -22.333 -4.33301 -31 -13s-15 -13 -19 -13c-5.33301 0 -8 3 -8 9c0 7.33301 3.33301 16.333 10 27z" />
    <glyph glyph-name="adieresis" unicode="&#xe4;" horiz-adv-x="551" 
d="M417 661c0 -4.66699 3.83887 -10.667 11.5059 -18s28.167 -20.833 61.5 -40.5s53.666 -42.167 60.999 -67.5c1.33301 -12 2 -20.333 2 -25c0 -25.333 -4.33301 -48.833 -13 -70.5s-17.334 -37.834 -26.001 -48.501s-14.334 -16.834 -17.001 -18.501
s-5.66699 -2.5 -9 -2.5c-6.66699 3.33301 -17.667 12 -33 26s-25.333 21 -30 21h-16l-7 -39c0 -5.33301 2.33301 -10.666 7 -15.999c20.667 -16 41.167 -33.167 61.5 -51.5s39.5 -37.833 57.5 -58.5c14 -25.333 21 -53.666 21 -84.999c0 -14 -1.16699 -28.333 -3.5 -43
s-5.5 -29.334 -9.5 -44.001s-9.5 -28.167 -16.5 -40.5s-14.833 -22.833 -23.5 -31.5c-3.33301 22 -17 43.667 -41 65l-69 61l-292 236c-2.66699 3.33301 -7.66699 3.33301 -15 0c-6.66699 -10 -10 -19.667 -10 -29c0 -3.33301 0.166992 -5.66602 0.5 -6.99902
s3.16602 -6.5 8.49902 -15.5s19.5 -24 42.5 -45l76.5 -68.5c7.33301 -11.333 14.666 -24.833 21.999 -40.5s11 -29.5 11 -41.5c0 -3.33301 -0.666992 -7.66602 -2 -12.999c0 -26.667 -3.66699 -47 -11 -61s-16.666 -22.333 -27.999 -25
c-14.667 -6.66699 -30.834 -11.167 -48.501 -13.5s-37.167 -3.5 -58.5 -3.5h-32.5c-11 0 -21.833 0.333008 -32.5 1h-9v8c5.33301 4.66699 10.666 9.66699 15.999 15c2 10 3 20.667 3 32c0 12.667 -3 38 -9 76s-9 64.333 -9 79c0 10.667 0.333008 19 1 25s3 14.833 7 26.5
s12.5 30.334 25.5 56.001s22.5 45.834 28.5 60.501c-30.667 29.333 -46 67.666 -46 114.999c0 14 3.5 32 10.5 54s14.667 43.167 23 63.5s17.833 37.166 28.5 50.499c3.33301 4 5.33301 6 6 6s1 -2 1 -6c3.33301 -24 14.333 -47.833 33 -71.5s42 -46.834 70 -69.501
l181 -142c4 -4 7.66699 -6 11 -6s5 2 5 6l8 31v24c-12 9.33301 -21.5 16 -28.5 20l-19.5 11c-6 6 -11.167 14 -15.5 24s-6.5 21 -6.5 33s2.33301 24.667 7 38l63 102c2 4.66699 4.33301 7 7 7c5.33301 0 8 -5 8 -15zM173.006 701c-21.333 0 -38 -6 -50 -18
s-18 -26.333 -18 -43c0 -17.333 6.16699 -32.5 18.5 -45.5s28.833 -19.5 49.5 -19.5c21.333 0 38 6 50 18s18 26.333 18 43c0 17.333 -6.16699 32.5 -18.5 45.5s-28.833 19.5 -49.5 19.5zM394.006 701c-19.333 0 -34.832 -6.5 -46.499 -19.5s-17.5 -28.167 -17.5 -45.5
c0 -16.667 6 -31 18 -43s30 -18 54 -18c20 0 35.667 6.33301 47 19s17 27.667 17 45c0 18 -6.33301 33.333 -19 46s-30.334 18 -53.001 16z" />
    <glyph glyph-name="aring" unicode="&#xe5;" horiz-adv-x="551" 
d="M433 661c0 10 -3.00391 14.9961 -9.00391 14.9961c-2.66699 0 -5 -2.33301 -7 -7l-63 -102c-4 -14 -6 -26.667 -6 -38c0 -12 2.16699 -23 6.5 -33s9.5 -18 15.5 -24l14 -7c5.33301 -2.66699 16.333 -10.667 33 -24v-24l-8 -31c0 -4 -1.5 -6 -4.5 -6s-6.5 2 -10.5 6
l-181 142c-28 22.667 -51.333 45.5 -70 68.5s-29.667 47.167 -33 72.5c0 4 -0.333008 6 -1 6s-3 -2 -7 -6c-11.333 -15.333 -22 -36.333 -32 -63s-17.333 -47.334 -22 -62.001s-7 -29.667 -7 -45c0 -46 15.333 -83.667 46 -113c-5.33301 -12.667 -15.5 -34.167 -30.5 -64.5
s-23.667 -49 -26 -56s-3.83301 -14.167 -4.5 -21.5s-1 -16 -1 -26c0 -18 3 -45.667 9 -83s9 -60.666 9 -69.999c0 -12.667 -1.33301 -24 -4 -34c0 -2.66699 -2 -5.16699 -6 -7.5s-7 -4.83301 -9 -7.5v-8c12 0 24.167 -0.166992 36.5 -0.5s24.833 -0.5 37.5 -0.5
c26.667 0 47 0.833008 61 2.5s29.333 6.5 46 14.5c14 3.33301 24 13.666 30 30.999s9 35.666 9 54.999c1.33301 5.33301 2 10 2 14c0 13.333 -2.66699 25.666 -8 36.999s-13.666 26 -24.999 44c-10 12 -30.667 31 -62 57s-52.666 49 -63.999 69
c-1.33301 4.66699 -2 8.33398 -2 11.001c0 8.66699 3 18 9 28c2 2 4.33301 3.33301 7 4s5.66699 -0.666016 9 -3.99902l292 -236c8.66699 -8.66699 28.334 -25.667 59.001 -51s47.667 -50.333 51 -75c8 8 15.5 18 22.5 30s12.667 25.5 17 40.5s7.66602 29.667 9.99902 44
s3.5 28.5 3.5 42.5c0 32 -7.33301 61 -22 87c-15.333 18.667 -30.666 35.334 -45.999 50.001s-39.333 34.667 -72 60c-5.33301 5.33301 -8 10.666 -8 15.999l8 39h16c5.33301 0 14.5 -6.5 27.5 -19.5s24.833 -22.167 35.5 -27.5c3.33301 0 6.33301 0.833008 9 2.5
s8.33398 7.83398 17.001 18.501s17.334 26.834 26.001 48.501s13 45.834 13 72.501l-2 23c-6.66699 22.667 -22.334 41.834 -47.001 57.501l-71 45.5c-5.33301 5.33301 -9.33301 9.83301 -12 13.5s-4 6.83398 -4 9.50098zM282.996 708.996
c-24.667 0 -44.667 -8.33105 -60 -24.998s-23 -36 -23 -58c0 -20.667 7 -38.334 21 -53.001s34.667 -22 62 -22c25.333 0 45 7.66699 59 23s21 33.333 21 54c0 21.333 -7.16699 40.166 -21.5 56.499s-33.833 24.5 -58.5 24.5zM282.996 676.998
c14.667 0 26.167 -4.83203 34.5 -14.499s12.5 -20.5 12.5 -32.5c0 -12.667 -4 -23.667 -12 -33s-19.667 -14 -35 -14c-17.333 0 -30.5 4.16699 -39.5 12.5s-13.5 18.5 -13.5 30.5c0 13.333 4.83301 25.166 14.5 35.499s22.5 15.5 38.5 15.5z" />
    <glyph glyph-name="ae" unicode="&#xe6;" horiz-adv-x="882" 
d="M449 370c-16.667 32 -42.501 55.6641 -77.501 70.9971s-74.167 23 -117.5 23c-51.333 0 -97.5 -10.333 -138.5 -31s-63.833 -47 -68.5 -79c0 -21.333 5.66699 -37.333 17 -48s25 -16 41 -16s29.833 4.5 41.5 13.5s17.5 21.167 17.5 36.5c0 12 -3 22.167 -9 30.5
s-9 14.833 -9 19.5c0 12 11.667 22.167 35 30.5s50.333 12.5 81 12.5s56.334 -5.16699 77.001 -15.5s31 -26.166 31 -47.499v-94c-106 0 -190.833 -11.333 -254.5 -34s-95.5 -64.667 -95.5 -126v-22c2 -7.33301 4.83301 -19.333 8.5 -36s19 -33 46 -49s59.167 -24 96.5 -24
c46 0 89.833 11.833 131.5 35.5s69.5 56.167 83.5 97.5c24 -46.667 56.333 -80.667 97 -102s85 -32 133 -32c43.333 0 85 7.5 125 22.5s67.167 29.667 81.5 44s21.5 24.5 21.5 30.5s-3.33301 9 -10 9c-7.33301 0 -22.833 -11.667 -46.5 -35s-65.834 -35 -126.501 -35
c-52.667 0 -97.5 16.667 -134.5 50s-55.5 81.333 -55.5 144c0 13.333 0.333008 23.333 1 30h378c10.667 0 18.167 1.33301 22.5 4s6.5 6.33398 6.5 11.001c0 6.66699 -3.83301 11.834 -11.5 15.501s-13 12.167 -16 25.5l-8.5 39c-14 41.333 -39.667 72.5 -77 93.5
s-79.666 31.5 -126.999 31.5c-42 0 -80.5 -8.33301 -115.5 -25s-59.833 -39.667 -74.5 -69zM747.999 314.997c1.33301 -6.66699 2 -11.333 2 -14c0 -16.667 -19 -25 -57 -25h-221c4 48.667 21.833 88 53.5 118s66.5 45 104.5 45c30 0 55.833 -10.167 77.5 -30.5
s35.167 -51.5 40.5 -93.5zM369.999 243.998v-70.999c0 -46 -12.833 -80.5 -38.5 -103.5s-56.167 -34.5 -91.5 -34.5c-28 0 -53.5 7.16699 -76.5 21.5s-35.5 32.166 -37.5 53.499c0 51.333 20 86.5 60 105.5s101.333 28.5 184 28.5z" />
    <glyph glyph-name="ccedilla" unicode="&#xe7;" horiz-adv-x="496" 
d="M205 -16l0.000976562 -71.0049c10.667 1.33301 18 2 22 2c15.333 0 26.833 -3 34.5 -9s11.5 -13 11.5 -21c0 -9.33301 -4.16699 -17.5 -12.5 -24.5s-18.833 -10.5 -31.5 -10.5c-10.667 0 -20.667 2.16699 -30 6.5s-15.666 6.5 -18.999 6.5c-8.66699 0 -13 -4 -13 -12
c0 -7.33301 8 -13.666 24 -18.999s35 -8 57 -8c28.667 0 51.334 6.5 68.001 19.5s25 27.833 25 44.5c0 14 -5.83301 25.833 -17.5 35.5s-29.167 14.5 -52.5 14.5c-8 0 -14.333 -0.333008 -19 -1v39c55.333 0 102.166 9.33301 140.499 28s65.166 35.834 80.499 51.501
s23 28.5 23 38.5c0 6.66699 -3 10 -9 10c-6.66699 0 -16.667 -5.66699 -30 -17c-18.667 -18.667 -41.167 -33.834 -67.5 -45.501s-59.166 -17.5 -98.499 -17.5c-40 0 -79 21.833 -117 65.5s-57 93.834 -57 150.501c0 22.667 3.16699 44.334 9.5 65.001
s16.166 41.667 29.499 63s30 37.5 50 48.5s40.333 16.5 61 16.5c23.333 0 42.333 -6.66699 57 -20s22 -33 22 -59c0 -19.333 6.33301 -34.166 19 -44.499s28 -15.5 46 -15.5c17.333 0 32.333 5 45 15s19 24 19 42c0 5.33301 -2.83301 17.5 -8.5 36.5
s-26.834 35.667 -63.501 50s-75.667 21.5 -117 21.5h-22c-6 -1.33301 -28.667 -4 -68 -8s-79.666 -30.167 -120.999 -78.5s-62 -103.833 -62 -166.5c0 -57.333 16.667 -107.166 50 -149.499s80.666 -66.5 141.999 -72.5z" />
    <glyph glyph-name="egrave" unicode="&#xe8;" horiz-adv-x="551" 
d="M118 394c-28 -24 -49.167 -52.1689 -63.5 -84.502s-21.5 -65.166 -21.5 -98.499c0 -63.333 22.333 -117.666 67 -162.999s105.334 -68 182.001 -68c30 0 61.667 4.16699 95 12.5s62.833 22 88.5 41s48.834 44.5 69.501 76.5c6.66699 8.66699 10 16 10 22c0 4 -2 6 -6 6
c-8.66699 0 -21.334 -11.333 -38.001 -34s-38.834 -41.334 -66.501 -56.001s-55.167 -22 -82.5 -22c-48 0 -92.167 18.667 -132.5 56s-63.5 73 -69.5 107l338 150c21.333 10 32 17.667 32 23c0 2 -2.66699 4.66699 -8 8l-27 10c-7.33301 2.66699 -14 7.33398 -20 14.001
c-25.333 22 -52.166 38.333 -80.499 49s-56.5 16 -84.5 16c-34.667 0 -67.834 -6.5 -99.501 -19.5s-59.167 -28.167 -82.5 -45.5zM142 219.998c-1.33301 5.33301 -2.5 13.333 -3.5 24s-1.5 21 -1.5 31c0 48 13 84.667 39 110s56.333 38 91 38
c41.333 0 68.833 -9.5 82.5 -28.5l28.5 -39c5.33301 -7 8 -13.167 8 -18.5c0 -8.66699 -8 -16 -24 -22zM189 574.998l165 -63.001c19.333 -6.66699 33 -10 41 -10c6 0 9 2 9 6s-2.66699 9.33301 -8 16s-11.333 13 -18 19l-102 103c-8.66699 10.667 -17.667 18.5 -27 23.5
s-19 7.5 -29 7.5c-16.667 0 -31 -6 -43 -18s-18 -25.667 -18 -41c0 -19.333 10 -33.666 30 -42.999z" />
    <glyph glyph-name="eacute" unicode="&#xe9;" horiz-adv-x="551" 
d="M118 394c-28 -24 -49.167 -52.1689 -63.5 -84.502s-21.5 -65.166 -21.5 -98.499c0 -63.333 22.333 -117.666 67 -162.999s105.334 -68 182.001 -68c30 0 61.667 4.16699 95 12.5s62.833 22 88.5 41s48.834 44.5 69.501 76.5c6.66699 8.66699 10 16 10 22c0 4 -2 6 -6 6
c-8.66699 0 -21.334 -11.333 -38.001 -34s-38.834 -41.334 -66.501 -56.001s-55.167 -22 -82.5 -22c-48 0 -92.167 18.667 -132.5 56s-63.5 73 -69.5 107l338 150c21.333 10 32 17.667 32 23c0 2 -2.66699 4.66699 -8 8l-27 10c-7.33301 2.66699 -14 7.33398 -20 14.001
c-25.333 22 -52.166 38.333 -80.499 49s-56.5 16 -84.5 16c-34.667 0 -67.834 -6.5 -99.501 -19.5s-59.167 -28.167 -82.5 -45.5zM142 219.998c-1.33301 5.33301 -2.5 13.333 -3.5 24s-1.5 21 -1.5 31c0 48 13 84.667 39 110s56.333 38 91 38
c41.333 0 68.833 -9.5 82.5 -28.5l28.5 -39c5.33301 -7 8 -13.167 8 -18.5c0 -8.66699 -8 -16 -24 -22zM150 511.998l30.999 0.000976562l165 55c18.667 6 32.334 14.167 41.001 24.5s13 21.833 13 34.5c0 14.667 -6 27.667 -18 39s-26.667 17 -44 17
c-12 0 -23.667 -2.83301 -35 -8.5s-23 -14.834 -35 -27.501z" />
    <glyph glyph-name="ecircumflex" unicode="&#xea;" horiz-adv-x="551" 
d="M118 394c-28 -24 -49.167 -52.1689 -63.5 -84.502s-21.5 -65.166 -21.5 -98.499c0 -63.333 22.333 -117.666 67 -162.999s105.334 -68 182.001 -68c30 0 61.667 4.16699 95 12.5s62.833 22 88.5 41s48.834 44.5 69.501 76.5c6.66699 8.66699 10 16 10 22c0 4 -2 6 -6 6
c-8.66699 0 -21.334 -11.333 -38.001 -34s-38.834 -41.334 -66.501 -56.001s-55.167 -22 -82.5 -22c-48 0 -92.167 18.667 -132.5 56s-63.5 73 -69.5 107l338 150c21.333 10 32 17.667 32 23c0 2 -2.66699 4.66699 -8 8l-27 10c-7.33301 2.66699 -14 7.33398 -20 14.001
c-25.333 22 -52.166 38.333 -80.499 49s-56.5 16 -84.5 16c-34.667 0 -67.834 -6.5 -99.501 -19.5s-59.167 -28.167 -82.5 -45.5zM142 219.998c-1.33301 5.33301 -2.5 13.333 -3.5 24s-1.5 21 -1.5 31c0 48 13 84.667 39 110s56.333 38 91 38
c41.333 0 68.833 -9.5 82.5 -28.5l28.5 -39c5.33301 -7 8 -13.167 8 -18.5c0 -8.66699 -8 -16 -24 -22zM87 527.998c-8 -8 -12.001 -14.333 -12.001 -19c0 -4 3.33301 -6 10 -6c12 0 25.667 5.66699 41 17l157 86l158 -94c14.667 -9.33301 26 -14 34 -14c4 0 6 1.66699 6 5
c0 6 -5.33301 14.333 -16 25l-158 157l-13.5 14c-4.33301 4.66699 -8.83301 7 -13.5 7c-7.33301 0 -16.666 -7 -27.999 -21z" />
    <glyph glyph-name="edieresis" unicode="&#xeb;" horiz-adv-x="551" 
d="M118 394c-28 -24 -49.167 -52.1689 -63.5 -84.502s-21.5 -65.166 -21.5 -98.499c0 -63.333 22.333 -117.666 67 -162.999s105.334 -68 182.001 -68c30 0 61.667 4.16699 95 12.5s62.833 22 88.5 41s48.834 44.5 69.501 76.5c6.66699 8.66699 10 16 10 22c0 4 -2 6 -6 6
c-8.66699 0 -21.334 -11.333 -38.001 -34s-38.834 -41.334 -66.501 -56.001s-55.167 -22 -82.5 -22c-48 0 -92.167 18.667 -132.5 56s-63.5 73 -69.5 107l338 150c21.333 10 32 17.667 32 23c0 2 -2.66699 4.66699 -8 8l-27 10c-7.33301 2.66699 -14 7.33398 -20 14.001
c-25.333 22 -52.166 38.333 -80.499 49s-56.5 16 -84.5 16c-34.667 0 -67.834 -6.5 -99.501 -19.5s-59.167 -28.167 -82.5 -45.5zM142 219.998c-1.33301 5.33301 -2.5 13.333 -3.5 24s-1.5 21 -1.5 31c0 48 13 84.667 39 110s56.333 38 91 38
c41.333 0 68.833 -9.5 82.5 -28.5l28.5 -39c5.33301 -7 8 -13.167 8 -18.5c0 -8.66699 -8 -16 -24 -22zM165 692.998c-21.333 0 -38 -6 -50 -18s-18 -26.333 -18 -43c0 -17.333 6.16699 -32.5 18.5 -45.5s28.833 -19.5 49.5 -19.5c21.333 0 38 6 50 18s18 26.333 18 43
c0 17.333 -6.16699 32.5 -18.5 45.5s-28.833 19.5 -49.5 19.5zM386 692.998c-19.333 0 -34.832 -6.5 -46.499 -19.5s-17.5 -28.167 -17.5 -45.5c0 -16.667 6 -31 18 -43s30 -18 54 -18c20 0 35.667 6.33301 47 19s17 27.667 17 45c0 18 -6.33301 33.333 -19 46
s-30.334 18 -53.001 16z" />
    <glyph glyph-name="igrave" unicode="&#xec;" horiz-adv-x="339" 
d="M134 307l-0.00195312 -188.999c0 -38.667 -7.5 -62.834 -22.5 -72.501s-36.5 -14.5 -64.5 -14.5c-17.333 0 -26 -4.66699 -26 -14c0 -4 2.5 -7.83301 7.5 -11.5s11.167 -5.5 18.5 -5.5h284c13.333 0 20 4.66699 20 14c0 11.333 -6.66699 17 -20 17
c-32.667 0 -56.667 6.33301 -72 19s-23 32.667 -23 60v307v14c0 4.66699 0.333008 9.33398 1 14.001c0 12 -2.33301 18 -7 18c-5.33301 0 -16.166 -6.83301 -32.499 -20.5s-38.833 -23.834 -67.5 -30.501s-59 -10 -91 -10c-15.333 0 -23 -5.33301 -23 -16
s7.66699 -16 23 -16h15c20.667 0 38.334 -4 53.001 -12s23.667 -25 27 -51zM86.998 583.001l165 -63.001c19.333 -6.66699 33 -10 41 -10c6 0 9 2 9 6s-2.66699 9.33301 -8 16s-11.333 13 -18 19l-103 103c-8.66699 10.667 -17.667 18.5 -27 23.5s-19 7.5 -29 7.5
c-16 0 -30 -6 -42 -18s-18 -25.667 -18 -41c0 -19.333 10 -33.666 30 -42.999z" />
    <glyph glyph-name="iacute" unicode="&#xed;" horiz-adv-x="339" 
d="M47 512h32l165 55c18.667 6.66699 32.167 14.834 40.5 24.501s12.5 21.167 12.5 34.5c0 14.667 -6 27.667 -18 39s-26.667 17 -44 17c-11.333 0 -22.833 -2.83301 -34.5 -8.5s-23.5 -14.834 -35.5 -27.501zM134 307l-0.00195312 -188.999
c0 -38.667 -7.5 -62.834 -22.5 -72.501s-36.5 -14.5 -64.5 -14.5c-17.333 0 -26 -4.66699 -26 -14c0 -4 2.5 -7.83301 7.5 -11.5s11.167 -5.5 18.5 -5.5h284c13.333 0 20 4.66699 20 14c0 11.333 -6.66699 17 -20 17c-32.667 0 -56.667 6.33301 -72 19s-23 32.667 -23 60
v307v14c0 4.66699 0.333008 9.33398 1 14.001c0 12 -2.33301 18 -7 18c-5.33301 0 -16.166 -6.83301 -32.499 -20.5s-38.833 -23.834 -67.5 -30.501s-59 -10 -91 -10c-15.333 0 -23 -5.33301 -23 -16s7.66699 -16 23 -16h15c20.667 0 38.334 -4 53.001 -12
s23.667 -25 27 -51z" />
    <glyph glyph-name="icircumflex" unicode="&#xee;" horiz-adv-x="339" 
d="M-24 528c-7.33301 -7.33301 -11.0029 -13.666 -11.0029 -18.999c0 -4 3.33301 -6 10 -6c12 0 25.667 5.66699 41 17l157 86l158 -94c14.667 -9.33301 26 -14 34 -14c4.66699 0 6.33398 2.66699 5.00098 8s-6.66602 12.666 -15.999 21.999l-157 157l-13.5 14
c-4.33301 4.66699 -8.83301 7 -13.5 7c-7.33301 0 -16.666 -7 -27.999 -21zM133.997 307l-0.00195312 -188.999c0 -38.667 -7.5 -62.834 -22.5 -72.501s-36.5 -14.5 -64.5 -14.5c-17.333 0 -26 -4.66699 -26 -14c0 -4 2.5 -7.83301 7.5 -11.5s11.167 -5.5 18.5 -5.5h284
c13.333 0 20 4.66699 20 14c0 11.333 -6.66699 17 -20 17c-32.667 0 -56.667 6.33301 -72 19s-23 32.667 -23 60v307v14c0 4.66699 0.333008 9.33398 1 14.001c0 12 -2.33301 18 -7 18c-5.33301 0 -16.166 -6.83301 -32.499 -20.5s-38.833 -23.834 -67.5 -30.501
s-59 -10 -91 -10c-15.333 0 -23 -5.33301 -23 -16s7.66699 -16 23 -16h15c20.667 0 38.334 -4 53.001 -12s23.667 -25 27 -51z" />
    <glyph glyph-name="idieresis" unicode="&#xef;" horiz-adv-x="339" 
d="M63 701c-21.333 0 -38 -6 -50 -18s-18 -26.333 -18 -43c0 -17.333 6.16699 -32.5 18.5 -45.5s28.833 -19.5 49.5 -19.5c21.333 0 38 6 50 18s18 26.333 18 43c0 17.333 -6.16699 32.5 -18.5 45.5s-28.833 19.5 -49.5 19.5zM283 701c-19.333 0 -34.834 -6.5 -46.501 -19.5
s-17.5 -28.167 -17.5 -45.5c0 -16.667 6 -31 18 -43s30 -18 54 -18c20 0 35.667 6.33301 47 19s17 27.667 17 45c0 18.667 -6.16699 34.167 -18.5 46.5s-30.166 17.5 -53.499 15.5zM133.999 307l-0.00195312 -188.999c0 -38.667 -7.5 -62.834 -22.5 -72.501
s-36.5 -14.5 -64.5 -14.5c-17.333 0 -26 -4.66699 -26 -14c0 -4 2.5 -7.83301 7.5 -11.5s11.167 -5.5 18.5 -5.5h284c13.333 0 20 4.66699 20 14c0 11.333 -6.66699 17 -20 17c-32.667 0 -56.667 6.33301 -72 19s-23 32.667 -23 60v307v14
c0 4.66699 0.333008 9.33398 1 14.001c0 12 -2.33301 18 -7 18c-5.33301 0 -16.166 -6.83301 -32.499 -20.5s-38.833 -23.834 -67.5 -30.501s-59 -10 -91 -10c-15.333 0 -23 -5.33301 -23 -16s7.66699 -16 23 -16h15c20.667 0 38.334 -4 53.001 -12s23.667 -25 27 -51z" />
    <glyph glyph-name="eth" unicode="&#xf0;" horiz-adv-x="551" 
 />
    <glyph glyph-name="ntilde" unicode="&#xf1;" 
d="M118 661c0 4 -0.330078 5.99805 -0.99707 5.99805s-3 -2 -7 -6c-14 -20 -24.333 -43.333 -31 -70c-4 -10.667 -7.33301 -21.667 -10 -33s-4 -22.333 -4 -33c0 -12 1.66699 -23.167 5 -33.5s9 -19.166 17 -26.499c14 -18 31.5 -29.167 52.5 -33.5s47.833 -6.5 80.5 -6.5
c2.66699 0 6.66699 -1.33301 12 -4s9.33301 -4 12 -4c-5.33301 -38 -9.66602 -71 -12.999 -99s-5 -53.333 -5 -76v-21.5c0 -7 0.666992 -14.833 2 -23.5c0 -3.33301 -1.33301 -5.5 -4 -6.5s-6.33398 -1.5 -11.001 -1.5h-142c-10.667 0 -16 -8 -16 -24l-55 -149
c0 -8 0.666992 -12.667 2 -14s6 -2 14 -2h220c28 0 46.833 14.167 56.5 42.5s14.5 61.5 14.5 99.5c0 4.66699 0.333008 10.334 1 17.001s1 13.667 1 21c0 26.667 -2.66699 52 -8 76s-13.666 51.667 -24.999 83c-4 15.333 -6 30 -6 44c0 12.667 3.16699 35 9.5 67
s9.5 54.333 9.5 67c0 12 -0.833008 22 -2.5 30s-6.33398 19 -14.001 33s-21.834 24.667 -42.501 32l-96 26c-6.66699 0 -10.834 2.33301 -12.501 7s-2.83398 10 -3.50098 16zM157.003 597.998c15.333 21.333 30.167 37 44.5 47s31.5 15 51.5 15
c16.667 0 37.334 -4.66699 62.001 -14c8.66699 -4.66699 19.167 -9.83398 31.5 -15.501s24.833 -8.5 37.5 -8.5c10.667 0 20 2.16699 28 6.5s14.167 11.5 18.5 21.5s8.83301 15 13.5 15c7.33301 0 11 -5 11 -15c0 -5.33301 -4 -16.666 -12 -33.999
s-23.833 -33.333 -47.5 -48s-46.5 -22 -68.5 -22c-10 0 -19.333 1.66699 -28 5c-46.667 25.333 -77.667 38 -93 38c-12.667 0 -23.334 -4.33301 -32.001 -13s-15 -13 -19 -13c-5.33301 0 -8 3 -8 9s3.33301 14.667 10 26z" />
    <glyph glyph-name="ograve" unicode="&#xf2;" horiz-adv-x="551" 
d="M268 457c-79.333 0 -140.833 -23.167 -184.5 -69.5s-65.5 -101.833 -65.5 -166.5c0 -66 22.833 -123.333 68.5 -172s108.834 -73 189.501 -73c76.667 0 138 25.167 184 75.5s69 108.833 69 175.5c0 63.333 -22.333 117.5 -67 162.5s-109.334 67.5 -194.001 67.5zM268 433
c51.333 0 90.834 -20.833 118.501 -62.5s41.5 -91.834 41.5 -150.501s-13.667 -110 -41 -154s-64.333 -66 -111 -66c-49.333 0 -87.5 20.833 -114.5 62.5s-40.5 91.834 -40.5 150.501s13.167 110 39.5 154s62.166 66 107.499 66zM173.001 575l165.999 -63.002
c19.333 -6.66699 33 -10 41 -10c6 0 9 2 9 6c0 2.66699 -2.66699 7.33398 -8 14.001s-11.666 13.667 -18.999 21l-102 103c-8.66699 10.667 -17.667 18.5 -27 23.5s-19 7.5 -29 7.5c-16.667 0 -31 -6 -43 -18s-18 -25.667 -18 -41c0 -19.333 10 -33.666 30 -42.999z" />
    <glyph glyph-name="oacute" unicode="&#xf3;" horiz-adv-x="551" 
d="M268 465c-79.333 0 -140.833 -23.167 -184.5 -69.5s-65.5 -101.833 -65.5 -166.5c0 -66 22.833 -123.333 68.5 -172s108.834 -73 189.501 -73c76.667 0 138 25.167 184 75.5s69 108.833 69 175.5c0 63.333 -22.333 117.5 -67 162.5s-109.334 67.5 -194.001 67.5zM268 441
c51.333 0 90.834 -20.833 118.501 -62.5s41.5 -91.834 41.5 -150.501s-13.667 -110 -41 -154s-64.333 -66 -111 -66c-49.333 0 -87.5 20.833 -114.5 62.5s-40.5 91.834 -40.5 150.501s13.167 110 39.5 154s62.166 66 107.499 66zM157.001 504h31.999l165 55
c18.667 6.66699 32.167 14.834 40.5 24.501s12.5 21.167 12.5 34.5c0 14.667 -6 27.667 -18 39s-26.667 17 -44 17c-11.333 0 -22.666 -2.83301 -33.999 -8.5s-23 -14.834 -35 -27.501z" />
    <glyph glyph-name="ocircumflex" unicode="&#xf4;" horiz-adv-x="551" 
d="M268 457c-79.333 0 -140.833 -23.167 -184.5 -69.5s-65.5 -101.833 -65.5 -166.5c0 -66 22.833 -123.333 68.5 -172s108.834 -73 189.501 -73c76.667 0 138 25.167 184 75.5s69 108.833 69 175.5c0 63.333 -22.333 117.5 -67 162.5s-109.334 67.5 -194.001 67.5zM268 433
c51.333 0 90.834 -20.833 118.501 -62.5s41.5 -91.834 41.5 -150.501s-13.667 -110 -41 -154s-64.333 -66 -111 -66c-49.333 0 -87.5 20.833 -114.5 62.5s-40.5 91.834 -40.5 150.501s13.167 110 39.5 154s62.166 66 107.499 66zM87.001 528
c-8 -8 -12.001 -14.333 -12.001 -19c0 -4 3.33301 -6 10 -6c12 0 25.667 5.66699 41 17l157 86l158 -94c14.667 -9.33301 26 -14 34 -14c4 0 6 1.66699 6 5c0 6 -5.33301 14.333 -16 25l-158 157l-13.5 14c-4.33301 4.66699 -8.83301 7 -13.5 7
c-7.33301 0 -16.666 -7 -27.999 -21z" />
    <glyph glyph-name="otilde" unicode="&#xf5;" horiz-adv-x="551" 
d="M268 457c-79.333 0 -140.833 -23.167 -184.5 -69.5s-65.5 -101.833 -65.5 -166.5c0 -66 22.833 -123.333 68.5 -172s108.834 -73 189.501 -73c76.667 0 138 25.167 184 75.5s69 108.833 69 175.5c0 63.333 -22.333 117.5 -67 162.5s-109.334 67.5 -194.001 67.5zM268 433
c51.333 0 90.834 -20.833 118.501 -62.5s41.5 -91.834 41.5 -150.501s-13.667 -110 -41 -154s-64.333 -66 -111 -66c-49.333 0 -87.5 20.833 -114.5 62.5s-40.5 91.834 -40.5 150.501s13.167 110 39.5 154s62.166 66 107.499 66zM142.001 591
c-4 -6 -6.66699 -11.1689 -8 -15.502s-2 -8.16602 -2 -11.499c0 -6 2.66699 -9 8 -9c4 0 10.333 4.33301 19 13s19 13 31 13c16 0 47 -12.667 93 -38c7.33301 -2.66699 16.333 -4 27 -4c23.333 0 46.666 7.16699 69.999 21.5s38.333 28.833 45 43.5s10.5 23.834 11.5 27.501
s1.5 7.16699 1.5 10.5c0 10 -3.33301 15 -10 15c-4.66699 0 -9 -4.66699 -13 -14s-10.333 -16.5 -19 -21.5s-18 -7.5 -28 -7.5c-12.667 0 -26.667 3.33301 -42 10c-14.667 8 -28.5 14.667 -41.5 20s-29.167 8 -48.5 8s-36.166 -5 -50.499 -15s-28.833 -25.333 -43.5 -46z
" />
    <glyph glyph-name="odieresis" unicode="&#xf6;" horiz-adv-x="551" 
d="M268 457c-79.333 0 -140.833 -23.167 -184.5 -69.5s-65.5 -101.833 -65.5 -166.5c0 -66 22.833 -123.333 68.5 -172s108.834 -73 189.501 -73c76.667 0 138 25.167 184 75.5s69 108.833 69 175.5c0 63.333 -22.333 117.5 -67 162.5s-109.334 67.5 -194.001 67.5zM268 433
c51.333 0 90.834 -20.833 118.501 -62.5s41.5 -91.834 41.5 -150.501s-13.667 -110 -41 -154s-64.333 -66 -111 -66c-49.333 0 -87.5 20.833 -114.5 62.5s-40.5 91.834 -40.5 150.501s13.167 110 39.5 154s62.166 66 107.499 66zM165.001 693c-21.333 0 -38 -6 -50 -18
s-18 -26.333 -18 -43c0 -17.333 6.16699 -32.5 18.5 -45.5s28.833 -19.5 49.5 -19.5c21.333 0 38 6 50 18s18 26.333 18 43c0 17.333 -6.16699 32.5 -18.5 45.5s-28.833 19.5 -49.5 19.5zM386.001 693c-19.333 0 -34.832 -6.5 -46.499 -19.5s-17.5 -28.167 -17.5 -45.5
c0 -16.667 6 -31 18 -43s30 -18 54 -18c20 0 35.667 6.33301 47 19s17 27.667 17 45c0 18 -6.33301 33.333 -19 46s-30.334 18 -53.001 16z" />
    <glyph glyph-name="divide" unicode="&#xf7;" horiz-adv-x="630" 
 />
    <glyph glyph-name="oslash" unicode="&#xf8;" horiz-adv-x="551" 
d="M378 433c-38.667 15.333 -76.998 23 -114.998 23c-69.333 0 -127.833 -23.5 -175.5 -70.5s-71.5 -102.167 -71.5 -165.5c0 -38.667 10.167 -75.5 30.5 -110.5s52.166 -66.167 95.499 -93.5l-40 -63c-8.66699 -15.333 -14.167 -25.5 -16.5 -30.5s-3.5 -8.5 -3.5 -10.5
c0 -4 4 -6 12 -6h16c4 0 7.5 2.33301 10.5 7s7.5 12.667 13.5 24l39 63c42 -14 80.333 -21 115 -21c72 0 128.667 24.167 170 72.5s62 104.833 62 169.5c0 41.333 -9.33301 79.5 -28 114.5s-46.334 62.167 -83.001 81.5l56 95c8 10.667 12 18.667 12 24
c0 4.66699 -4 7 -12 7h-16c-8 0 -13.5 -3 -16.5 -9s-5.5 -10.667 -7.5 -14zM362.002 402l-197 -330.998c-10 15.333 -16.5 32.833 -19.5 52.5s-4.5 45.5 -4.5 77.5v43.5c0 15 0.333008 30.5 1 46.5c4.66699 49.333 19 85.666 43 108.999s53 35 87 35
c16 0 32 -2.83301 48 -8.5s30 -13.834 42 -24.501zM378.002 362.002c10.667 -8 18.501 -24 23.501 -48s7.5 -68.333 7.5 -133c0 -55.333 -12.5 -98.333 -37.5 -129s-57.167 -46 -96.5 -46c-28.667 0 -57.334 8.33301 -86.001 25z" />
    <glyph glyph-name="ugrave" unicode="&#xf9;" 
d="M55 669c-2.66699 0 -5.6709 -2.16309 -9.00391 -6.49609s-5.66602 -7.16602 -6.99902 -8.49902c-12 -23.333 -21.333 -46.5 -28 -69.5s-10 -46.5 -10 -70.5c0 -14 1 -26.5 3 -37.5s5.33301 -21.5 10 -31.5s11.167 -17.167 19.5 -21.5s20.833 -9.16602 37.5 -14.499
c3.33301 0 9.16602 -1.16699 17.499 -3.5s15.5 -3.5 21.5 -3.5c1.33301 -2 2 -5.66699 2 -11s-1.66699 -13 -5 -23s-5 -17.333 -5 -22c-4 -18 -6 -35.667 -6 -53c0 -30 6.16699 -64.5 18.5 -103.5l35.5 -110.5c2.66699 -24.667 -13 -51.834 -47 -81.501
s-54.167 -49.334 -60.5 -59.001s-11.5 -22.334 -15.5 -38.001s-6 -31.834 -6 -48.501c0 -22 2.83301 -44.167 8.5 -66.5s11.834 -42 18.501 -59s11.667 -25.5 15 -25.5c12.667 25.333 32 50.833 58 76.5s51.167 49.334 75.5 71.001l76.5 66.5
c26.667 22.667 48.667 45.667 66 69c19.333 22 32.666 46.333 39.999 73s11 56.667 11 90c0 12.667 -0.666992 34.167 -2 64.5s-2 46.5 -2 48.5c0 28.667 14.333 67 43 115s43 83 43 105c0.666992 5.33301 1 9 1 11c0 25.333 -11.667 48.5 -35 69.5l-68 61.5
c-4.66699 2.66699 -7 7.33398 -7 14.001c0 16 -1.16699 25.167 -3.5 27.5s-4.16602 3.5 -5.49902 3.5s-12.166 -10.167 -32.499 -30.5s-37.166 -43.5 -50.499 -69.5s-20 -50.333 -20 -73c0 -6 1 -16.333 3 -31s17.333 -32.334 46 -53.001
c36.667 -21.333 62.667 -37.333 78 -48v-23c-7.33301 -14.667 -13.5 -28.667 -18.5 -42s-9.5 -28.333 -13.5 -45c-14 -31.333 -33.167 -58.833 -57.5 -82.5s-57.5 -51.167 -99.5 -82.5c0 35.333 -4.16699 73.666 -12.5 114.999s-19.833 79 -34.5 113
c0 3.33301 -1.16699 10.5 -3.5 21.5s-3.5 19.5 -3.5 25.5c0 8.66699 2.33301 16.667 7 24c4 2 8.66699 3 14 3s10.5 -1 15.5 -3s10.833 -4.66699 17.5 -8c6.66699 -4 11 -6 13 -6c0.666992 2 1.66699 4 3 6c6.66699 24 12.167 45.5 16.5 64.5s6.5 36.833 6.5 53.5
c0 24 -5 44.5 -15 61.5s-29.333 29.5 -58 37.5c-25.333 6 -50.666 12.333 -75.999 19c-6 3.33301 -9.66699 11.166 -11 23.499s-3 20.166 -5 23.499zM212.996 567.004l165 -63.001c19.333 -6.66699 33 -10 41 -10c6 0 9 2 9 6s-2.66699 9.33301 -8 16s-11.333 13 -18 19
l-103 103c-8.66699 10.667 -17.667 18.5 -27 23.5s-19 7.5 -29 7.5c-16 0 -30 -6 -42 -18s-18 -25.667 -18 -41c0 -19.333 10 -33.666 30 -42.999z" />
    <glyph glyph-name="uacute" unicode="&#xfa;" 
d="M55 669c-2.66699 0 -5.6709 -2.16309 -9.00391 -6.49609s-5.66602 -7.16602 -6.99902 -8.49902c-12 -23.333 -21.333 -46.5 -28 -69.5s-10 -46.5 -10 -70.5c0 -14 1 -26.5 3 -37.5s5.33301 -21.5 10 -31.5s11.167 -17.167 19.5 -21.5s20.833 -9.16602 37.5 -14.499
c3.33301 0 9.16602 -1.16699 17.499 -3.5s15.5 -3.5 21.5 -3.5c1.33301 -2 2 -5.66699 2 -11s-1.66699 -13 -5 -23s-5 -17.333 -5 -22c-4 -18 -6 -35.667 -6 -53c0 -30 6.16699 -64.5 18.5 -103.5l35.5 -110.5c2.66699 -24.667 -13 -51.834 -47 -81.501
s-54.167 -49.334 -60.5 -59.001s-11.5 -22.334 -15.5 -38.001s-6 -31.834 -6 -48.501c0 -22 2.83301 -44.167 8.5 -66.5s11.834 -42 18.501 -59s11.667 -25.5 15 -25.5c12.667 25.333 32 50.833 58 76.5s51.167 49.334 75.5 71.001l76.5 66.5
c26.667 22.667 48.667 45.667 66 69c19.333 22 32.666 46.333 39.999 73s11 56.667 11 90c0 12.667 -0.666992 34.167 -2 64.5s-2 46.5 -2 48.5c0 28.667 14.333 67 43 115s43 83 43 105c0.666992 5.33301 1 9 1 11c0 25.333 -11.667 48.5 -35 69.5l-68 61.5
c-4.66699 2.66699 -7 7.33398 -7 14.001c0 16 -1.16699 25.167 -3.5 27.5s-4.16602 3.5 -5.49902 3.5s-12.166 -10.167 -32.499 -30.5s-37.166 -43.5 -50.499 -69.5s-20 -50.333 -20 -73c0 -6 1 -16.333 3 -31s17.333 -32.334 46 -53.001
c36.667 -21.333 62.667 -37.333 78 -48v-23c-7.33301 -14.667 -13.5 -28.667 -18.5 -42s-9.5 -28.333 -13.5 -45c-14 -31.333 -33.167 -58.833 -57.5 -82.5s-57.5 -51.167 -99.5 -82.5c0 35.333 -4.16699 73.666 -12.5 114.999s-19.833 79 -34.5 113
c0 3.33301 -1.16699 10.5 -3.5 21.5s-3.5 19.5 -3.5 25.5c0 8.66699 2.33301 16.667 7 24c4 2 8.66699 3 14 3s10.5 -1 15.5 -3s10.833 -4.66699 17.5 -8c6.66699 -4 11 -6 13 -6c0.666992 2 1.66699 4 3 6c6.66699 24 12.167 45.5 16.5 64.5s6.5 36.833 6.5 53.5
c0 24 -5 44.5 -15 61.5s-29.333 29.5 -58 37.5c-25.333 6 -50.666 12.333 -75.999 19c-6 3.33301 -9.66699 11.166 -11 23.499s-3 20.166 -5 23.499zM164.996 496.004l118 134c22 24 45.667 36 71 36c17.333 0 31.833 -5.5 43.5 -16.5s17.5 -24.167 17.5 -39.5
c0 -12 -4.33301 -23.333 -13 -34s-22 -19 -40 -25l-165 -55h-32z" />
    <glyph glyph-name="ucircumflex" unicode="&#xfb;" 
d="M55 669c-2.66699 0 -5.6709 -2.16309 -9.00391 -6.49609s-5.66602 -7.16602 -6.99902 -8.49902c-12 -23.333 -21.333 -46.5 -28 -69.5s-10 -46.5 -10 -70.5c0 -14 1 -26.5 3 -37.5s5.33301 -21.5 10 -31.5s11.167 -17.167 19.5 -21.5s20.833 -9.16602 37.5 -14.499
c3.33301 0 9.16602 -1.16699 17.499 -3.5s15.5 -3.5 21.5 -3.5c1.33301 -2 2 -5.66699 2 -11s-1.66699 -13 -5 -23s-5 -17.333 -5 -22c-4 -18 -6 -35.667 -6 -53c0 -30 6.16699 -64.5 18.5 -103.5l35.5 -110.5c2.66699 -24.667 -13 -51.834 -47 -81.501
s-54.167 -49.334 -60.5 -59.001s-11.5 -22.334 -15.5 -38.001s-6 -31.834 -6 -48.501c0 -22 2.83301 -44.167 8.5 -66.5s11.834 -42 18.501 -59s11.667 -25.5 15 -25.5c12.667 25.333 32 50.833 58 76.5s51.167 49.334 75.5 71.001l76.5 66.5
c26.667 22.667 48.667 45.667 66 69c19.333 22 32.666 46.333 39.999 73s11 56.667 11 90c0 12.667 -0.666992 34.167 -2 64.5s-2 46.5 -2 48.5c0 28.667 14.333 67 43 115s43 83 43 105c0.666992 5.33301 1 9 1 11c0 25.333 -11.667 48.5 -35 69.5l-68 61.5
c-4.66699 2.66699 -7 7.33398 -7 14.001c0 16 -1.16699 25.167 -3.5 27.5s-4.16602 3.5 -5.49902 3.5s-12.166 -10.167 -32.499 -30.5s-37.166 -43.5 -50.499 -69.5s-20 -50.333 -20 -73c0 -6 1 -16.333 3 -31s17.333 -32.334 46 -53.001
c36.667 -21.333 62.667 -37.333 78 -48v-23c-7.33301 -14.667 -13.5 -28.667 -18.5 -42s-9.5 -28.333 -13.5 -45c-14 -31.333 -33.167 -58.833 -57.5 -82.5s-57.5 -51.167 -99.5 -82.5c0 35.333 -4.16699 73.666 -12.5 114.999s-19.833 79 -34.5 113
c0 3.33301 -1.16699 10.5 -3.5 21.5s-3.5 19.5 -3.5 25.5c0 8.66699 2.33301 16.667 7 24c4 2 8.66699 3 14 3s10.5 -1 15.5 -3s10.833 -4.66699 17.5 -8c6.66699 -4 11 -6 13 -6c0.666992 2 1.66699 4 3 6c6.66699 24 12.167 45.5 16.5 64.5s6.5 36.833 6.5 53.5
c0 24 -5 44.5 -15 61.5s-29.333 29.5 -58 37.5c-25.333 6 -50.666 12.333 -75.999 19c-6 3.33301 -9.66699 11.166 -11 23.499s-3 20.166 -5 23.499zM109.996 520.004l166 156.999c12 14.667 21.667 22 29 22c4 0 8.16699 -2.5 12.5 -7.5s8.83301 -9.83301 13.5 -14.5
l157 -157c11.333 -11.333 17 -19.666 17 -24.999c0 -3.33301 -2 -5 -6 -5c-6 0 -17.333 4.66699 -34 14l-158 94l-157 -86c-15.333 -11.333 -29 -17 -41 -17c-6.66699 0 -10 2.33301 -10 7s3.66699 10.667 11 18z" />
    <glyph glyph-name="udieresis" unicode="&#xfc;" 
d="M55 669c-2.66699 0 -5.6709 -2.16309 -9.00391 -6.49609s-5.66602 -7.16602 -6.99902 -8.49902c-12 -23.333 -21.333 -46.5 -28 -69.5s-10 -46.5 -10 -70.5c0 -14 1 -26.5 3 -37.5s5.33301 -21.5 10 -31.5s11.167 -17.167 19.5 -21.5s20.833 -9.16602 37.5 -14.499
c3.33301 0 9.16602 -1.16699 17.499 -3.5s15.5 -3.5 21.5 -3.5c1.33301 -2 2 -5.66699 2 -11s-1.66699 -13 -5 -23s-5 -17.333 -5 -22c-4 -18 -6 -35.667 -6 -53c0 -30 6.16699 -64.5 18.5 -103.5l35.5 -110.5c2.66699 -24.667 -13 -51.834 -47 -81.501
s-54.167 -49.334 -60.5 -59.001s-11.5 -22.334 -15.5 -38.001s-6 -31.834 -6 -48.501c0 -22 2.83301 -44.167 8.5 -66.5s11.834 -42 18.501 -59s11.667 -25.5 15 -25.5c12.667 25.333 32 50.833 58 76.5s51.167 49.334 75.5 71.001l76.5 66.5
c26.667 22.667 48.667 45.667 66 69c19.333 22 32.666 46.333 39.999 73s11 56.667 11 90c0 12.667 -0.666992 34.167 -2 64.5s-2 46.5 -2 48.5c0 28.667 14.333 67 43 115s43 83 43 105c0.666992 5.33301 1 9 1 11c0 25.333 -11.667 48.5 -35 69.5l-68 61.5
c-4.66699 2.66699 -7 7.33398 -7 14.001c0 16 -1.16699 25.167 -3.5 27.5s-4.16602 3.5 -5.49902 3.5s-12.166 -10.167 -32.499 -30.5s-37.166 -43.5 -50.499 -69.5s-20 -50.333 -20 -73c0 -6 1 -16.333 3 -31s17.333 -32.334 46 -53.001
c36.667 -21.333 62.667 -37.333 78 -48v-23c-7.33301 -14.667 -13.5 -28.667 -18.5 -42s-9.5 -28.333 -13.5 -45c-14 -31.333 -33.167 -58.833 -57.5 -82.5s-57.5 -51.167 -99.5 -82.5c0 35.333 -4.16699 73.666 -12.5 114.999s-19.833 79 -34.5 113
c0 3.33301 -1.16699 10.5 -3.5 21.5s-3.5 19.5 -3.5 25.5c0 8.66699 2.33301 16.667 7 24c4 2 8.66699 3 14 3s10.5 -1 15.5 -3s10.833 -4.66699 17.5 -8c6.66699 -4 11 -6 13 -6c0.666992 2 1.66699 4 3 6c6.66699 24 12.167 45.5 16.5 64.5s6.5 36.833 6.5 53.5
c0 24 -5 44.5 -15 61.5s-29.333 29.5 -58 37.5c-25.333 6 -50.666 12.333 -75.999 19c-6 3.33301 -9.66699 11.166 -11 23.499s-3 20.166 -5 23.499zM188.996 693.004c-21.333 0 -38 -6 -50 -18s-18 -26.333 -18 -43c0 -17.333 6.16699 -32.5 18.5 -45.5
s28.833 -19.5 49.5 -19.5c21.333 0 38 6 50 18s18 26.333 18 43c0 17.333 -6.16699 32.5 -18.5 45.5s-28.833 19.5 -49.5 19.5zM408.996 693.004c-19.333 0 -34.834 -6.5 -46.501 -19.5s-17.5 -28.167 -17.5 -45.5c0 -16.667 6 -31 18 -43s30 -18 54 -18
c20 0 35.667 6.33301 47 19s17 27.667 17 45c0 18.667 -6.16699 34.167 -18.5 46.5s-30.166 17.5 -53.499 15.5z" />
    <glyph glyph-name="yacute" unicode="&#xfd;" horiz-adv-x="496" 
 />
    <glyph glyph-name="thorn" unicode="&#xfe;" 
 />
    <glyph glyph-name="ydieresis" unicode="&#xff;" horiz-adv-x="496" 
d="M39 669c-3.33301 0 -6.3291 -2.16895 -8.99609 -6.50195s-4.66699 -7.16602 -6 -8.49902c-8 -16 -14 -33 -18 -51s-6 -35.333 -6 -52c0 -26.667 3.66699 -47.667 11 -63s16.666 -25.666 27.999 -30.999c8.66699 -6.66699 18.167 -11.167 28.5 -13.5s22.5 -3.5 36.5 -3.5
h22.5c7.66699 0 15.5 0.333008 23.5 1l17.5 -9.5c5.66699 -3 10.167 -8.16699 13.5 -15.5s5.66602 -15 6.99902 -23s2 -16 2 -24c0 -12 -0.5 -20.667 -1.5 -26s-2.66699 -13.5 -5 -24.5l-4.5 -21.5c0 -4.66699 3 -5.5 9 -2.5s12 10.667 18 23s11.167 29.166 15.5 50.499
s6.5 40.333 6.5 57c2 14 3 27.333 3 40c0 14.667 -0.833008 28.334 -2.5 41.001s-5.33398 31.5 -11.001 56.5s-17.5 42 -35.5 51s-30.833 14 -38.5 15s-17.834 1.5 -30.501 1.5c-12 0 -22.5 0.5 -31.5 1.5s-17.833 3.16699 -26.5 6.5c-2.66699 0 -5.5 4.66699 -8.5 14
s-5.5 15 -7.5 17zM134.004 692.998c-21.333 0 -38 -6 -50 -18s-18 -26.333 -18 -43c0 -17.333 6.16699 -32.5 18.5 -45.5s28.833 -19.5 49.5 -19.5c21.333 0 38 6 50 18s18 26.333 18 43c0 17.333 -6.16699 32.5 -18.5 45.5s-28.833 19.5 -49.5 19.5zM354.004 692.998
c-19.333 0 -34.834 -6.5 -46.501 -19.5s-17.5 -28.167 -17.5 -45.5c0 -16.667 6 -31 18 -43s30 -18 54 -18c20 0 35.667 6.33301 47 19s17 27.667 17 45c0 18.667 -6.16699 34.167 -18.5 46.5s-30.166 17.5 -53.499 15.5z" />
    <glyph glyph-name="dotlessi" unicode="&#x131;" horiz-adv-x="339" 
d="M134 307l-0.00195312 -188.999c0 -38.667 -7.5 -62.834 -22.5 -72.501s-36.5 -14.5 -64.5 -14.5c-17.333 0 -26 -4.66699 -26 -14c0 -4 2.5 -7.83301 7.5 -11.5s11.167 -5.5 18.5 -5.5h284c13.333 0 20 4.66699 20 14c0 11.333 -6.66699 17 -20 17
c-32.667 0 -56.667 6.33301 -72 19s-23 32.667 -23 60v307v14c0 4.66699 0.333008 9.33398 1 14.001c0 12 -2.33301 18 -7 18c-5.33301 0 -16.166 -6.83301 -32.499 -20.5s-38.833 -23.834 -67.5 -30.501s-59 -10 -91 -10c-15.333 0 -23 -5.33301 -23 -16
s7.66699 -16 23 -16h15c20.667 0 38.334 -4 53.001 -12s23.667 -25 27 -51z" />
    <glyph glyph-name="OE" unicode="&#x152;" horiz-adv-x="1205" 
d="M630 622c-27.333 41.333 -64.168 70.001 -110.501 86.001s-90.833 24 -133.5 24c-119.333 0 -210.333 -35.167 -273 -105.5s-94 -155.5 -94 -255.5c0 -102.667 31.167 -192.834 93.5 -270.501s145.5 -116.5 249.5 -116.5h22c49.333 0 97.166 7 143.499 21
s83.166 43.667 110.499 89v-63c0 -22.667 8 -34 24 -34c4.66699 0 12 0.5 22 1.5s15.667 1.5 17 1.5h244c46.667 -0 80 -4.16699 100 -12.5s31.833 -21.333 35.5 -39s7.5 -26.5 11.5 -26.5c2.66699 0 6.33398 4.33301 11.001 13s9.66699 20 15 34l102 220
c1.33301 2.66699 2.5 5.66699 3.5 9s1.5 6.66602 1.5 9.99902c0 7.33301 -2.66699 11 -8 11c-8 0 -22.333 -18.667 -43 -56s-58.334 -70.833 -113.001 -100.5s-109.334 -44.5 -164.001 -44.5c-44 0 -79.833 9.33301 -107.5 28s-41.5 45.334 -41.5 80.001v244h134
c56.667 0 91.834 -14.167 105.501 -42.5s20.5 -58.833 20.5 -91.5c0 -11.333 4 -17 12 -17c7.33301 0 11 5.66699 11 17v284c0 15.333 -3.66699 23 -11 23c-8 0 -12 -7.66699 -12 -23c0 -36.667 -11.167 -66.834 -33.5 -90.501s-53.166 -35.5 -92.499 -35.5h-134v204
c0 27.333 9 48.666 27 63.999s43 23 75 23c62.667 0 121.334 -13.167 176.001 -39.5s93.334 -55.166 116.001 -86.499c14.667 -17.333 25.334 -26 32.001 -26c3.33301 0 5 2.33301 5 7s-2 11 -6 19l-79 173c-8 25.333 -15 38 -21 38
c-4.66699 0 -9.83398 -5.66699 -15.501 -17s-16.834 -20.166 -33.501 -26.499s-37.667 -9.5 -63 -9.5h-268c-31.333 0 -49.666 -1.66699 -54.999 -5s-8 -15 -8 -35v-55zM385.998 709.001c87.333 0 154.501 -34 201.501 -102s70.5 -149 70.5 -243
c0 -96 -23.333 -179.667 -70 -251s-111 -107 -193 -107h-16c-8 1.33301 -29.333 3.83301 -64 7.5s-71.834 42 -111.501 115s-59.5 155.833 -59.5 248.5c0 92 20.667 170.333 62 235s101.333 97 180 97z" />
    <glyph glyph-name="oe" unicode="&#x153;" horiz-adv-x="921" 
d="M472 354c-24.667 42 -54.501 71.001 -89.501 87.001s-70.5 24 -106.5 24c-79.333 0 -140.833 -23.833 -184.5 -71.5s-65.5 -104.167 -65.5 -169.5c0 -64.667 20.833 -120.834 62.5 -168.501s98.834 -71.5 171.501 -71.5c38 0 73.333 6.66699 106 20s65.667 38.333 99 75
c29.333 -33.333 60.333 -57.666 93 -72.999s65.667 -23 99 -23c48.667 0 94.167 12.667 136.5 38s69.333 47.666 81 66.999s17.5 33 17.5 41c0 6 -2.33301 9 -7 9c-7.33301 0 -25 -17 -53 -51s-71 -51 -129 -51c-41.333 0 -78.833 14.333 -112.5 43
s-57.167 70.667 -70.5 126l307 118c17.333 7.33301 30.5 13.5 39.5 18.5s13.5 9.16699 13.5 12.5c0 4.66699 -7.16699 10 -21.5 16s-29.166 17.167 -44.499 33.5s-29.333 28.833 -42 37.5c-24 14 -54.333 21 -91 21c-41.333 0 -81.833 -9.5 -121.5 -28.5
s-68.834 -45.5 -87.501 -79.5zM275.999 441.001c46.667 0 83.499 -21.501 110.499 -64.501s40.5 -93.833 40.5 -152.5c0 -59.333 -14.333 -110.166 -43 -152.499s-70 -63.5 -124 -63.5c-44.667 0 -79.167 20 -103.5 60s-36.5 88 -36.5 144c0 60.667 13.833 114 41.5 160
s65.834 69 114.501 69zM731.998 315l-220 -86.999c-4 14 -6 28.333 -6 43c0 42 13.167 79.333 39.5 112s57.833 49 94.5 49c42.667 0 81.334 -26 116.001 -78c4 -6.66699 6 -12.334 6 -17.001c0 -3.33301 -2.33301 -7 -7 -11s-12.334 -7.66699 -23.001 -11z" />
    <glyph glyph-name="florin" unicode="&#x192;" 
d="M244 465l-94.001 -457c-6 -32.667 -20.5 -62.834 -43.5 -90.501s-44.167 -41.5 -63.5 -41.5c-12 0 -22 9.5 -30 28.5s-17.5 33.667 -28.5 44s-22.833 15.5 -35.5 15.5c-14.667 0 -25.834 -5.16699 -33.501 -15.5s-11.5 -19.5 -11.5 -27.5
c0 -18.667 10.833 -35.167 32.5 -49.5s48.167 -21.5 79.5 -21.5c44 0 87.833 11.167 131.5 33.5s75.834 66.5 96.501 132.5l95 449h102c15.333 0 23 5 23 15c0 10.667 -7.66699 16 -23 16h-95l16 90c6.66699 22 16 42.5 28 61.5s24.333 32.667 37 41
s25.334 12.5 38.001 12.5c12 0 22.333 -4 31 -12s14 -19 16 -33s7.5 -24.5 16.5 -31.5s19.167 -10.5 30.5 -10.5c13.333 0 24.833 3.83301 34.5 11.5s14.5 18.167 14.5 31.5c0 2.66699 -1.5 10.5 -4.5 23.5s-15.333 24.833 -37 35.5s-50.5 16 -86.5 16
c-72.667 0 -125.667 -25.667 -159 -77c-25.333 -61.333 -43 -101.333 -53 -120c-10.667 -17.333 -23.5 -28.166 -38.5 -32.499s-33.833 -6.5 -56.5 -6.5c-11.333 0 -17 -5.33301 -17 -16c0 -10 5.66699 -15 17 -15h71z" />
    <glyph glyph-name="circumflex" unicode="&#x2c6;" horiz-adv-x="535" 
d="M87 535c-8 -8 -12.002 -14 -12.002 -18s3.33301 -6 10 -6c12 0 25.667 5.66699 41 17l157 86l158 -94c14.667 -9.33301 26 -14 34 -14c5.33301 0 7.33301 2.5 6 7.5s-6.66602 12.167 -15.999 21.5l-158 158l-13.5 14c-4.33301 4.66699 -8.83301 7 -13.5 7
c-7.33301 0 -16.666 -7 -27.999 -21z" />
    <glyph glyph-name="breve" unicode="&#x2d8;" horiz-adv-x="425" 
d="M102 646c-7.33301 10 -14.333 15.001 -21 15.001c-8 0 -12 -6.33301 -12 -19c0 -2.66699 0.666992 -6.66699 2 -12c14 -30.667 34.333 -53.667 61 -69s55 -23 85 -23c32.667 0 62.5 8.16699 89.5 24.5s43.5 32.666 49.5 48.999s9 26.833 9 31.5
c0 9.33301 -3.66699 14 -11 14c-3.33301 0 -7.83301 -1.66699 -13.5 -5s-13 -9.5 -22 -18.5s-22.167 -16.333 -39.5 -22s-36.666 -8.5 -57.999 -8.5c-24.667 0 -47.834 3.83301 -69.501 11.5s-38.167 18.167 -49.5 31.5z" />
    <glyph glyph-name="ring" unicode="&#x2da;" horiz-adv-x="299" 
d="M157 709c-24.667 0 -44.667 -8.33105 -60 -24.998s-23 -36 -23 -58c0 -20.667 7 -38.334 21 -53.001s34.667 -22 62 -22c25.333 0 45 7.66699 59 23s21 33.333 21 54c0 21.333 -7.16699 40.166 -21.5 56.499s-33.833 24.5 -58.5 24.5zM157 677.002
c14.667 0 26.167 -4.83203 34.5 -14.499s12.5 -20.5 12.5 -32.5c0 -12.667 -4 -23.667 -12 -33s-19.667 -14 -35 -14c-17.333 0 -30.5 4.16699 -39.5 12.5s-13.5 18.5 -13.5 30.5c0 13.333 4.83301 25.166 14.5 35.499s22.5 15.5 38.5 15.5z" />
    <glyph glyph-name="tilde" unicode="&#x2dc;" horiz-adv-x="441" 
d="M79 598c-4 -6 -6.66797 -11.168 -8.00098 -15.501s-2 -8.16602 -2 -11.499c0 -5.33301 2.66699 -8 8 -8c4 0 10.333 4.33301 19 13s19 13 31 13c16 0 47 -12.667 93 -38c8.66699 -3.33301 18 -5 28 -5c23.333 0 46.5 7.16699 69.5 21.5s38.333 30 46 47
s11.5 28.833 11.5 35.5c0 10 -3.33301 15 -10 15c-4 0 -8.16699 -4.66699 -12.5 -14s-10.833 -16.5 -19.5 -21.5s-18 -7.5 -28 -7.5c-12.667 0 -26.667 3.33301 -42 10c-14.667 8 -28.5 14.667 -41.5 20s-29.167 8 -48.5 8s-36.166 -5 -50.499 -15
s-28.833 -25.667 -43.5 -47z" />
    <glyph glyph-name="endash" unicode="&#x2013;" horiz-adv-x="504" 
d="M39 283l-39 -86h504l39 86h-504z" />
    <glyph glyph-name="emdash" unicode="&#x2014;" horiz-adv-x="1000" 
d="M39 291l-39 -86h8h1000l47 86h-16h-1000z" />
    <glyph glyph-name="quoteleft" unicode="&#x2018;" horiz-adv-x="299" 
d="M110 551c-2 5.33301 -2.99902 11 -2.99902 17c0 20 8.83301 44 26.5 72s33.167 45.833 46.5 53.5s20 14.834 20 21.501c0 7.33301 -6 11 -18 11c-2 0 -9.66699 -2.5 -23 -7.5s-33 -25 -59 -60s-39 -72.5 -39 -112.5v-13c1.33301 -6 3 -16.167 5 -30.5
s13 -29.833 33 -46.5s41 -25 63 -25c19.333 0 35.166 6.16699 47.499 18.5s18.5 30.5 18.5 54.5c0 17.333 -5.66699 31.666 -17 42.999s-27 17 -47 17c-16.667 0 -34.667 -4.33301 -54 -13z" />
    <glyph glyph-name="quoteright" unicode="&#x2019;" horiz-adv-x="299" 
d="M205 575c-5.33301 -22.667 -11.667 -40.834 -19 -54.501s-20.166 -28.167 -38.499 -43.5s-27.5 -26.333 -27.5 -33c0 -4.66699 3.33301 -7 10 -7c12 0 27.5 7.66699 46.5 23s36.167 39.5 51.5 72.5s23 64.5 23 94.5c0 26 -6.33301 47.833 -19 65.5
s-32.334 28.167 -59.001 31.5c-25.333 0 -45.333 -8 -60 -24s-22 -34 -22 -54c0 -15.333 4.33301 -28.166 13 -38.499s21 -15.5 37 -15.5c9.33301 0 20 2 32 6c4.66699 2.66699 10.667 4 18 4c10.667 0 16 -5.33301 16 -16z" />
    <glyph glyph-name="quotedblleft" unicode="&#x201c;" horiz-adv-x="551" 
d="M354 559c-2 5.33301 -3 10.334 -3 15.001c0 20 8.83301 44.333 26.5 73s33.167 46.667 46.5 54s20 14.333 20 21c0 8 -6.33301 12 -19 12c-1.33301 0 -8.66602 -2.5 -21.999 -7.5s-33 -25 -59 -60s-39 -72.5 -39 -112.5v-13c1.33301 -6 3 -16.167 5 -30.5
s13 -29.833 33 -46.5s41 -25 63 -25c19.333 0 35.166 6.16699 47.499 18.5s18.5 30.5 18.5 54.5c0 17.333 -5.66699 31.666 -17 42.999s-27 17 -47 17c-16.667 0 -34.667 -4.33301 -54 -13zM110 559.001c-2 5.33301 -3 10.668 -3 16.001c0 20.667 8.66699 45 26 73
s32.833 45.667 46.5 53s20.5 14.333 20.5 21c0 8 -6.33301 12 -19 12c-1.33301 0 -8.66602 -2.5 -21.999 -7.5s-33 -25 -59 -60s-39 -72.5 -39 -112.5v-13c1.33301 -6 3 -16.167 5 -30.5s13 -29.833 33 -46.5s41 -25 63 -25c19.333 0 35.166 6.16699 47.499 18.5
s18.5 30.5 18.5 54.5c0 17.333 -5.66699 31.666 -17 42.999s-27 17 -47 17c-16.667 0 -34.667 -4.33301 -54 -13z" />
    <glyph glyph-name="quotedblright" unicode="&#x201d;" horiz-adv-x="551" 
d="M449 575c-5.33301 -22.667 -11.667 -40.833 -19 -54.5s-20.166 -28.334 -38.499 -44.001s-27.5 -26.5 -27.5 -32.5c0 -4.66699 3.33301 -7 10 -7c12 0 27.5 7.66699 46.5 23s36.167 39.5 51.5 72.5s23 64.5 23 94.5c0 26 -6.33301 47.833 -19 65.5
s-32.334 28.167 -59.001 31.5c-25.333 0 -45.333 -8 -60 -24s-22 -34 -22 -54c0 -15.333 4.33301 -28.166 13 -38.499s21 -15.5 37 -15.5c9.33301 0 20 2 32 6c4.66699 2.66699 10.667 4 18 4c10.667 0 16 -5.33301 16 -16zM204.999 575.001
c-5.33301 -22.667 -11.667 -40.834 -19 -54.501s-20.166 -28.167 -38.499 -43.5s-27.5 -26.333 -27.5 -33c0 -4.66699 3.33301 -7 10 -7c12 0 27.5 7.66699 46.5 23s36.167 39.5 51.5 72.5s23 64.5 23 94.5c0 26 -6.33301 47.833 -19 65.5s-32.334 28.167 -59.001 31.5
c-25.333 0 -45.333 -8 -60 -24s-22 -34 -22 -54c0 -15.333 4.33301 -28.166 13 -38.499s21 -15.5 37 -15.5c9.33301 0 20 2 32 6c4.66699 2.66699 10.667 4 18 4c10.667 0 16 -5.33301 16 -16z" />
    <glyph glyph-name="quotedblbase" unicode="&#x201e;" horiz-adv-x="551" 
d="M433 -39c-5.33301 -22.667 -11.668 -40.834 -19.001 -54.501s-20 -28.167 -38 -43.5s-27 -26.333 -27 -33c0 -4.66699 3.33301 -7 10 -7c11.333 0 26.833 7.83301 46.5 23.5s37 39.5 52 71.5s22.5 63.333 22.5 94c0 26.667 -6.33301 48.834 -19 66.501
s-32.334 28.167 -59.001 31.5c-25.333 0 -45.5 -7.83301 -60.5 -23.5s-22.5 -33.834 -22.5 -54.501c0 -15.333 4.33301 -28.166 13 -38.499s21.334 -15.5 38.001 -15.5c9.33301 0 20 2 32 6c4.66699 2.66699 10.334 4 17.001 4c10.667 0 16 -5.33301 16 -16zM180.998 -39
c-5.33301 -22.667 -11.668 -40.834 -19.001 -54.501s-20 -28.167 -38 -43.5s-27 -26.333 -27 -33c0 -4.66699 3.33301 -7 10 -7c11.333 0 26.833 7.83301 46.5 23.5s37 39.5 52 71.5s22.5 63.333 22.5 94c0 26.667 -6.33301 48.834 -19 66.501s-32.334 28.167 -59.001 31.5
c-25.333 0 -45.5 -7.83301 -60.5 -23.5s-22.5 -33.834 -22.5 -54.501c0 -15.333 4.33301 -28.166 13 -38.499s21.334 -15.5 38.001 -15.5c9.33301 0 20 2 32 6c4.66699 2.66699 10.334 4 17.001 4c10.667 0 16 -5.33301 16 -16z" />
    <glyph glyph-name="dagger" unicode="&#x2020;" 
d="M291 465c-21.333 0 -41.334 6.5 -60.001 19.5s-38 19.5 -58 19.5c-20 2 -35.333 -2.33301 -46 -13s-16 -23.667 -16 -39c0 -14 4.33301 -26 13 -36s20.667 -15 36 -15c6 0 11.333 0.5 16 1.5s22.167 7.66699 52.5 20s51.166 18.5 62.499 18.5
c0.666992 -2.66699 1 -7.33398 1 -14.001c0 -19.333 -5.5 -42 -16.5 -68s-24.167 -48.667 -39.5 -68c19.333 -46.667 32.333 -98.5 39 -155.5s10 -118.833 10 -185.5c0 -18.667 -0.333008 -47 -1 -85s-1 -66.333 -1 -85h32c0 80.667 0.833008 147.334 2.5 200.001
s6.5 105.834 14.5 159.501s20.667 104.167 38 151.5c-15.333 20.667 -28.333 43 -39 67s-16 51.667 -16 83c10 2.66699 28.167 -2.66602 54.5 -15.999s47.5 -21 63.5 -23c20 -2 35.333 1.5 46 10.5s16 20.5 16 34.5c0 14.667 -5.66699 27 -17 37s-26.333 14 -45 12
c-12.667 0 -33.167 -5.16699 -61.5 -15.5s-47.166 -15.5 -56.499 -15.5c-0.666992 4 -1 9.66699 -1 17c0 20 8 49.667 24 89s24 69.333 24 90c0 20 -5.33301 35.333 -16 46s-24 16 -40 16c-15.333 0 -28.666 -5.66699 -39.999 -17s-16 -26.333 -14 -45
c0 -11.333 6.66699 -38.333 20 -81s20 -74.334 20 -95.001c0 -8.66699 -0.333008 -15.334 -1 -20.001z" />
    <glyph glyph-name="daggerdbl" unicode="&#x2021;" 
d="M299 465c-17.333 0 -40.499 6.33496 -69.499 19.002s-45.333 19.334 -49 20.001s-8.83398 1 -15.501 1c-14.667 0 -26.167 -4.5 -34.5 -13.5s-12.5 -19.833 -12.5 -32.5c0 -14 4.33301 -26 13 -36s21 -15 37 -15c5.33301 0 9.66602 0.333008 12.999 1
c6.66699 0 23.667 5.5 51 16.5s46.333 16.5 57 16.5c4.66699 0 8 -0.333008 10 -1c0 -36 -5.33301 -70.333 -16 -103s-23.667 -61.334 -39 -86.001l33 -77c14.667 -40.667 22 -80.667 22 -120c-10 -2.66699 -30.833 2 -62.5 14s-55.5 18 -71.5 18
c-16.667 -2 -29.5 -7.33301 -38.5 -16s-13.5 -18.334 -13.5 -29.001c0 -13.333 5.33301 -25 16 -35s25.334 -15 44.001 -15c16 0 37 6.5 63 19.5s47 19.5 63 19.5c0 -36 -4 -66.333 -12 -91l-35 -97c-2 -21.333 2.66699 -38 14 -50s25.333 -18 42 -18
c14.667 0 27.5 4.83301 38.5 14.5s16.5 23.167 16.5 40.5c0 5.33301 -3.5 23.166 -10.5 53.499l-30.5 130.5c0 7.33301 0.333008 13 1 17c7.33301 0 25.666 -6.5 54.999 -19.5s47.666 -19.5 54.999 -19.5c4 -0.666992 9.33301 -1 16 -1c16.667 0 29.667 5 39 15
s14 22.333 14 37c0 12 -4.16699 22.5 -12.5 31.5s-20.166 13.5 -35.499 13.5c-5.33301 0 -9.66602 -0.333008 -12.999 -1c-5.33301 0 -24.666 -6 -57.999 -18s-53.333 -16.667 -60 -14c-0.666992 3.33301 -1 9.33301 -1 18c0 26 5.66699 56.667 17 92s24.333 64.333 39 87
c-17.333 27.333 -30.833 54.5 -40.5 81.5s-14.5 62.833 -14.5 107.5c6.66699 2 23.167 -2.16699 49.5 -12.5s49.166 -16.833 68.499 -19.5c18.667 -2 34.167 2.5 46.5 13.5s18.5 23.5 18.5 37.5c0 13.333 -5 24 -15 32s-26.667 12 -50 12c-10.667 0 -30.667 -6.5 -60 -19.5
s-48.666 -19.5 -57.999 -19.5c0 35.333 6.5 75.5 19.5 120.5s19.5 72.833 19.5 83.5c0 17.333 -5.16699 31.5 -15.5 42.5s-22.833 16.5 -37.5 16.5c-12.667 0 -24.334 -5 -35.001 -15s-18 -24.667 -22 -44c-2.66699 -12 4.5 -41.5 21.5 -88.5s25.5 -85.5 25.5 -115.5z" />
    <glyph glyph-name="bullet" unicode="&#x2022;" horiz-adv-x="559" 
d="M150 362c-20.667 0 -37 -6.66699 -49 -20s-18 -29 -18 -47c0 -18.667 6.16699 -34.5 18.5 -47.5s30.833 -19.5 55.5 -19.5c19.333 0 34.833 7 46.5 21s17.5 30.333 17.5 49c0 18 -5.83301 33.167 -17.5 45.5s-29.5 18.5 -53.5 18.5z" />
    <glyph glyph-name="ellipsis" unicode="&#x2026;" horiz-adv-x="1000" 
d="M827 118c-20.667 0 -37 -6.66797 -49 -20.001s-18 -29 -18 -47c0 -18.667 6.5 -34.5 19.5 -47.5s31.5 -19.5 55.5 -19.5c19.333 0 34.833 6.83301 46.5 20.5s17.5 29.834 17.5 48.501c0 18 -6 33.333 -18 46s-30 19 -54 19zM496 117.999
c-20.667 0 -37 -6.66797 -49 -20.001s-18 -29 -18 -47c0 -18.667 6.5 -34.5 19.5 -47.5s31.5 -19.5 55.5 -19.5c19.333 0 34.833 6.83301 46.5 20.5s17.5 29.834 17.5 48.501c0 18 -6 33.333 -18 46s-30 19 -54 19zM157 117.998c-20 0 -36 -6.66797 -48 -20.001
s-18 -29 -18 -47c0 -18.667 6.16699 -34.5 18.5 -47.5s30.833 -19.5 55.5 -19.5c19.333 0 34.833 6.83301 46.5 20.5s17.5 29.834 17.5 48.501c0 18 -6 33.333 -18 46s-30 19 -54 19z" />
    <glyph glyph-name="perthousand" unicode="&#x2030;" horiz-adv-x="1071" 
d="M520 677l-347 -653c-2 -4 -3 -7.66699 -3 -11c0 -8.66699 6.33301 -13 19 -13c13.333 0 23.666 8 30.999 24l355 661c2 7.33301 3 12.333 3 15c0 6 -6.33301 9 -19 9c-12 0 -20.667 -3.83301 -26 -11.5s-9.66602 -14.5 -12.999 -20.5zM157 709
c-41.333 0 -74.499 -19.166 -99.499 -57.499s-37.5 -82.833 -37.5 -133.5c0 -48.667 12.5 -90.667 37.5 -126s60.833 -53 107.5 -53c43.333 0 76.666 17.167 99.999 51.5s35 76.166 35 125.499c0 51.333 -12.667 96.333 -38 135s-60.333 58 -105 58zM157.001 685.001
c28.667 0 50.334 -14.833 65.001 -44.5s22 -66.167 22 -109.5c0 -44.667 -7.33301 -84 -22 -118s-33.667 -51 -57 -51c-28.667 0 -50.334 14.5 -65.001 43.5s-22 64.5 -22 106.5c0 44 7.33301 83.333 22 118s33.667 53 57 55zM583.001 362.001
c-43.333 0 -77.833 -19.668 -103.5 -59.001s-38.5 -84.666 -38.5 -135.999c0 -50 12.333 -93 37 -129s59.667 -54 105 -54c42.667 0 75.5 17.667 98.5 53s34.5 77.666 34.5 126.999c0 52.667 -12 98.834 -36 138.501s-56.333 59.5 -97 59.5zM575.001 339
c26 0 46.333 -16.499 61 -49.499s22 -71.833 22 -116.5c0 -44 -7.33301 -82.5 -22 -115.5s-35 -49.5 -61 -49.5c-22 0 -39.333 15.667 -52 47s-19 68.666 -19 111.999c0 42.667 6.33301 81 19 115s30 53 52 57zM921.001 362.001c-48 0 -85.333 -18.9971 -112 -56.9971
s-40 -83 -40 -135c0 -50.667 12 -94.334 36 -131.001s57.667 -55 101 -55c49.333 0 87 18.167 113 54.5s39 80.166 39 131.499s-12.167 96.166 -36.5 134.499s-57.833 57.5 -100.5 57.5zM921.001 339.004c23.333 0 42.332 -17.499 56.999 -52.499s22 -75.5 22 -121.5
c0 -44 -7.16699 -81.167 -21.5 -111.5s-36.166 -45.5 -65.499 -45.5c-28 0 -49.667 15.667 -65 47s-23 68.666 -23 111.999c0 48.667 8.5 90.5 25.5 125.5s40.5 50.5 70.5 46.5z" />
    <glyph glyph-name="guilsinglleft" unicode="&#x2039;" horiz-adv-x="205" 
d="M31 268c-6.66699 -6 -11.834 -10.8301 -15.501 -14.4971s-5.5 -7.83398 -5.5 -12.501c0 -4 1.5 -8.16699 4.5 -12.5s8.5 -9.5 16.5 -15.5l95 -95c18.667 -18.667 31.334 -28 38.001 -28c3.33301 0 4.5 3 3.5 9s-4.5 15 -10.5 27l-63 110l63 110
c6.66699 13.333 10 22.666 10 27.999c0 4.66699 -3.33301 6.16699 -10 4.5s-17 -9.83398 -31 -24.501z" />
    <glyph glyph-name="guilsinglright" unicode="&#x203a;" horiz-adv-x="205" 
d="M102 252l-55.001 -109.999c-7.33301 -12 -11 -21 -11 -27c2.66699 -0.666992 5.66699 -1.33398 9 -2.00098c6.66699 3.33301 15.334 10.333 26.001 21l94 86c16.667 12.667 25 21 25 25s-5.66699 11.667 -17 23l-102 110c-14.667 14.667 -25 22 -31 22
c-3.33301 0 -4.5 -3.16699 -3.5 -9.5s4.5 -15.833 10.5 -28.5z" />
    <glyph glyph-name="trademark" unicode="&#x2122;" horiz-adv-x="961" 
d="M165 685v-306.999c0 -14 -5.83301 -24 -17.5 -30s-26.834 -9 -45.501 -9v-24h189v24c-21.333 0 -37.166 2.66699 -47.499 8s-15.5 15.666 -15.5 30.999v307c46.667 0 78 -3.5 94 -10.5s24 -27.167 24 -60.5h24v95h-339v-87h24c0 18.667 6 34 18 46s35 18 69 18
c10 0 17.667 -0.333008 23 -1zM441 685.001c17.333 0 28.167 -3.99805 32.5 -11.998s6.5 -19.667 6.5 -35v-252c0 -17.333 -5.33301 -29.5 -16 -36.5s-23.667 -10.5 -39 -10.5v-24h134v24l-35 8c-8 5.33301 -12 18.333 -12 39v275l149 -346h8l150 346v-275
c0 -31.333 -15.667 -47 -47 -47v-24h165v24c-18 0 -31.667 2.66699 -41 8s-14 15.666 -14 30.999v268c0 17.333 3.5 28.166 10.5 32.499s19.167 6.5 36.5 6.5v24h-118l-126 -284l-126 284h-118v-24z" />
    <glyph glyph-name="fi" unicode="&#xf001;" horiz-adv-x="677" 
d="M134 417l0.00195312 -298.998c0 -30 -8.5 -52 -25.5 -66s-40.167 -21 -69.5 -21c-13.333 0 -20 -4.66699 -20 -14c0 -11.333 6.66699 -17 20 -17h607c13.333 0 20 4.66699 20 14c0 11.333 -6.66699 17 -20 17c-41.333 0 -67.5 9.16699 -78.5 27.5
s-16.5 40.833 -16.5 67.5v299c0 12.667 -1.5 21.5 -4.5 26.5s-11.833 7.5 -26.5 7.5l-24 -2c-24 -3.33301 -56.5 -5.5 -97.5 -6.5s-92.5 -1.5 -154.5 -1.5v149c0 33.333 10.167 59.833 30.5 79.5s44.5 29.5 72.5 29.5c22 0 42.333 -6.5 61 -19.5s32.167 -31.833 40.5 -56.5
s25.166 -37 50.499 -37c17.333 0 32.666 5.16699 45.999 15.5s20 23.166 20 38.499c0 6.66699 -2 13.667 -6 21c-4.66699 14 -24 28.5 -58 43.5s-75.333 22.5 -124 22.5c-14.667 0 -51.167 -3.33301 -109.5 -10s-96.5 -51.334 -114.5 -134.001l-19 -119
c0 -10 -9 -16.333 -27 -19s-38 -4 -60 -4c-15.333 0 -23 -5.33301 -23 -16s7.66699 -16 23 -16h87zM378.002 417.002c31.333 0 51 -5.66699 59 -17s12 -31.333 12 -60v-25v-181c0 -38 -9.5 -66.5 -28.5 -85.5s-42.5 -28.5 -70.5 -28.5c-27.333 0 -51.833 9.16699 -73.5 27.5
s-32.5 41.833 -32.5 70.5v299h134z" />
    <glyph glyph-name="fl" unicode="&#xf002;" horiz-adv-x="661" 
d="M134 417l0.000976562 -299.002c0 -30.667 -6.33301 -52.834 -19 -66.501s-38 -20.5 -76 -20.5c-15.333 0 -23 -5.33301 -23 -16c0 -10 7.66699 -15 23 -15h607c11.333 0 17 5 17 15c0 10.667 -5.66699 16 -17 16c-32 0 -55.833 2.33301 -71.5 7
s-23.5 31.334 -23.5 80.001v536c0 11.333 -1.83301 18.833 -5.5 22.5s-9.83398 5.5 -18.501 5.5c-10.667 -0.666992 -19 -1 -25 -1c-10 0 -17.333 0.833008 -22 2.5s-9.66699 4.83398 -15 9.50098c-37.333 26 -76 39 -116 39c-58 0 -108.333 -24.333 -151 -73
s-64 -105.667 -64 -171c0 -17.333 -6.66699 -28.166 -20 -32.499s-33 -6.5 -59 -6.5c-9.33301 0 -16.5 -1.83301 -21.5 -5.5s-7.5 -8.16699 -7.5 -13.5c0 -12.667 9.66699 -17 29 -13h79zM449.001 613.998l-0.000976562 -488c0 -32.667 -11.5 -58.834 -34.5 -78.501
s-49.167 -29.5 -78.5 -29.5c-28 0 -51.667 8.5 -71 25.5s-29 41.833 -29 74.5v299h103c17.333 0 26 5 26 15c0 4 -2.5 7.83301 -7.5 11.5s-11.167 5.5 -18.5 5.5h-103c0 30.667 0.5 59.334 1.5 86.001s3.5 53.167 7.5 79.5s13.833 47.333 29.5 63s32.5 23.5 50.5 23.5
c21.333 0 33.833 -8.66699 37.5 -26s11.834 -32 24.501 -44s28.667 -18 48 -18c6 0 10.667 0.333008 14 1z" />
    <glyph glyph-name="nonmarkingreturn" horiz-adv-x="299" 
 />
  </font>
</defs>
</svg>
